<svg width="24" height="16" viewBox="0 0 24 16" fill="none" xmlns="http://www.w3.org/2000/svg">
<path d="M6.76316 6.03625C6.76316 6.33225 6.79516 6.57125 6.85116 6.74625C6.91516 6.92225 6.99516 7.11425 7.10716 7.32225C7.14716 7.38525 7.16316 7.44925 7.16316 7.50525C7.16316 7.58526 7.11516 7.66526 7.01116 7.74526L6.50815 8.08026C6.44736 8.12409 6.37504 8.14913 6.30015 8.15226C6.22015 8.15226 6.14015 8.11226 6.06115 8.04026C5.95373 7.92471 5.85762 7.79914 5.77415 7.66526C5.68476 7.51189 5.60201 7.35474 5.52615 7.19425C4.90415 7.92826 4.12114 8.29526 3.17914 8.29526C2.50913 8.29526 1.97413 8.10426 1.58313 7.72126C1.19213 7.33725 0.993125 6.82725 0.993125 6.18825C0.993125 5.51024 1.23213 4.95824 1.71913 4.54424C2.20613 4.12924 2.85214 3.92124 3.67414 3.92124C3.94614 3.92124 4.22514 3.94524 4.52014 3.98524C4.81615 4.02524 5.12015 4.08924 5.43815 4.16124V3.57823C5.43815 2.97123 5.31115 2.54823 5.06315 2.30123C4.80815 2.05323 4.37714 1.93422 3.76314 1.93422C3.48314 1.93422 3.19514 1.96523 2.90014 2.03723C2.60513 2.10923 2.31713 2.19723 2.03813 2.30923C1.94716 2.34996 1.85363 2.3847 1.75813 2.41323C1.717 2.42648 1.67429 2.43422 1.63113 2.43623C1.51913 2.43623 1.46313 2.35623 1.46313 2.18923V1.79822C1.46313 1.67022 1.47913 1.57422 1.51913 1.51822C1.57953 1.44562 1.6563 1.38839 1.74313 1.35122C2.02213 1.20722 2.35713 1.08722 2.74813 0.99122C3.15516 0.887019 3.57401 0.836258 3.99414 0.840219C4.94415 0.840219 5.63815 1.05622 6.08515 1.48722C6.52416 1.91722 6.74716 2.57223 6.74716 3.45023V6.03625H6.76316ZM3.52314 7.25025C3.78614 7.25025 4.05714 7.20225 4.34514 7.10625C4.63214 7.01025 4.88815 6.83525 5.10315 6.59625C5.23115 6.44425 5.32715 6.27625 5.37515 6.08425C5.42215 5.89325 5.45515 5.66125 5.45515 5.39024V5.05524C5.21289 4.99618 4.9675 4.95078 4.72015 4.91924C4.47139 4.88764 4.2209 4.8716 3.97014 4.87124C3.43514 4.87124 3.04414 4.97524 2.78014 5.19124C2.51713 5.40624 2.39013 5.70924 2.39013 6.10825C2.39013 6.48325 2.48513 6.76325 2.68513 6.95425C2.87614 7.15425 3.15514 7.25025 3.52314 7.25025ZM9.93317 8.11226C9.78917 8.11226 9.69317 8.08826 9.62917 8.03226C9.56517 7.98426 9.50917 7.87226 9.46117 7.72126L7.58616 1.55022C7.54969 1.44675 7.52552 1.33934 7.51416 1.23022C7.51416 1.10222 7.57816 1.03022 7.70516 1.03022H8.48817C8.63917 1.03022 8.74317 1.05522 8.79817 1.11022C8.86317 1.15822 8.91117 1.27022 8.95817 1.42222L10.3002 6.70625L11.5452 1.42222C11.5852 1.26222 11.6332 1.15822 11.6962 1.11022C11.7921 1.05138 11.9038 1.02346 12.0162 1.03022H12.6542C12.8062 1.03022 12.9102 1.05522 12.9742 1.11022C13.0372 1.15822 13.0942 1.27022 13.1252 1.42222L14.3862 6.77025L15.7672 1.42222C15.8152 1.26222 15.8712 1.15822 15.9272 1.11022C16.0198 1.05141 16.1287 1.02341 16.2382 1.03022H16.9812C17.1082 1.03022 17.1812 1.09522 17.1812 1.23022C17.1812 1.27022 17.1722 1.31022 17.1642 1.35822C17.1517 1.42646 17.1329 1.4934 17.1082 1.55822L15.1852 7.72826C15.1372 7.88826 15.0812 7.99126 15.0172 8.03926C14.9271 8.09706 14.8211 8.12505 14.7142 8.11926H14.0272C13.8762 8.11926 13.7722 8.09526 13.7072 8.03926C13.6442 7.98326 13.5882 7.87926 13.5572 7.71926L12.3192 2.57123L11.0892 7.71126C11.0492 7.87126 11.0022 7.97526 10.9392 8.03126C10.8742 8.08726 10.7622 8.11126 10.6192 8.11126L9.93317 8.11226ZM20.1892 8.32726C19.7742 8.32726 19.3592 8.27926 18.9602 8.18426C18.5612 8.08826 18.2502 7.98426 18.0422 7.86426C17.9142 7.79326 17.8272 7.71326 17.7952 7.64126C17.764 7.57067 17.7477 7.49442 17.7472 7.41725V7.01025C17.7472 6.84325 17.8112 6.76325 17.9302 6.76325C17.9782 6.76325 18.0262 6.77125 18.0742 6.78725C18.1222 6.80325 18.1942 6.83525 18.2742 6.86725C18.5452 6.98725 18.8402 7.08225 19.1522 7.14625C19.4712 7.21025 19.7822 7.24225 20.1022 7.24225C20.6042 7.24225 20.9962 7.15425 21.2672 6.97825C21.3971 6.89976 21.504 6.78829 21.5769 6.65516C21.6497 6.52203 21.6861 6.37198 21.6822 6.22025C21.6852 6.11748 21.6677 6.01515 21.6308 5.9192C21.5939 5.82324 21.5383 5.73556 21.4672 5.66124C21.3232 5.51024 21.0512 5.37424 20.6602 5.24624L19.5032 4.88624C18.9202 4.70324 18.4892 4.43224 18.2262 4.07324C17.9688 3.74192 17.8282 3.33478 17.8262 2.91523C17.8262 2.58023 17.8992 2.28523 18.0422 2.02923C18.1862 1.77422 18.3772 1.55022 18.6172 1.37522C18.8572 1.19122 19.1272 1.05522 19.4472 0.96022C19.7672 0.864219 20.1022 0.824219 20.4532 0.824219C20.6282 0.824219 20.8122 0.832219 20.9882 0.856219C21.1712 0.880219 21.3382 0.912219 21.5062 0.944219C21.6662 0.984219 21.8182 1.02422 21.9612 1.07122C22.1052 1.11922 22.2172 1.16722 22.2972 1.21522C22.3915 1.26266 22.4736 1.33108 22.5372 1.41522C22.5888 1.49288 22.6137 1.58518 22.6082 1.67822V2.05323C22.6082 2.22123 22.5442 2.30923 22.4242 2.30923C22.318 2.29704 22.2151 2.26445 22.1212 2.21323C21.639 2.0002 21.1164 1.8941 20.5892 1.90222C20.1342 1.90222 19.7742 1.97322 19.5272 2.12523C19.2792 2.27723 19.1522 2.50823 19.1522 2.83523C19.1522 3.05923 19.2322 3.25123 19.3922 3.40223C19.5512 3.55423 19.8462 3.70623 20.2692 3.84224L21.4032 4.20024C21.9772 4.38424 22.3932 4.64024 22.6402 4.96724C22.8872 5.29424 23.0072 5.66924 23.0072 6.08425C23.0072 6.42725 22.9352 6.73925 22.8002 7.01025C22.6562 7.28225 22.4642 7.52126 22.2172 7.71326C21.9692 7.91326 21.6742 8.05626 21.3312 8.16026C20.9712 8.27126 20.5972 8.32726 20.1892 8.32726ZM21.6982 12.2073C19.0722 14.1473 15.2562 15.1763 11.9762 15.1763C7.37816 15.1763 3.23614 13.4763 0.106121 10.6503C-0.140881 10.4273 0.0821206 10.1233 0.378122 10.2993C3.76214 12.2623 7.93716 13.4523 12.2552 13.4523C15.1692 13.4523 18.3692 12.8453 21.3152 11.6003C21.7542 11.4003 22.1292 11.8873 21.6982 12.2073ZM22.7922 10.9613C22.4562 10.5313 20.5722 10.7543 19.7182 10.8583C19.4632 10.8903 19.4232 10.6663 19.6552 10.4983C21.1552 9.44526 23.6222 9.74827 23.9092 10.0993C24.1963 10.4593 23.8292 12.9253 22.4242 14.1063C22.2092 14.2903 22.0012 14.1943 22.0972 13.9553C22.4172 13.1653 23.1272 11.3853 22.7922 10.9613Z" fill="#FF9900"/>
</svg>
