<svg width="20" height="24" viewBox="0 0 20 24" fill="none" xmlns="http://www.w3.org/2000/svg">
<path d="M9.14597 0H13.07V18.166C11.057 18.548 9.57897 18.701 7.97397 18.701C3.18297 18.701 0.685974 16.535 0.685974 12.381C0.685974 8.379 3.33597 5.781 7.43897 5.781C8.07597 5.781 8.55997 5.831 9.14597 5.984V0ZM9.14597 9.143C8.71942 8.99891 8.27111 8.92989 7.82097 8.939C5.83297 8.939 4.68697 10.162 4.68697 12.304C4.68697 14.394 5.78297 15.54 7.79597 15.54C8.22897 15.54 8.58597 15.515 9.14597 15.438V9.143ZM19.314 6.06V15.158C19.314 18.292 19.085 19.796 18.397 21.095C17.76 22.344 16.919 23.134 15.186 24L11.542 22.267C13.275 21.452 14.116 20.737 14.651 19.642C15.212 18.521 15.39 17.221 15.39 13.807V6.059L19.314 6.06ZM15.39 0.021H19.314V4.047H15.39V0.021Z" fill="#125A3E"/>
</svg>
