<svg width="24" height="18" viewBox="0 0 24 18" fill="none" xmlns="http://www.w3.org/2000/svg">
<path d="M13.983 8.07804H16.102C16.1512 8.07804 16.1983 8.05858 16.2332 8.02391C16.268 7.98925 16.2878 7.94219 16.288 7.89304V6.00604C16.288 5.95671 16.2684 5.9094 16.2335 5.87452C16.1987 5.83963 16.1513 5.82004 16.102 5.82004H13.983C13.934 5.82004 13.8869 5.83953 13.8522 5.87422C13.8175 5.90892 13.798 5.95597 13.798 6.00504V7.89304C13.798 7.99504 13.881 8.07804 13.983 8.07804ZM11.029 2.64804H13.147C13.1963 2.64804 13.2437 2.62844 13.2785 2.59356C13.3134 2.55868 13.333 2.51137 13.333 2.46204V0.574038C13.3328 0.524881 13.313 0.477828 13.2782 0.443162C13.2433 0.408496 13.1962 0.389037 13.147 0.389038H11.029C10.98 0.389038 10.9329 0.408529 10.8982 0.443223C10.8635 0.477918 10.844 0.524973 10.844 0.574038V2.46204C10.844 2.56404 10.926 2.64804 11.029 2.64804ZM11.029 5.36304H13.147C13.1963 5.36278 13.2434 5.34309 13.2782 5.30827C13.3131 5.27344 13.3328 5.22629 13.333 5.17704V3.29004C13.3328 3.24088 13.313 3.19383 13.2782 3.15916C13.2433 3.1245 13.1962 3.10504 13.147 3.10504H11.029C10.98 3.10504 10.9329 3.12453 10.8982 3.15922C10.8635 3.19392 10.844 3.24097 10.844 3.29004V5.17704C10.844 5.27904 10.926 5.36204 11.029 5.36304ZM8.09902 5.36304H10.219C10.268 5.36251 10.3148 5.34268 10.3492 5.30786C10.3837 5.27303 10.403 5.22602 10.403 5.17704V3.29004C10.403 3.24097 10.3835 3.19392 10.3488 3.15922C10.3141 3.12453 10.2671 3.10504 10.218 3.10504H8.10002C8.05095 3.10504 8.0039 3.12453 7.9692 3.15922C7.93451 3.19392 7.91502 3.24097 7.91502 3.29004V5.17704C7.91502 5.27904 7.99802 5.36204 8.10002 5.36304M5.13602 5.36304H7.25502C7.30417 5.36277 7.35123 5.34306 7.38589 5.30821C7.42056 5.27335 7.44002 5.2262 7.44002 5.17704V3.29004C7.44002 3.24097 7.42053 3.19392 7.38583 3.15922C7.35114 3.12453 7.30408 3.10504 7.25502 3.10504H5.13602C5.08686 3.10504 5.0397 3.1245 5.00485 3.15916C4.96999 3.19383 4.95028 3.24088 4.95002 3.29004V5.17704C4.95002 5.27904 5.03402 5.36204 5.13602 5.36304ZM11.029 8.07804H13.147C13.1962 8.07804 13.2433 8.05858 13.2782 8.02391C13.313 7.98925 13.3328 7.94219 13.333 7.89304V6.00604C13.333 5.95671 13.3134 5.9094 13.2785 5.87452C13.2437 5.83963 13.1963 5.82004 13.147 5.82004H11.029C10.98 5.82004 10.9329 5.83953 10.8982 5.87422C10.8635 5.90892 10.844 5.95597 10.844 6.00504V7.89304C10.844 7.99504 10.926 8.07804 11.029 8.07804ZM8.09902 8.07804H10.219C10.2679 8.07777 10.3147 8.05817 10.3492 8.0235C10.3837 7.98883 10.403 7.94193 10.403 7.89304V6.00604C10.4031 5.98174 10.3985 5.95766 10.3893 5.93517C10.3801 5.91267 10.3666 5.8922 10.3495 5.87493C10.3325 5.85766 10.3121 5.84392 10.2897 5.8345C10.2673 5.82508 10.2433 5.82017 10.219 5.82004H8.09902C8.05013 5.8203 8.00333 5.83991 7.96885 5.87458C7.93437 5.90924 7.91502 5.95615 7.91502 6.00504V7.89304C7.91502 7.99504 7.99802 8.07804 8.10002 8.07804M5.13602 8.07804H7.25502C7.30408 8.07804 7.35114 8.05855 7.38583 8.02385C7.42053 7.98916 7.44002 7.9421 7.44002 7.89304V6.00604C7.44015 5.98174 7.43549 5.95766 7.42632 5.93517C7.41714 5.91267 7.40363 5.8922 7.38654 5.87493C7.36945 5.85766 7.34913 5.84392 7.32674 5.8345C7.30434 5.82508 7.28031 5.82017 7.25602 5.82004H5.13602C5.08669 5.82004 5.03938 5.83963 5.0045 5.87452C4.96961 5.9094 4.95002 5.95671 4.95002 6.00604V7.89304C4.95002 7.99504 5.03402 8.07804 5.13602 8.07804ZM2.21602 8.07804H4.33602C4.38491 8.07777 4.43171 8.05817 4.46619 8.0235C4.50066 7.98883 4.52002 7.94193 4.52002 7.89304V6.00604C4.52015 5.98174 4.51549 5.95766 4.50632 5.93517C4.49714 5.91267 4.48363 5.8922 4.46654 5.87493C4.44945 5.85766 4.42913 5.84392 4.40674 5.8345C4.38434 5.82508 4.36031 5.82017 4.33602 5.82004H2.21602C2.16713 5.8203 2.12033 5.83991 2.08585 5.87458C2.05137 5.90924 2.03202 5.95615 2.03202 6.00504V7.89304C2.03202 7.99504 2.11302 8.07804 2.21602 8.07804ZM23.763 6.89004C23.698 6.83904 23.091 6.38004 21.809 6.38004C21.471 6.38104 21.133 6.41004 20.799 6.46704C20.551 4.76704 19.146 3.93704 19.083 3.90104L18.739 3.70204L18.513 4.02904C18.229 4.46704 18.023 4.95104 17.901 5.45904C17.671 6.42904 17.811 7.34104 18.304 8.12004C17.709 8.45204 16.754 8.53304 16.56 8.54004H0.751017C0.552531 8.5403 0.362221 8.61913 0.221683 8.75929C0.0811454 8.89946 0.00180974 9.08955 0.00101703 9.28804C-0.0175013 10.6729 0.217012 12.0494 0.693017 13.35C1.23802 14.778 2.04802 15.83 3.10302 16.474C4.28302 17.197 6.20302 17.611 8.37802 17.611C9.36102 17.614 10.341 17.525 11.308 17.345C12.6509 17.0984 13.943 16.6289 15.131 15.956C16.111 15.389 16.991 14.668 17.741 13.82C18.993 12.402 19.739 10.823 20.294 9.42004H20.515C21.887 9.42004 22.73 8.87104 23.195 8.41104C23.504 8.11804 23.745 7.76104 23.902 7.36504L24 7.07704L23.763 6.89004Z" fill="#2496ED"/>
</svg>
