<svg width="24" height="14" viewBox="0 0 24 14" fill="none" xmlns="http://www.w3.org/2000/svg">
<path d="M24 13.5885C23.6507 13.7206 23.2651 13.7203 22.916 13.5877C22.5669 13.4551 22.2785 13.1992 22.105 12.8685L18.655 8.09751L18.155 7.43051L14.152 12.8745C13.989 13.1914 13.7162 13.438 13.3845 13.5683C13.0529 13.6986 12.6851 13.7037 12.35 13.5825L17.508 6.66251L12.71 0.411511C13.055 0.287186 13.4323 0.285538 13.7784 0.406844C14.1244 0.52815 14.4181 0.765 14.61 1.07751L18.186 5.90751L21.782 1.09751C21.9463 0.786299 22.2192 0.546299 22.5488 0.42314C22.8785 0.29998 23.2419 0.302248 23.57 0.429511L21.708 2.90051L19.186 6.18351C19.116 6.24599 19.0599 6.32256 19.0216 6.40821C18.9832 6.49386 18.9633 6.58666 18.9633 6.68051C18.9633 6.77437 18.9832 6.86716 19.0216 6.95281C19.0599 7.03846 19.116 7.11504 19.186 7.17751L23.99 13.5895L24 13.5885ZM0.002012 6.57651L0.422012 4.50151C1.57601 0.398512 6.28001 -1.30849 9.51601 1.23151C11.411 2.72051 11.884 4.82851 11.791 7.20451H1.11601C0.943012 11.4475 4.00501 14.0095 7.92001 12.7005C8.55467 12.4721 9.12275 12.0897 9.57337 11.5878C10.024 11.0859 10.3431 10.48 10.502 9.82451C10.709 9.15851 11.05 9.04451 11.676 9.23651C11.5717 10.0489 11.2845 10.827 10.8361 11.5124C10.3876 12.1978 9.78963 12.7726 9.08701 13.1935C7.92643 13.8283 6.59484 14.08 5.28264 13.9124C3.97043 13.7448 2.74481 13.1666 1.78101 12.2605C0.828041 11.1879 0.252088 9.833 0.141012 8.40251C0.141012 8.16751 0.061012 7.94751 0.007012 7.73651C0.00214403 7.3502 -0.000189357 6.96386 1.19963e-05 6.57751L0.002012 6.57651ZM1.12901 6.29051H10.783C10.723 3.21451 8.78201 1.03251 6.19301 1.01251C3.31101 0.972511 1.24901 3.10651 1.12201 6.27651L1.12901 6.29051Z" fill="white"/>
</svg>
