<svg width="18" height="24" viewBox="0 0 18 24" fill="none" xmlns="http://www.w3.org/2000/svg">
<path d="M12.8525 8.981H8.26447V0H12.8525C15.3285 0 17.3425 2.014 17.3425 4.49C17.3425 6.966 15.3285 8.981 12.8525 8.981ZM9.73547 7.51H12.8525C14.5175 7.51 15.8715 6.155 15.8715 4.491C15.8715 2.827 14.5165 1.472 12.8525 1.472H9.73547V7.51ZM9.73547 8.981H5.14847C2.67247 8.981 0.658471 6.967 0.658471 4.491C0.658471 2.015 2.67247 0 5.14847 0H9.73647V8.981H9.73547ZM5.14847 1.471C3.48347 1.471 2.12947 2.826 2.12947 4.49C2.12947 6.154 3.48347 7.51 5.14847 7.51H8.26547V1.471H5.14847ZM9.73547 16.49H5.14847C2.67247 16.49 0.658471 14.476 0.658471 12C0.658471 9.524 2.67247 7.51 5.14847 7.51H9.73647V16.49H9.73547ZM5.14847 8.981C3.48347 8.981 2.12947 10.336 2.12947 12C2.12947 13.664 3.48447 15.019 5.14847 15.019H8.26547V8.981H5.14847ZM5.17247 24C2.68347 24 0.657471 21.986 0.657471 19.51C0.657471 17.034 2.67147 15.02 5.14747 15.02H9.73547V19.461C9.73547 21.964 7.68847 24 5.17247 24ZM5.14847 16.49C4.34811 16.4911 3.58083 16.8095 3.01488 17.3754C2.44894 17.9414 2.13053 18.7086 2.12947 19.509C2.12947 21.174 3.49447 22.528 5.17347 22.528C6.87847 22.528 8.26647 21.152 8.26647 19.46V16.49H5.14847ZM12.8525 16.49H12.7545C10.2785 16.49 8.26447 14.476 8.26447 12C8.26447 9.524 10.2785 7.51 12.7545 7.51H12.8525C15.3285 7.51 17.3425 9.524 17.3425 12C17.3425 14.476 15.3285 16.49 12.8525 16.49ZM12.7555 8.981C11.0905 8.981 9.73647 10.336 9.73647 12C9.73647 13.664 11.0915 15.019 12.7555 15.019H12.8535C14.5185 15.019 15.8725 13.664 15.8725 12C15.8725 10.336 14.5165 8.981 12.8525 8.981H12.7555Z" fill="#F24E1E"/>
</svg>
