<svg width="20" height="24" viewBox="0 0 20 24" fill="none" xmlns="http://www.w3.org/2000/svg">
<path d="M17.4548 8.369C16.9168 7.621 15.6768 6.084 13.7738 3.8C12.9478 2.809 12.2388 1.968 11.8898 1.555C11.7277 1.36258 11.565 1.17058 11.4018 0.979L11.1948 0.734L11.0818 0.601L11.0598 0.569L11.0498 0.564L10.5698 0L9.96083 0.488C8.40583 1.734 7.13283 3.339 6.27983 5.128C5.75683 6.192 5.41583 7.233 5.23683 8.304C5.18983 8.545 5.14883 8.793 5.11583 9.042C4.90683 9.025 4.69483 9.014 4.48383 9.009C4.46583 9.008 4.44883 9.007 4.42483 9.006C3.65524 8.97911 2.88613 9.07154 2.14483 9.28L1.82783 9.369L1.66483 9.655C0.899827 10.997 0.466827 12.524 0.412827 14.071C0.342827 16.081 0.889827 18.025 1.99583 19.696C3.07783 21.329 4.60583 22.578 6.41583 23.307L6.65183 23.402L6.72283 23.427L6.72583 23.426C7.67036 23.7682 8.66279 23.9599 9.66683 23.994C9.78083 23.998 9.89483 24 10.0088 24C11.2818 24 12.5218 23.751 13.6988 23.258L13.7068 23.262L14.0198 23.117C15.6074 22.3826 16.965 21.2297 17.9468 19.782C18.9568 18.292 19.5238 16.548 19.5878 14.74C19.6628 12.579 18.9448 10.436 17.4548 8.369ZM10.3718 15.064C10.6998 16.308 10.6358 17.504 10.1808 18.622C9.04583 17.502 8.21383 16.27 7.70583 14.957C7.16283 13.553 6.83583 12.217 6.73183 10.982C7.21183 11.139 7.65383 11.348 8.04683 11.604C9.17883 12.341 9.96083 13.505 10.3718 15.064ZM10.5788 21.086C11.0608 21.454 11.5688 21.798 12.0918 22.114C11.3208 22.324 10.5268 22.416 9.72283 22.387C9.59834 22.3826 9.47397 22.3752 9.34983 22.365C9.80783 21.971 10.2188 21.542 10.5778 21.086H10.5788ZM11.9258 14.655C11.4098 12.698 10.3988 11.218 8.92383 10.257C8.27683 9.836 7.53883 9.516 6.72983 9.307C6.74083 9.173 6.75583 9.039 6.77283 8.907C6.78683 8.794 6.80283 8.691 6.81883 8.594C6.95183 7.905 7.15083 7.224 7.40783 6.569C7.50683 6.319 7.61383 6.07 7.72883 5.829L7.73283 5.821C7.90983 5.463 8.10883 5.102 8.34283 4.716L8.43483 4.564L8.43183 4.563C8.97583 3.712 9.62883 2.936 10.3738 2.252L10.6618 2.593C11.3338 3.389 11.9658 4.141 12.5398 4.83C13.8308 6.379 15.5058 8.413 16.1518 9.31C17.4288 11.081 18.0448 12.889 17.9818 14.685C17.9328 16.08 17.5208 17.44 16.7868 18.618C16.0928 19.734 15.1258 20.668 13.9868 21.326C13.3508 21.008 12.4278 20.487 11.4478 19.727C12.2378 18.152 12.3998 16.447 11.9268 14.655H11.9258ZM9.35083 20.052C8.62583 20.991 7.76383 21.602 7.26083 21.908C7.17983 21.879 7.09783 21.848 7.01783 21.815L6.95283 21.789C5.46283 21.173 4.20583 20.133 3.31783 18.779C2.41083 17.395 1.96183 15.786 2.01983 14.126C2.06083 12.936 2.35783 11.799 2.90183 10.747C3.21783 10.677 3.53983 10.633 3.86183 10.616L3.94583 10.614C4.10783 10.611 4.26983 10.611 4.42383 10.614C4.65083 10.625 4.87783 10.649 5.10083 10.684C5.17383 12.197 5.54583 13.829 6.20583 15.536C6.84283 17.18 7.89983 18.698 9.34983 20.051L9.35083 20.052Z" fill="#DD2C00"/>
</svg>
