<svg width="24" height="10" viewBox="0 0 24 10" fill="none" xmlns="http://www.w3.org/2000/svg">
<path d="M1.81092 3.23114C1.76392 3.23114 1.75292 3.20814 1.77592 3.17214L2.02192 2.85714C2.04492 2.82214 2.10292 2.79914 2.14992 2.79914H6.32192C6.36792 2.79914 6.37991 2.83414 6.35691 2.86914L6.15792 3.17214C6.13492 3.20814 6.07591 3.24214 6.04092 3.24214L1.81092 3.23114ZM0.0469152 4.30614C-8.47727e-05 4.30614 -0.0120848 4.28314 0.0119152 4.24814L0.256915 3.93214C0.279915 3.89714 0.338915 3.87414 0.385915 3.87414H5.71392C5.76092 3.87414 5.78392 3.90914 5.77191 3.94414L5.67892 4.22414C5.66691 4.27114 5.62091 4.29414 5.57392 4.29414L0.0469152 4.30614ZM2.87492 5.38114C2.82792 5.38114 2.81592 5.34614 2.83992 5.31114L3.00292 5.01914C3.02592 4.98414 3.07292 4.94914 3.11992 4.94914H5.45691C5.50391 4.94914 5.52692 4.98414 5.52692 5.03114L5.50392 5.31114C5.50392 5.35814 5.45691 5.39314 5.42192 5.39314L2.87492 5.38114ZM15.0039 3.02114C14.2679 3.20814 13.7649 3.34814 13.0409 3.53514C12.8649 3.58114 12.8539 3.59314 12.7009 3.41814C12.5269 3.21914 12.3979 3.09114 12.1529 2.97414C11.4159 2.61214 10.7029 2.71714 10.0379 3.14914C9.24292 3.66314 8.83391 4.42314 8.84591 5.36914C8.85691 6.30414 9.49992 7.07514 10.4229 7.20414C11.2179 7.30914 11.8829 7.02914 12.4099 6.43414C12.5149 6.30414 12.6079 6.16414 12.7249 6.00014H10.4699C10.2249 6.00014 10.1659 5.84814 10.2479 5.65014C10.3999 5.28814 10.6799 4.68014 10.8439 4.37614C10.869 4.31982 10.91 4.27208 10.9619 4.23884C11.0138 4.2056 11.0743 4.18832 11.1359 4.18914H15.3889C15.3659 4.50514 15.3659 4.82014 15.3189 5.13614C15.1979 5.96806 14.8683 6.75584 14.3609 7.42614C13.5199 8.53614 12.4209 9.22614 11.0309 9.41214C9.88592 9.56414 8.82191 9.34214 7.88792 8.64214C7.02291 7.98714 6.53191 7.12214 6.40391 6.04714C6.25191 4.77314 6.62592 3.62814 7.39691 2.62314C8.22692 1.53714 9.32491 0.847136 10.6689 0.603136C11.7669 0.403136 12.8189 0.533136 13.7649 1.17414C14.3849 1.58414 14.8279 2.14414 15.1209 2.82214C15.1909 2.92714 15.1439 2.98614 15.0039 3.02214M18.8719 9.48314C17.8079 9.45914 16.8379 9.15514 16.0199 8.45414C15.3394 7.88062 14.8908 7.07909 14.7579 6.19914C14.5479 4.87914 14.9099 3.71014 15.7049 2.67014C16.5579 1.54814 17.5859 0.964136 18.9769 0.720136C20.1689 0.510136 21.2909 0.625136 22.3069 1.31514C23.2299 1.94514 23.8029 2.79914 23.9549 3.92014C24.1529 5.49814 23.6979 6.78314 22.6109 7.88214C21.8399 8.66514 20.8929 9.15514 19.8059 9.37714C19.4909 9.43714 19.1759 9.44714 18.8719 9.48314ZM21.6519 4.76314C21.6409 4.61014 21.6409 4.49314 21.6179 4.37614C21.4079 3.21914 20.3439 2.56614 19.2339 2.82214C18.1469 3.06714 17.4459 3.75714 17.1889 4.85514C16.9789 5.76714 17.4229 6.69014 18.2639 7.06514C18.9069 7.34514 19.5489 7.30914 20.1689 6.99514C21.0919 6.51514 21.5939 5.76714 21.6529 4.76214L21.6519 4.76314Z" fill="#00ADD8"/>
</svg>
