<svg width="22" height="24" viewBox="0 0 22 24" fill="none" xmlns="http://www.w3.org/2000/svg">
<path d="M11.0009 0C10.4338 0 9.88983 0.225306 9.48879 0.626352C9.08774 1.0274 8.86243 1.57133 8.86243 2.1385C8.86243 2.70567 9.08774 3.2496 9.48879 3.65065C9.88983 4.05169 10.4338 4.277 11.0009 4.277C11.5681 4.277 12.112 4.05169 12.5131 3.65065C12.9141 3.2496 13.1394 2.70567 13.1394 2.1385C13.1394 1.57133 12.9141 1.0274 12.5131 0.626352C12.112 0.225306 11.5681 0 11.0009 0ZM19.5409 4.931C18.9738 4.931 18.4298 5.15631 18.0288 5.55735C17.6277 5.9584 17.4024 6.50233 17.4024 7.0695C17.4024 7.63667 17.6277 8.1806 18.0288 8.58165C18.4298 8.98269 18.9738 9.208 19.5409 9.208C20.1081 9.208 20.652 8.98269 21.0531 8.58165C21.4541 8.1806 21.6794 7.63667 21.6794 7.0695C21.6794 6.50233 21.4541 5.9584 21.0531 5.55735C20.652 5.15631 20.1081 4.931 19.5409 4.931ZM19.5409 14.793C18.9738 14.793 18.4298 15.0183 18.0288 15.4194C17.6277 15.8204 17.4024 16.3643 17.4024 16.9315C17.4024 17.4987 17.6277 18.0426 18.0288 18.4436C18.4298 18.8447 18.9738 19.07 19.5409 19.07C20.1081 19.07 20.652 18.8447 21.0531 18.4436C21.4541 18.0426 21.6794 17.4987 21.6794 16.9315C21.6794 16.3643 21.4541 15.8204 21.0531 15.4194C20.652 15.0183 20.1081 14.793 19.5409 14.793ZM11.0009 19.724C10.4339 19.724 9.89009 19.9493 9.48914 20.3502C9.08819 20.7512 8.86293 21.295 8.86293 21.862C8.86293 22.429 9.08819 22.9728 9.48914 23.3738C9.89009 23.7747 10.4339 24 11.0009 24C11.568 24 12.1118 23.7747 12.5127 23.3738C12.9137 22.9728 13.1389 22.429 13.1389 21.862C13.1389 21.295 12.9137 20.7512 12.5127 20.3502C12.1118 19.9493 11.568 19.724 11.0009 19.724ZM2.45893 14.794C2.17817 14.794 1.90015 14.8493 1.64076 14.9567C1.38136 15.0642 1.14567 15.2217 0.94714 15.4202C0.748609 15.6187 0.591125 15.8544 0.48368 16.1138C0.376236 16.3732 0.320935 16.6512 0.320935 16.932C0.320935 17.2128 0.376236 17.4908 0.48368 17.7502C0.591125 18.0096 0.748609 18.2453 0.94714 18.4438C1.14567 18.6423 1.38136 18.7998 1.64076 18.9073C1.90015 19.0147 2.17817 19.07 2.45893 19.07C3.0261 19.07 3.57004 18.8447 3.97108 18.4436C4.37213 18.0426 4.59743 17.4987 4.59743 16.9315C4.59743 16.3643 4.37213 15.8204 3.97108 15.4194C3.57004 15.0183 3.0261 14.794 2.45893 14.794ZM2.45893 4.931C1.89177 4.931 1.34783 5.15631 0.946787 5.55735C0.54574 5.9584 0.320435 6.50233 0.320435 7.0695C0.320435 7.63667 0.54574 8.1806 0.946787 8.58165C1.34783 8.98269 1.89177 9.208 2.45893 9.208C3.0261 9.208 3.57004 8.98269 3.97108 8.58165C4.37213 8.1806 4.59743 7.63667 4.59743 7.0695C4.59743 6.50233 4.37213 5.9584 3.97108 5.55735C3.57004 5.15631 3.0261 4.931 2.45893 4.931ZM11.0009 1.553L1.95193 6.777V17.225L11.0009 22.449L20.0479 17.225V6.777L11.0009 1.553ZM11.0009 3.154L18.6609 16.424H3.33893L11.0009 3.154ZM9.61393 3.525L2.96893 15.037V7.363L9.61393 3.525ZM12.3879 3.525L19.0339 7.363V15.037L12.3879 3.525ZM4.35393 17.44H17.6469L11.0009 21.276L4.35393 17.44Z" fill="#E10098"/>
</svg>
