<svg width="24" height="24" viewBox="0 0 24 24" fill="none" xmlns="http://www.w3.org/2000/svg">
<path d="M11.8812 4.44714C10.7722 5.2271 9.51531 6.11117 8.8419 7.57375C7.67219 10.1253 11.2354 12.9087 11.3877 13.0259C11.4231 13.0532 11.4655 13.0668 11.5077 13.0668C11.5526 13.0668 11.5975 13.0514 11.634 13.0209C11.7047 12.9617 11.7248 12.8612 11.6823 12.7794C11.6694 12.7545 10.3904 10.2702 10.4379 8.4878C10.4548 7.8671 11.3235 7.16292 12.2432 6.41734C13.0856 5.73448 14.0404 4.9605 14.5991 4.05511C15.8255 2.06216 14.4624 0.102499 14.4485 0.0829846C14.3943 0.00697134 14.2944 -0.0206484 14.2089 0.0168861C14.1236 0.0544993 14.0763 0.14688 14.0958 0.23808C14.0985 0.250985 14.3636 1.54691 13.626 2.88202C13.322 3.43371 12.6544 3.9034 11.8812 4.44714Z" fill="#E11F21"/>
<path d="M16.5534 5.32606C16.6316 5.26712 16.6545 5.15963 16.6072 5.07386C16.5598 4.98809 16.4566 4.95024 16.365 4.98502C16.1767 5.05663 11.7518 6.7622 11.7518 8.82314C11.7518 10.2437 12.3586 10.9942 12.8017 11.5423C12.9755 11.7572 13.1256 11.9428 13.175 12.1013C13.3142 12.558 12.9844 13.3835 12.8458 13.663C12.8058 13.7434 12.8254 13.8407 12.8934 13.8994C12.9301 13.9311 12.976 13.9472 13.022 13.9472C13.0611 13.9472 13.1003 13.9355 13.1343 13.9119C13.2103 13.859 14.9937 12.5981 14.6738 11.0791C14.5547 10.5017 14.2709 10.0798 14.0205 9.70752C13.6327 9.13081 13.3525 8.71416 13.7775 7.94466C14.2756 7.04729 16.5306 5.34313 16.5534 5.32606Z" fill="#E11F21"/>
<path d="M5.03527 13.98C4.95941 14.207 4.99521 14.4325 5.13874 14.6318C5.61843 15.2977 7.31747 15.6644 9.92317 15.6644C9.92333 15.6644 9.92348 15.6644 9.92348 15.6644C10.2766 15.6644 10.6493 15.6575 11.0311 15.6438C15.1971 15.4946 16.7423 14.1968 16.8061 14.1416C16.8755 14.0815 16.8941 13.9814 16.8509 13.9003C16.8077 13.8193 16.7145 13.7786 16.6256 13.8031C15.1584 14.2037 12.4186 14.3459 10.5183 14.3459C8.39189 14.3459 7.30897 14.1928 7.04387 14.0797C7.17992 13.8929 8.01898 13.5593 9.05869 13.3548C9.15808 13.3353 9.22638 13.2436 9.21654 13.1428C9.20671 13.042 9.12204 12.9651 9.02077 12.9651C8.41124 12.9652 5.35474 13.0141 5.03527 13.98Z" fill="#E11F21"/>
<path d="M18.9757 12.6433C18.1164 12.6433 17.3016 13.0739 17.2672 13.0922C17.1878 13.1348 17.1475 13.2259 17.1693 13.3134C17.1912 13.4008 17.2698 13.4623 17.3599 13.4624C17.3782 13.4625 19.1928 13.4773 19.3572 14.5141C19.5028 15.4085 17.6402 16.8578 16.9102 17.3408C16.8314 17.393 16.8008 17.4938 16.8374 17.5809C16.8685 17.6551 16.9408 17.7016 17.0187 17.7016C17.0323 17.7016 17.0461 17.7002 17.0597 17.6972C17.233 17.6602 21.2975 16.7645 20.8678 14.398C20.6056 12.9477 19.6941 12.6433 18.9757 12.6433Z" fill="#E11F21"/>
<path d="M16.1882 17.0512C16.2024 16.9754 16.1708 16.8983 16.1077 16.854L15.1332 16.1714C15.0857 16.1381 15.0256 16.1277 14.9698 16.1425C14.9597 16.1451 13.9405 16.413 12.4608 16.5773C11.8736 16.6432 11.2158 16.6779 10.5585 16.6779C9.07927 16.6779 8.11203 16.5041 7.97117 16.3766C7.95253 16.3408 7.95843 16.3245 7.96173 16.3155C7.98731 16.2443 8.12446 16.1597 8.21291 16.1262C8.31056 16.0901 8.3632 15.9841 8.33283 15.8844C8.30253 15.7848 8.19984 15.7261 8.09849 15.7505C7.12087 15.9864 6.64283 16.3164 6.67761 16.731C6.73938 17.4662 8.44244 17.8436 9.88221 17.9435C10.0892 17.9576 10.3132 17.9649 10.5476 17.9649C10.5478 17.9649 10.5478 17.9649 10.548 17.9649C12.9421 17.9649 16.0113 17.2137 16.042 17.2061C16.1169 17.1876 16.174 17.1271 16.1882 17.0512Z" fill="#E11F21"/>
<path d="M8.84073 18.6294C8.91454 18.5813 8.94728 18.4901 8.92108 18.4061C8.89495 18.322 8.81634 18.2669 8.72805 18.268C8.59704 18.2714 7.44606 18.3234 7.36548 19.0562C7.34109 19.2752 7.4038 19.4752 7.55197 19.6508C7.96524 20.1405 9.08073 20.4316 10.9617 20.5407C11.1842 20.554 11.4102 20.5607 11.6336 20.5607C14.025 20.5607 15.6355 19.812 15.7029 19.7801C15.7683 19.7492 15.8114 19.685 15.8153 19.6128C15.8192 19.5406 15.7831 19.4721 15.7214 19.4344L14.4898 18.6825C14.4471 18.6564 14.3959 18.6478 14.3471 18.6578C14.3393 18.6594 13.5573 18.8216 12.3772 18.9819C12.1538 19.0122 11.8742 19.0276 11.5461 19.0276C10.3671 19.0276 9.05587 18.835 8.80438 18.7089C8.80076 18.6852 8.8054 18.6553 8.84073 18.6294Z" fill="#E11F21"/>
<path d="M10.5192 22.8213C15.9967 22.8167 18.9366 21.8426 19.5029 21.2296C19.7034 21.0127 19.725 20.8074 19.708 20.6733C19.6659 20.3433 19.3654 20.1413 19.3312 20.1193C19.249 20.0665 19.1387 20.0803 19.0745 20.1543C19.0106 20.2283 19.0091 20.3364 19.0733 20.4102C19.1078 20.4547 19.1278 20.5291 19.0268 20.6302C18.8004 20.8416 16.5168 21.4835 12.7148 21.6763C12.1939 21.7034 11.6477 21.7171 11.0912 21.7172C7.68694 21.7172 5.19558 21.251 4.86855 20.9792C4.99469 20.7981 5.87585 20.5087 6.81303 20.3451C6.91863 20.3267 6.99 20.2271 6.97363 20.1212C6.95726 20.0153 6.85961 19.9424 6.75291 19.9563C6.72647 19.9598 6.63684 19.9653 6.5329 19.9716C4.98659 20.0661 3.19964 20.2766 3.1064 21.0732C3.07807 21.316 3.15023 21.5364 3.3209 21.7282C3.7385 22.1974 4.9389 22.8213 10.5189 22.8213C10.5191 22.8213 10.5192 22.8213 10.5192 22.8213Z" fill="#E11F21"/>
<path d="M20.5788 21.4024C20.5014 21.3666 20.4099 21.3847 20.3521 21.447C20.344 21.4556 19.5205 22.3168 17.0444 22.8225C16.0964 23.0124 14.3171 23.1087 11.7557 23.1087C9.18947 23.1087 6.74768 23.0078 6.72329 23.0067C6.62131 23.0018 6.53404 23.0759 6.52019 23.1763C6.50627 23.2767 6.57095 23.3712 6.66947 23.3947C6.69488 23.4007 9.25392 24.0003 12.7529 24.0003C14.4311 24.0003 16.0641 23.8639 17.6067 23.5949C20.483 23.0907 20.6844 21.6645 20.6915 21.604C20.7015 21.5195 20.6561 21.4382 20.5788 21.4024Z" fill="#E11F21"/>
</svg>
