<svg width="24" height="24" viewBox="0 0 24 24" fill="none" xmlns="http://www.w3.org/2000/svg">
<path d="M0 0.000244141H24V24.0002H0V0.000244141ZM22.034 18.2762C21.859 17.1812 21.146 16.2612 19.031 15.4032C18.295 15.0582 17.477 14.8182 17.234 14.2632C17.143 13.9332 17.129 13.7532 17.188 13.5582C17.338 12.9122 18.103 12.7182 18.703 12.8982C19.093 13.0182 19.453 13.3182 19.679 13.7982C20.713 13.1222 20.713 13.1222 21.434 12.6732C21.164 12.2532 21.03 12.0722 20.848 11.8932C20.218 11.1882 19.379 10.8282 18.014 10.8592L17.309 10.9482C16.633 11.1132 15.989 11.4732 15.599 11.9532C14.459 13.2442 14.788 15.4942 16.168 16.4242C17.533 17.4442 19.529 17.6682 19.784 18.6292C20.024 19.7992 18.914 20.1742 17.818 20.0392C17.007 19.8592 16.558 19.4532 16.063 18.7032L14.233 19.7542C14.443 20.2342 14.683 20.4432 15.043 20.8632C16.783 22.6192 21.133 22.5292 21.914 19.8592C21.943 19.7692 22.154 19.1542 21.988 18.2092L22.034 18.2762ZM13.051 11.0312H10.803C10.803 12.9692 10.794 14.8952 10.794 16.8362C10.794 18.0682 10.857 19.1992 10.656 19.5472C10.326 20.2362 9.476 20.1482 9.09 20.0272C8.694 19.8312 8.493 19.5612 8.26 19.1722C8.197 19.0672 8.15 18.9762 8.133 18.9762L6.308 20.1012C6.613 20.7312 7.058 21.2732 7.632 21.6182C8.487 22.1282 9.636 22.2932 10.839 22.0232C11.622 21.7972 12.297 21.3322 12.65 20.6122C13.16 19.6822 13.052 18.5422 13.047 17.2662C13.059 15.2122 13.047 13.1572 13.047 11.0872L13.051 11.0312Z" fill="#F7DF1E"/>
</svg>
