<svg width="22" height="24" viewBox="0 0 22 24" fill="none" xmlns="http://www.w3.org/2000/svg">
<path d="M21.2508 11.82C21.2496 11.1316 21.0205 10.463 20.5994 9.91853C20.1783 9.37402 19.5887 8.98424 18.9228 8.81L21.9108 0H7.10379L10.0998 8.838C9.45301 9.02653 8.88475 9.4196 8.48019 9.9583C8.07562 10.497 7.85654 11.1523 7.85579 11.826C7.85579 12.869 8.37579 13.793 9.16879 14.362C8.84978 14.8117 8.48664 15.2285 8.08479 15.606C7.34558 16.31 6.48054 16.8687 5.53479 17.253C4.70079 16.69 4.33979 15.697 4.66579 14.807C5.37525 14.5866 5.98239 14.1196 6.37735 13.4904C6.7723 12.8611 6.92897 12.1113 6.819 11.3766C6.70904 10.6419 6.3397 9.97082 5.77783 9.48482C5.21596 8.99881 4.49868 8.72999 3.75579 8.727C2.9305 8.72806 2.13931 9.05637 1.55574 9.63994C0.972164 10.2235 0.643849 11.0147 0.64279 11.84C0.64279 12.688 0.98979 13.466 1.54579 14.022C1.49779 14.119 1.44879 14.217 1.39979 14.321C0.93479 15.28 0.40679 16.364 0.20479 17.58C-0.198209 20.012 0.46179 21.964 2.05379 23.069C2.91542 23.6767 3.94442 24.002 4.99879 24C6.82579 24 8.68079 23.083 10.4738 22.193C11.7528 21.561 13.0728 20.901 14.3718 20.581C14.8518 20.463 15.3518 20.394 15.8798 20.317C16.9498 20.164 18.0548 20.005 19.0478 19.427C19.6149 19.102 20.104 18.657 20.4809 18.123C20.8579 17.5891 21.1134 16.9791 21.2298 16.336C21.4038 15.342 21.2298 14.342 20.7858 13.466C21.0838 12.986 21.2508 12.425 21.2508 11.82ZM19.8958 11.82C19.8958 12.785 19.1108 13.57 18.1458 13.57C17.7824 13.569 17.4283 13.4551 17.1325 13.244C16.8367 13.0329 16.6138 12.7351 16.4946 12.3918C16.3754 12.0485 16.3659 11.6766 16.4674 11.3277C16.5688 10.9787 16.7762 10.6699 17.0608 10.444L17.0678 10.437C17.1238 10.395 17.1858 10.353 17.2478 10.312C17.2478 10.312 17.2558 10.312 17.2558 10.305C17.2838 10.291 17.3108 10.27 17.3388 10.255C17.3458 10.255 17.3528 10.249 17.3598 10.249C17.3878 10.235 17.4228 10.221 17.4568 10.207C17.4918 10.193 17.5268 10.18 17.5548 10.166C17.5618 10.166 17.5678 10.159 17.5748 10.159C17.6028 10.152 17.6308 10.138 17.6588 10.131C17.6658 10.131 17.6788 10.124 17.6868 10.124C17.7208 10.117 17.7488 10.11 17.7838 10.104H17.7908L17.8948 10.082C17.9018 10.082 17.9148 10.082 17.9228 10.075C17.9508 10.075 17.9778 10.068 18.0058 10.068H18.0408C18.0758 10.068 18.1108 10.061 18.1518 10.061H18.2418C18.2698 10.061 18.2918 10.061 18.3188 10.068H18.3328C18.3878 10.075 18.4438 10.082 18.4998 10.096C18.8943 10.1805 19.248 10.3976 19.5019 10.7111C19.7559 11.0245 19.8949 11.4165 19.8958 11.82ZM9.04279 1.39H19.9728L17.4638 8.79C17.3598 8.81 17.2558 8.845 17.1518 8.88L14.5118 3.495L11.8638 8.845C11.7598 8.811 11.6478 8.79 11.5368 8.769L9.04279 1.39ZM14.0108 11.215C13.883 10.5736 13.5545 9.98943 13.0728 9.547L14.5108 6.643L15.9628 9.61C15.5328 10.04 15.2198 10.59 15.0948 11.215H14.0108ZM10.5298 10.117C10.5638 10.11 10.5918 10.103 10.6268 10.097H10.6468C10.6758 10.089 10.7028 10.089 10.7308 10.082H10.7588C10.7868 10.082 10.8078 10.075 10.8348 10.075H11.1058C11.1338 10.075 11.1548 10.082 11.1758 10.082C11.1898 10.082 11.1958 10.082 11.2108 10.089C11.2378 10.096 11.2588 10.096 11.2868 10.103C11.2938 10.103 11.3008 10.103 11.3148 10.11L11.4118 10.13H11.4188C11.4468 10.138 11.4748 10.145 11.5018 10.159C11.5088 10.159 11.5158 10.166 11.5298 10.166C11.5508 10.173 11.5788 10.18 11.5998 10.193C11.6068 10.193 11.6138 10.2 11.6198 10.2C11.6478 10.214 11.6758 10.221 11.7038 10.235H11.7108C11.7429 10.2471 11.7732 10.2636 11.8008 10.284H11.8078C11.8358 10.298 11.8638 10.318 11.8918 10.332C11.8988 10.332 11.8988 10.339 11.9048 10.339C11.9328 10.353 11.9548 10.374 11.9818 10.388L11.9888 10.395C12.0718 10.457 12.1488 10.527 12.2248 10.596L12.2318 10.603C12.5414 10.9292 12.7134 11.3622 12.7118 11.812C12.6964 12.2661 12.5052 12.6966 12.1785 13.0124C11.8518 13.3283 11.4152 13.5048 10.9608 13.5048C10.5064 13.5048 10.0697 13.3283 9.74304 13.0124C9.41634 12.6966 9.22514 12.2661 9.20979 11.812C9.20869 11.4226 9.33812 11.044 9.57738 10.7368C9.81665 10.4295 10.152 10.2113 10.5298 10.117ZM3.69179 10.068C4.65779 10.068 5.44279 10.854 5.44279 11.819C5.44279 12.784 4.65779 13.57 3.69279 13.57C2.72779 13.57 1.94079 12.785 1.94079 11.82C1.94079 10.855 2.72679 10.068 3.69179 10.068ZM19.8548 16.093C19.7757 16.5375 19.5996 16.9592 19.339 17.3279C19.0783 17.6966 18.7395 18.0032 18.3468 18.226C17.5888 18.664 16.6578 18.803 15.6778 18.942C15.1268 19.0126 14.5795 19.1097 14.0378 19.233C12.5928 19.588 11.2038 20.283 9.85579 20.95C8.13179 21.804 6.50579 22.61 4.99879 22.61C4.22601 22.6148 3.4717 22.3739 2.84479 21.922C1.31579 20.866 1.39179 18.886 1.57279 17.802C1.73979 16.787 2.20479 15.836 2.64979 14.925C2.67779 14.87 2.69879 14.821 2.72679 14.765C2.87879 14.821 3.03879 14.863 3.20579 14.891C2.94179 16.364 3.69179 17.885 5.15179 18.636L5.41579 18.775L5.69979 18.671C6.91579 18.24 8.04179 17.538 9.03579 16.6C9.58469 16.0882 10.0699 15.512 10.4808 14.884C10.6408 14.911 10.8008 14.918 10.9608 14.918C11.6487 14.9164 12.3167 14.6873 12.8608 14.2664C13.4049 13.8455 13.7944 13.2564 13.9688 12.591H15.1358C15.309 13.2574 15.6985 13.8475 16.2433 14.2687C16.788 14.6898 17.4572 14.9182 18.1458 14.918C18.7218 14.918 19.2558 14.758 19.7158 14.488C19.8958 15.008 19.9518 15.551 19.8548 16.093Z" fill="#C21325"/>
</svg>
