<svg width="24" height="24" viewBox="0 0 24 24" fill="none" xmlns="http://www.w3.org/2000/svg">
<path d="M10.2035 14.3499L10.2105 14.3599L9.21153 16.7729C8.25289 16.1592 7.52352 15.2464 7.13653 14.1759L9.71453 13.7389L9.71853 13.7439C9.7968 13.7295 9.87751 13.7367 9.95206 13.7645C10.0266 13.7924 10.0922 13.8399 10.1419 13.9021C10.1915 13.9643 10.2234 14.0388 10.2341 14.1176C10.2448 14.1965 10.2339 14.2768 10.2025 14.3499H10.2035ZM9.37053 12.2209C9.44729 12.1999 9.5169 12.1585 9.57197 12.101C9.62704 12.0436 9.6655 11.9723 9.68326 11.8947C9.70101 11.8171 9.69739 11.7362 9.67278 11.6605C9.64818 11.5848 9.60351 11.5172 9.54353 11.4649L9.54553 11.4539L7.58453 9.69993C6.98631 10.6737 6.72945 11.819 6.85453 12.9549L9.36853 12.2299L9.37053 12.2209ZM10.5155 10.2409C10.5799 10.2879 10.6558 10.3165 10.7351 10.3237C10.8144 10.3309 10.8942 10.3165 10.966 10.2819C11.0378 10.2473 11.0988 10.1938 11.1425 10.1273C11.1863 10.0607 11.2112 9.98352 11.2145 9.90393L11.2245 9.89893L11.3745 7.27893C10.2388 7.41169 9.17971 7.91908 8.36453 8.72093L10.5115 10.2439L10.5155 10.2409ZM11.2755 12.9909L11.9985 13.3399L12.7205 12.9929L12.9005 12.2129L12.4005 11.5899H11.5965L11.0965 12.2129L11.2755 12.9909ZM12.7755 9.89593C12.7789 9.9756 12.8039 10.0529 12.8478 10.1194C12.8917 10.186 12.9528 10.2394 13.0247 10.2739C13.0966 10.3084 13.1765 10.3228 13.2559 10.3154C13.3353 10.308 13.4112 10.2791 13.4755 10.2319L13.4835 10.2349L15.6175 8.72193C14.8052 7.92638 13.7539 7.41974 12.6255 7.27993L12.7735 9.89493L12.7755 9.89593ZM23.6515 15.8659L17.8785 23.0469C17.7281 23.2329 17.538 23.3828 17.322 23.4856C17.106 23.5884 16.8697 23.6415 16.6305 23.6409L7.36953 23.6439C7.13034 23.6441 6.89416 23.5907 6.67836 23.4875C6.46255 23.3844 6.27262 23.2342 6.12253 23.0479L0.34653 15.8679C0.197913 15.682 0.0931299 15.465 0.0399778 15.233C-0.0131743 15.001 -0.0133274 14.76 0.0395297 14.5279L2.09953 5.57293C2.20753 5.10293 2.52453 4.70893 2.96253 4.49993L11.3045 0.51293C11.5208 0.409592 11.7574 0.355957 11.997 0.355957C12.2367 0.355957 12.4733 0.409592 12.6895 0.51293L21.0345 4.49793C21.4725 4.70693 21.7895 5.10193 21.8975 5.57093L23.9595 14.5259C24.0675 14.9959 23.9545 15.4889 23.6515 15.8659ZM20.3625 13.8089C20.3205 13.7989 20.2595 13.7829 20.2175 13.7749C20.0435 13.7419 19.9025 13.7499 19.7385 13.7369C19.3885 13.6999 19.1005 13.6699 18.8435 13.5889C18.7385 13.5489 18.6635 13.4239 18.6275 13.3729L18.4265 13.3139C18.5337 12.5367 18.4981 11.7464 18.3215 10.9819C18.1447 10.2097 17.8274 9.47649 17.3855 8.81893C17.4375 8.77193 17.5355 8.68593 17.5625 8.65993C17.5705 8.56993 17.5635 8.47693 17.6565 8.37793C17.8535 8.19293 18.1005 8.03993 18.3995 7.85593C18.5415 7.77193 18.6725 7.71893 18.8145 7.61393C18.8465 7.58993 18.8905 7.55193 18.9245 7.52493C19.1645 7.33393 19.2195 7.00493 19.0475 6.78893C18.8755 6.57293 18.5415 6.55293 18.3025 6.74393C18.2685 6.77093 18.2225 6.80593 18.1915 6.83193C18.0575 6.94793 17.9745 7.06193 17.8615 7.18193C17.6155 7.43193 17.4115 7.63993 17.1885 7.79093C17.0915 7.84693 16.9495 7.82793 16.8855 7.82393L16.6955 7.95893C15.6018 6.81113 14.1285 6.09938 12.5495 5.95593L12.5375 5.73293C12.4725 5.67093 12.3945 5.61793 12.3745 5.48293C12.3525 5.21493 12.3895 4.92593 12.4315 4.57793C12.4545 4.41493 12.4925 4.27993 12.4995 4.10293C12.5005 4.06293 12.4985 4.00393 12.4985 3.96093C12.4985 3.65493 12.2745 3.40593 11.9985 3.40593C11.7235 3.40593 11.4995 3.65493 11.4995 3.96093L11.5005 3.97493C11.5005 4.01593 11.4985 4.06693 11.5005 4.10293C11.5065 4.27993 11.5445 4.41493 11.5675 4.57793C11.6095 4.92593 11.6455 5.21493 11.6235 5.48393C11.5952 5.58358 11.539 5.67308 11.4615 5.74193L11.4495 5.95293C9.86043 6.08054 8.37555 6.79446 7.28353 7.95593C7.22297 7.91406 7.16296 7.87139 7.10353 7.82793C7.01353 7.83993 6.92353 7.86793 6.80653 7.79893C6.58353 7.64893 6.37953 7.44093 6.13353 7.19093C6.02053 7.07093 5.93853 6.95693 5.80453 6.84193C5.77453 6.81593 5.72753 6.77993 5.69353 6.75393C5.59467 6.67379 5.47268 6.62751 5.34553 6.62193C5.27003 6.61792 5.19464 6.63177 5.12549 6.66235C5.05634 6.69293 4.99537 6.73938 4.94753 6.79793C4.77553 7.01393 4.83053 7.34393 5.07053 7.53493L5.07753 7.53993L5.18153 7.62293C5.32353 7.72793 5.45353 7.78193 5.59553 7.86493C5.89453 8.04993 6.14153 8.20293 6.33853 8.38693C6.41453 8.46893 6.42853 8.61293 6.43853 8.67493L6.59853 8.81793C5.71487 10.1429 5.35164 11.7476 5.57853 13.3239L5.37053 13.3839C5.31553 13.4559 5.23753 13.5679 5.15553 13.6009C4.89853 13.6819 4.60953 13.7109 4.26053 13.7479C4.09653 13.7619 3.95553 13.7539 3.78053 13.7869C3.74353 13.7939 3.69053 13.8069 3.64753 13.8169L3.64353 13.8189L3.63653 13.8209C3.34153 13.8919 3.15253 14.1629 3.21353 14.4289C3.27453 14.6959 3.56253 14.8579 3.85853 14.7939L3.86553 14.7929L3.87553 14.7899L4.00453 14.7609C4.17453 14.7149 4.29853 14.6479 4.45253 14.5889C4.78253 14.4709 5.05653 14.3719 5.32253 14.3329C5.43453 14.3239 5.55253 14.4019 5.61053 14.4339L5.82753 14.3969C6.31628 15.907 7.34068 17.1861 8.70753 17.9929L8.61753 18.2109C8.65053 18.2949 8.68653 18.4099 8.66153 18.4929C8.56453 18.7449 8.39853 19.0099 8.20953 19.3059C8.11853 19.4419 8.02453 19.5479 7.94153 19.7049C7.92153 19.7419 7.89653 19.7999 7.87753 19.8389C7.74953 20.1139 7.84353 20.4299 8.09053 20.5489C8.33853 20.6689 8.64653 20.5419 8.78053 20.2669V20.2649C8.80053 20.2259 8.82653 20.1749 8.84253 20.1379C8.91253 19.9759 8.93653 19.8369 8.98653 19.6799C9.11853 19.3479 9.19153 18.9999 9.37353 18.7829C9.42353 18.7229 9.50353 18.7009 9.58853 18.6779L9.70153 18.4729C11.184 19.0442 12.8251 19.0484 14.3105 18.4849L14.4165 18.6769C14.5025 18.7049 14.5965 18.7189 14.6725 18.8319C14.8085 19.0639 14.9015 19.3389 15.0145 19.6719C15.0645 19.8279 15.0885 19.9669 15.1595 20.1289C15.1755 20.1659 15.2025 20.2189 15.2215 20.2579C15.3545 20.5339 15.6635 20.6599 15.9115 20.5399C16.1585 20.4219 16.2525 20.1049 16.1245 19.8299C16.1045 19.7909 16.0795 19.7339 16.0595 19.6959C15.9765 19.5399 15.8825 19.4349 15.7915 19.2979C15.6015 19.0019 15.4455 18.7569 15.3485 18.5049C15.3085 18.3749 15.3555 18.2949 15.3865 18.2109C15.3685 18.1889 15.3275 18.0669 15.3035 18.0089C16.6754 17.1958 17.7004 15.9067 18.1835 14.3869C18.2475 14.3969 18.3595 14.4169 18.3965 14.4249C18.4715 14.3749 18.5405 14.3109 18.6765 14.3209C18.9425 14.3599 19.2165 14.4589 19.5465 14.5769C19.7005 14.6369 19.8235 14.7049 19.9945 14.7499C20.0305 14.7599 20.0825 14.7689 20.1245 14.7779L20.1335 14.7809L20.1405 14.7819C20.4375 14.8459 20.7245 14.6839 20.7855 14.4169C20.8455 14.1509 20.6575 13.8799 20.3625 13.8089ZM16.3995 9.70093L14.4495 11.4469V11.4519C14.3893 11.5042 14.3444 11.5718 14.3196 11.6477C14.2948 11.7235 14.2911 11.8046 14.3089 11.8823C14.3267 11.9601 14.3652 12.0315 14.4205 12.0891C14.4757 12.1466 14.5456 12.188 14.6225 12.2089L14.6255 12.2189L17.1515 12.9469C17.2064 12.3868 17.1699 11.8214 17.0435 11.2729C16.9165 10.7169 16.6989 10.1855 16.3995 9.69993V9.70093ZM12.3865 15.0259C12.3479 14.9531 12.2895 14.8927 12.218 14.8516C12.1465 14.8106 12.0649 14.7906 11.9825 14.7939C11.9056 14.7968 11.8307 14.8198 11.7654 14.8607C11.7001 14.9016 11.6467 14.9589 11.6105 15.0269H11.6085L10.3405 17.3189C11.4185 17.6867 12.5879 17.6878 13.6665 17.3219L12.3965 15.0259H12.3865ZM14.2745 13.7329C14.183 13.7161 14.0885 13.7287 14.0045 13.7689C13.9018 13.818 13.822 13.9051 13.7821 14.0118C13.7422 14.1184 13.7452 14.2364 13.7905 14.3409L13.7875 14.3449L14.7975 16.7829C15.7626 16.1668 16.4948 15.2467 16.8785 14.1679L14.2785 13.7279L14.2745 13.7329Z" fill="#326CE5"/>
</svg>
