<svg width="12" height="24" viewBox="0 0 12 24" fill="none" xmlns="http://www.w3.org/2000/svg">
<path d="M11.1928 9.555C9.92882 3.975 6.94082 2.141 6.61982 1.44C6.33982 1.046 6.08982 0.486 5.88482 0C5.84882 0.495 5.82982 0.685 5.36182 1.184C4.63882 1.75 0.923818 4.866 0.621818 11.204C0.339818 17.116 4.89182 20.639 5.50982 21.088L5.57982 21.138C5.70851 22.0898 5.81853 23.0439 5.90982 24H6.39082C6.50482 22.968 6.67482 21.944 6.90082 20.93C7.31782 20.634 7.50482 20.467 7.75082 20.237C8.91578 19.1593 9.8416 17.8491 10.4684 16.3911C11.0953 14.9332 11.4092 13.3599 11.3898 11.773C11.3998 10.959 11.2868 10.111 11.1928 9.555ZM5.85682 17.75C5.85682 17.75 5.85682 9.459 6.13182 9.46C6.34482 9.46 6.62182 20.155 6.62182 20.155C6.24082 20.11 5.85682 18.395 5.85682 17.75Z" fill="#47A248"/>
</svg>
