<svg width="24" height="18" viewBox="0 0 24 18" fill="none" xmlns="http://www.w3.org/2000/svg">
<path d="M16.405 2.50149C16.29 2.50149 16.212 2.51549 16.131 2.53449V2.54749H16.145C16.199 2.65149 16.291 2.72749 16.359 2.82049C16.413 2.92749 16.459 3.03449 16.513 3.14049L16.527 3.12549C16.621 3.05949 16.667 2.95349 16.667 2.79249C16.627 2.74549 16.621 2.69849 16.587 2.65249C16.547 2.58549 16.461 2.55249 16.407 2.49949L16.405 2.50149ZM5.77 15.6955H4.843C4.81693 14.2223 4.72685 12.7509 4.573 11.2855H4.565L3.155 15.6955H2.45L1.05 11.2855H1.04C0.930493 12.7532 0.865464 14.2239 0.845 15.6955H0C0.055 13.7295 0.192 11.8855 0.41 10.1655H1.56L2.895 14.2295H2.903L4.25 10.1655H5.345C5.587 12.1805 5.729 14.0255 5.773 15.6955H5.77ZM9.787 11.6155C9.409 13.6605 8.911 15.1485 8.295 16.0755C7.813 16.7915 7.285 17.1485 6.712 17.1485C6.559 17.1485 6.372 17.1025 6.146 17.0105V16.5165C6.256 16.5335 6.386 16.5425 6.532 16.5425C6.8 16.5425 7.015 16.4675 7.179 16.3205C7.376 16.1405 7.474 15.9385 7.474 15.7155C7.474 15.5605 7.397 15.2455 7.244 14.7715L6.23 11.6155H7.14L7.867 13.9755C8.031 14.5115 8.1 14.8855 8.072 15.0985C8.472 14.0345 8.75 12.8715 8.907 11.6155H9.787ZM22.112 15.6955H19.482V10.1655H20.367V15.0155H22.112V15.6955ZM18.792 15.8305L17.776 15.3305C17.866 15.2545 17.953 15.1725 18.031 15.0805C18.464 14.5745 18.679 13.8225 18.679 12.8275C18.679 10.9975 17.961 10.0815 16.524 10.0815C15.82 10.0815 15.27 10.3135 14.874 10.7785C14.444 11.2865 14.228 12.0345 14.228 13.0235C14.228 13.9955 14.418 14.7095 14.802 15.1635C15.152 15.5735 15.679 15.7785 16.385 15.7785C16.649 15.7785 16.891 15.7455 17.11 15.6805L18.435 16.4525L18.795 15.8305H18.792ZM15.5 14.5885C15.275 14.2285 15.163 13.6485 15.163 12.8525C15.163 11.4595 15.587 10.7625 16.433 10.7625C16.876 10.7625 17.203 10.9295 17.41 11.2625C17.634 11.6245 17.746 12.1985 17.746 12.9855C17.746 14.3895 17.322 15.0935 16.476 15.0935C16.031 15.0935 15.706 14.9265 15.498 14.5935L15.5 14.5885ZM13.842 14.1635C13.842 14.6335 13.67 15.0195 13.326 15.3195C12.982 15.6195 12.523 15.7695 11.942 15.7695C11.399 15.7695 10.878 15.5975 10.369 15.2545L10.606 14.7785C11.044 14.9985 11.439 15.1065 11.796 15.1065C12.128 15.1065 12.389 15.0335 12.579 14.8865C12.674 14.8149 12.7506 14.7219 12.8028 14.615C12.8549 14.5081 12.881 14.3904 12.879 14.2715C12.879 13.9415 12.649 13.6615 12.231 13.4265C11.843 13.2135 11.068 12.7695 11.068 12.7695C10.646 12.4625 10.436 12.1335 10.436 11.5925C10.436 11.1425 10.593 10.7825 10.906 10.5075C11.221 10.2295 11.626 10.0925 12.126 10.0925C12.638 10.0925 13.106 10.2285 13.526 10.5025L13.313 10.9785C12.9774 10.8311 12.6155 10.7528 12.249 10.7485C11.966 10.7485 11.747 10.8165 11.595 10.9545C11.5179 11.0184 11.4557 11.0984 11.4128 11.189C11.37 11.2795 11.3475 11.3783 11.347 11.4785C11.347 11.8065 11.581 12.0885 12.013 12.3285C12.406 12.5435 13.2 12.9985 13.2 12.9985C13.633 13.3035 13.848 13.6285 13.848 14.1665L13.842 14.1635ZM23.224 8.31149C22.689 8.29749 22.274 8.35149 21.927 8.49949C21.827 8.53949 21.667 8.53949 21.653 8.66649C21.708 8.71949 21.716 8.80649 21.763 8.88049C21.843 9.01449 21.981 9.19349 22.109 9.28749C22.249 9.39749 22.389 9.50349 22.536 9.59749C22.796 9.75749 23.091 9.85249 23.346 10.0135C23.491 10.1075 23.639 10.2265 23.786 10.3265C23.859 10.3765 23.906 10.4665 24 10.4985V10.4785C23.954 10.4185 23.94 10.3315 23.895 10.2645C23.828 10.1975 23.761 10.1375 23.695 10.0715C23.4987 9.81276 23.2644 9.58519 23 9.39649C22.786 9.25049 22.318 9.04649 22.23 8.80149L22.217 8.78749C22.363 8.77449 22.537 8.72149 22.677 8.68149C22.904 8.62149 23.112 8.63449 23.347 8.57549C23.453 8.54849 23.56 8.51549 23.667 8.48149V8.42149C23.547 8.30149 23.457 8.13849 23.333 8.02649C22.9869 7.72396 22.6178 7.4488 22.229 7.20349C22.019 7.06949 21.753 6.98349 21.532 6.86949C21.452 6.82949 21.318 6.80949 21.272 6.74249C21.152 6.59649 21.082 6.40249 20.997 6.22849C20.8006 5.84758 20.6182 5.45966 20.45 5.06549C20.33 4.80349 20.257 4.54249 20.11 4.30249C19.42 3.16549 18.673 2.47649 17.524 1.80249C17.277 1.66249 16.981 1.60249 16.668 1.52849C16.501 1.52049 16.334 1.50849 16.168 1.50149C16.058 1.45449 15.952 1.32749 15.858 1.26649C15.478 1.02649 14.494 0.506494 14.214 1.19449C14.034 1.62849 14.481 2.05649 14.636 2.27649C14.751 2.42949 14.896 2.60449 14.976 2.77649C15.023 2.89249 15.036 3.01149 15.083 3.13249C15.189 3.42649 15.29 3.75449 15.43 4.02949C15.503 4.16949 15.583 4.31649 15.677 4.44249C15.731 4.51549 15.823 4.54949 15.844 4.66949C15.75 4.80549 15.744 5.00349 15.69 5.16949C15.45 5.92649 15.544 6.86249 15.884 7.41949C15.991 7.58549 16.246 7.95349 16.587 7.81249C16.887 7.69249 16.821 7.31249 16.907 6.97749C16.927 6.89749 16.914 6.84449 16.955 6.79049V6.80549C17.049 6.99349 17.143 7.17249 17.229 7.36049C17.435 7.68849 17.795 8.02849 18.096 8.25549C18.256 8.37549 18.383 8.58349 18.583 8.65749V8.63749H18.568C18.525 8.57949 18.468 8.55149 18.414 8.50449C18.2872 8.38037 18.1702 8.24664 18.064 8.10449C17.7822 7.71951 17.5324 7.31216 17.317 6.88649C17.207 6.67649 17.115 6.45049 17.027 6.24349C16.987 6.16349 16.987 6.04349 16.92 6.00349C16.82 6.14949 16.673 6.27649 16.6 6.45649C16.473 6.74449 16.46 7.09849 16.412 7.46649C16.385 7.47349 16.398 7.46649 16.385 7.48049C16.171 7.42849 16.098 7.20649 16.018 7.02049C15.818 6.5455 15.785 5.78249 15.958 5.23549C16.005 5.09549 16.205 4.65349 16.125 4.51949C16.083 4.39249 15.951 4.31949 15.878 4.21649C15.7841 4.08244 15.7037 3.9394 15.638 3.78949C15.478 3.41549 15.398 3.00149 15.224 2.62749C15.144 2.45449 15.004 2.27349 14.89 2.11449C14.763 1.93449 14.623 1.80749 14.522 1.59449C14.489 1.52149 14.442 1.40049 14.495 1.32049C14.509 1.26649 14.537 1.24549 14.589 1.23049C14.677 1.15849 14.924 1.25249 15.011 1.29249C15.258 1.39249 15.466 1.48649 15.673 1.62649C15.767 1.69249 15.868 1.81949 15.988 1.85249H16.128C16.342 1.89949 16.583 1.86649 16.783 1.92549C17.138 2.03949 17.458 2.20549 17.745 2.38549C18.6293 2.95041 19.3486 3.73905 19.83 4.67149C19.91 4.82549 19.945 4.9665 20.018 5.12649C20.158 5.45649 20.331 5.78949 20.473 6.10849C20.613 6.42349 20.748 6.74449 20.949 7.00549C21.049 7.14549 21.451 7.21849 21.631 7.29149C21.764 7.35149 21.971 7.40649 22.091 7.47949C22.321 7.61949 22.545 7.77949 22.761 7.93349C22.871 8.00949 23.204 8.17649 23.224 8.31149Z" fill="#4479A1"/>
</svg>
