<svg width="22" height="24" viewBox="0 0 22 24" fill="none" xmlns="http://www.w3.org/2000/svg">
<path d="M10.9985 24.0002C10.6775 24.0002 10.3575 23.9162 10.0765 23.7532L7.14046 22.0162C6.70246 21.7712 6.91646 21.6842 7.06046 21.6332C7.64546 21.4302 7.76346 21.3832 8.38846 21.0292C8.45346 20.9922 8.53946 21.0062 8.60646 21.0462L10.8625 22.3852C10.9445 22.4302 11.0595 22.4302 11.1345 22.3852L19.9295 17.3092C20.0115 17.2622 20.0635 17.1682 20.0635 17.0712V6.92125C20.0635 6.82225 20.0105 6.72925 19.9265 6.67925L11.1355 1.60725C11.0545 1.56025 10.9465 1.56025 10.8645 1.60725L2.07546 6.68025C1.99046 6.72925 1.93646 6.82525 1.93646 6.92125V17.0712C1.93646 17.1682 1.99046 17.2602 2.07546 17.3062L4.48446 18.6982C5.79146 19.3522 6.59246 18.5822 6.59246 17.8082V7.78725C6.59246 7.64525 6.70646 7.53425 6.84846 7.53425H7.96346C8.10246 7.53425 8.21846 7.64625 8.21846 7.78725V17.8082C8.21846 19.5532 7.26846 20.5532 5.61446 20.5532C5.10646 20.5532 4.70546 20.5532 3.58846 20.0022L1.28046 18.6752C0.710459 18.3462 0.358459 17.7302 0.358459 17.0712V6.92125C0.358459 6.26225 0.711459 5.64625 1.28046 5.31825L10.0755 0.23625C10.6325 -0.07875 11.3715 -0.07875 11.9235 0.23625L20.7175 5.31825C21.2875 5.64725 21.6415 6.26225 21.6415 6.92125V17.0712C21.6415 17.7302 21.2875 18.3442 20.7175 18.6752L11.9235 23.7532C11.6435 23.9162 11.3245 24.0002 10.9985 24.0002ZM18.0995 13.9932C18.0995 12.0932 16.8155 11.5872 14.1125 11.2302C11.3815 10.8692 11.1035 10.6822 11.1035 10.0432C11.1035 9.51525 11.3385 8.81025 13.3615 8.81025C15.1685 8.81025 15.8345 9.19925 16.1085 10.4172C16.1325 10.5322 16.2375 10.6162 16.3555 10.6162H17.4965C17.5675 10.6162 17.6345 10.5852 17.6825 10.5352C17.7305 10.4812 17.7565 10.4122 17.7495 10.3392C17.5725 8.24125 16.1785 7.26325 13.3615 7.26325C10.8535 7.26325 9.35746 8.32125 9.35746 10.0962C9.35746 12.0212 10.8455 12.5532 13.2525 12.7912C16.1325 13.0732 16.3555 13.4942 16.3555 14.0602C16.3555 15.0432 15.5665 15.4622 13.7135 15.4622C11.3865 15.4622 10.8745 14.8782 10.7025 13.7202C10.6825 13.5962 10.5765 13.5052 10.4495 13.5052H9.31246C9.17146 13.5052 9.05846 13.6172 9.05846 13.7582C9.05846 15.2402 9.86446 17.0062 13.7135 17.0062C16.5015 17.0072 18.0995 15.9102 18.0995 13.9932Z" fill="#5FA04E"/>
</svg>
