<svg width="24" height="14" viewBox="0 0 24 14" fill="none" xmlns="http://www.w3.org/2000/svg">
<path d="M7.01 5.2065H6.066L5.551 7.8545H6.389C6.945 7.8545 7.359 7.7495 7.631 7.5405C7.903 7.3305 8.086 6.9815 8.181 6.4915C8.273 6.0215 8.231 5.6895 8.057 5.4965C7.882 5.3035 7.534 5.2065 7.01 5.2065ZM12 0.6875C5.373 0.6875 0 3.5135 0 6.9995C0 10.4855 5.373 13.3125 12 13.3125C18.627 13.3125 24 10.4855 24 6.9995C24 3.5135 18.627 0.6875 12 0.6875ZM8.74 8.1385C8.479 8.3885 8.165 8.5765 7.823 8.6895C7.487 8.7975 7.058 8.8535 6.538 8.8535H5.357L5.03 10.5345H3.652L4.882 4.2085H7.532C8.329 4.2085 8.91 4.4175 9.276 4.8365C9.642 5.2545 9.752 5.8385 9.606 6.5885C9.55008 6.88527 9.44711 7.17121 9.301 7.4355C9.158 7.6905 8.971 7.9255 8.74 8.1385ZM12.764 8.8535L13.307 6.0545C13.37 5.7365 13.346 5.5185 13.239 5.4035C13.132 5.2875 12.903 5.2295 12.552 5.2295H11.46L10.756 8.8545H9.388L10.618 2.5275H11.985L11.658 4.2095H12.876C13.643 4.2095 14.171 4.3435 14.462 4.6105C14.753 4.8775 14.84 5.3105 14.725 5.9095L14.153 8.8535H12.764ZM20.361 6.5885C20.306 6.88552 20.203 7.1716 20.056 7.4355C19.913 7.6905 19.726 7.9255 19.495 8.1385C19.2339 8.38774 18.9207 8.57593 18.578 8.6895C18.242 8.7975 17.813 8.8535 17.292 8.8535H16.112L15.785 10.5355H14.407L15.637 4.2095H18.286C19.083 4.2095 19.664 4.4185 20.03 4.8375C20.396 5.2545 20.507 5.8385 20.361 6.5885ZM17.766 5.2065H16.823L16.307 7.8545H17.145C17.702 7.8545 18.116 7.7495 18.387 7.5405C18.659 7.3305 18.842 6.9815 18.938 6.4915C19.03 6.0215 18.987 5.6895 18.813 5.4965C18.639 5.3035 18.289 5.2065 17.766 5.2065Z" fill="#777BB4"/>
</svg>
