<svg width="24" height="24" viewBox="0 0 24 24" fill="none" xmlns="http://www.w3.org/2000/svg">
<path d="M14.2501 0.18L15.1501 0.38L15.8801 0.64L16.4701 0.94L16.9201 1.26L17.2601 1.6L17.5101 1.94L17.6701 2.27L17.7701 2.57L17.8101 2.83L17.8301 3.03L17.8201 3.16V8.5L17.7701 9.13L17.6401 9.68L17.4301 10.14L17.1701 10.52L16.8701 10.83L16.5401 11.08L16.1901 11.27L15.8401 11.41L15.5101 11.51L15.2101 11.58L14.9501 11.62L14.7401 11.64H8.77006L8.08006 11.69L7.49006 11.83L6.99006 12.05L6.58006 12.32L6.25006 12.64L5.98006 12.99L5.78006 13.35L5.63006 13.72L5.53006 14.07L5.46006 14.39L5.42006 14.66L5.40006 14.87V17.93H3.17006L2.96006 17.9L2.68006 17.83L2.36006 17.71L2.01006 17.53L1.65006 17.27L1.29006 16.91L0.940063 16.45L0.620063 15.86L0.340063 15.13L0.130063 14.25L-0.00993653 13.2L-0.0599365 11.97L6.34715e-05 10.75L0.160063 9.71L0.400063 8.84L0.720063 8.13L1.08006 7.56L1.48006 7.12L1.90006 6.79L2.32006 6.55L2.72006 6.39L3.08006 6.29L3.40006 6.24L3.64006 6.23H3.80006L3.86006 6.24H12.0201V5.41H6.18006L6.17006 2.66L6.15006 2.29L6.20006 1.95L6.31006 1.64L6.48006 1.36L6.73006 1.1L7.04006 0.87L7.42006 0.67L7.86006 0.49L8.37006 0.34L8.95006 0.22L9.59006 0.12L10.3001 0.06L11.0701 0.02L11.9101 0L13.1801 0.05L14.2501 0.18ZM7.95006 2.16L7.72006 2.49L7.64006 2.9L7.72006 3.31L7.95006 3.65L8.28006 3.87L8.69006 3.96L9.10006 3.87L9.43006 3.65L9.66006 3.31L9.74006 2.9L9.66006 2.49L9.43006 2.16L9.10006 1.94L8.69006 1.85L8.28006 1.94L7.95006 2.16ZM21.0401 6.11L21.3201 6.17L21.6401 6.29L21.9901 6.47L22.3501 6.74L22.7101 7.09L23.0601 7.56L23.3801 8.15L23.6601 8.88L23.8701 9.76L24.0101 10.8L24.0601 12.03L24.0001 13.26L23.8401 14.3L23.6001 15.16L23.2801 15.87L22.9201 16.44L22.5201 16.89L22.1001 17.22L21.6801 17.46L21.2801 17.62L20.9201 17.71L20.6001 17.76L20.3601 17.78L20.2001 17.77H11.9801V18.59H17.8201L17.8301 21.35L17.8501 21.71L17.8001 22.05L17.6901 22.36L17.5201 22.65L17.2701 22.9L16.9601 23.14L16.5801 23.34L16.1401 23.51L15.6301 23.66L15.0501 23.79L14.4101 23.88L13.7001 23.95L12.9301 23.99L12.0901 24L10.8201 23.96L9.75006 23.82L8.85006 23.62L8.12006 23.37L7.53006 23.07L7.08006 22.74L6.74006 22.4L6.49006 22.06L6.33006 21.73L6.23006 21.43L6.19006 21.18L6.17006 20.98L6.18006 20.85V15.51L6.23006 14.87L6.36006 14.33L6.57006 13.87L6.83006 13.49L7.13006 13.17L7.46006 12.93L7.81006 12.73L8.16006 12.59L8.49006 12.49L8.79006 12.43L9.05006 12.39L9.26006 12.37L9.39006 12.36H15.2301L15.9201 12.31L16.5101 12.17L17.0101 11.96L17.4201 11.68L17.7501 11.36L18.0201 11.01L18.2201 10.65L18.3701 10.29L18.4701 9.94L18.5401 9.62L18.5801 9.34L18.6001 9.13V6.07H20.6901L20.8301 6.08L21.0401 6.11ZM14.5701 20.36L14.3401 20.69L14.2601 21.1L14.3401 21.51L14.5701 21.84L14.9001 22.07L15.3101 22.15L15.7201 22.07L16.0501 21.84L16.2801 21.51L16.3601 21.1L16.2801 20.69L16.0501 20.36L15.7201 20.13L15.3101 20.05L14.9001 20.13L14.5701 20.36Z" fill="#3776AB"/>
</svg>
