<svg width="24" height="22" viewBox="0 0 24 22" fill="none" xmlns="http://www.w3.org/2000/svg">
<path d="M14.23 11.0027C14.23 11.5956 13.9946 12.1642 13.5754 12.5835C13.1563 13.0028 12.5879 13.2385 11.995 13.2387C11.402 13.2387 10.8332 13.0032 10.4139 12.5838C9.99458 12.1645 9.759 11.5958 9.759 11.0027C9.759 10.4099 9.99444 9.84131 10.4136 9.42201C10.8327 9.0027 11.4011 8.76701 11.994 8.76674C12.587 8.76674 13.1558 9.00232 13.5751 9.42165C13.9944 9.84098 14.23 10.4097 14.23 11.0027ZM16.878 0.312744C15.532 0.312744 13.771 1.27274 11.99 2.93474C10.21 1.28174 8.448 0.332744 7.103 0.332744C6.693 0.332744 6.32 0.425744 5.997 0.610744C4.622 1.40374 4.314 3.87474 5.024 6.97574C1.98 7.91574 0 9.41874 0 11.0027C0 12.5927 1.99 14.0997 5.043 15.0327C4.339 18.1457 4.653 20.6207 6.031 21.4127C6.351 21.5997 6.721 21.6877 7.133 21.6877C8.478 21.6877 10.24 20.7277 12.021 19.0637C13.801 20.7177 15.563 21.6667 16.908 21.6667C17.318 21.6667 17.691 21.5767 18.014 21.3917C19.388 20.5997 19.697 18.1287 18.987 15.0267C22.02 14.0947 24 12.5887 24 11.0027C24 9.41274 22.01 7.90574 18.957 6.97074C19.661 3.86074 19.347 1.38374 17.969 0.590744C17.651 0.406744 17.282 0.313744 16.878 0.312744ZM16.873 1.40274V1.40874C17.098 1.40874 17.279 1.45274 17.431 1.53574C18.097 1.91774 18.386 3.37074 18.161 5.23974C18.107 5.69974 18.019 6.18474 17.911 6.67974C16.951 6.44374 15.905 6.26274 14.804 6.14574C14.144 5.24074 13.459 4.41874 12.769 3.69874C14.361 2.21874 15.856 1.40674 16.874 1.40374L16.873 1.40274ZM7.103 1.42274C8.115 1.42274 9.617 2.23074 11.213 3.70274C10.527 4.42274 9.843 5.23974 9.193 6.14474C8.086 6.26174 7.039 6.44274 6.08 6.68274C5.968 6.19274 5.885 5.71874 5.826 5.26274C5.596 3.39474 5.88 1.94274 6.54 1.55574C6.73 1.46574 6.94 1.42774 7.103 1.42274ZM11.985 4.47274C12.44 4.94074 12.895 5.46474 13.345 6.03674C12.905 6.01674 12.455 6.00274 12 6.00274C11.54 6.00274 11.085 6.01274 10.64 6.03674C11.08 5.46474 11.535 4.94174 11.985 4.47274ZM12 7.09874C12.74 7.09874 13.477 7.13274 14.202 7.19174C14.608 7.77374 15.004 8.39474 15.385 9.05174C15.757 9.69174 16.095 10.3417 16.403 10.9977C16.095 11.6527 15.757 12.3077 15.39 12.9477C15.01 13.6077 14.617 14.2357 14.21 14.8177C13.482 14.8807 12.744 14.9157 12 14.9157C11.26 14.9157 10.523 14.8807 9.798 14.8227C9.392 14.2407 8.996 13.6187 8.615 12.9627C8.243 12.3227 7.905 11.6727 7.597 11.0167C7.9 10.3597 8.243 9.70374 8.61 9.06274C8.99 8.40274 9.383 7.77674 9.79 7.19474C10.518 7.13074 11.256 7.09674 12 7.09674V7.09874ZM8.365 7.35274C8.125 7.72974 7.885 8.11574 7.661 8.51274C7.436 8.90274 7.226 9.29474 7.026 9.68674C6.761 9.03074 6.536 8.37674 6.35 7.73974C6.99 7.58974 7.665 7.45574 8.365 7.35274ZM15.625 7.35274C16.32 7.45574 16.99 7.58274 17.631 7.73974C17.451 8.37174 17.226 9.02174 16.971 9.67274C16.771 9.28274 16.561 8.88974 16.331 8.49874C16.106 8.10674 15.866 7.72474 15.626 7.35274H15.625ZM18.688 8.02774C19.172 8.17774 19.632 8.34474 20.063 8.52574C21.795 9.26574 22.915 10.2337 22.915 11.0017C22.91 11.7697 21.79 12.7417 20.058 13.4767C19.638 13.6567 19.178 13.8187 18.703 13.9697C18.423 13.0117 18.057 12.0137 17.603 10.9897C18.053 9.97274 18.413 8.97974 18.688 8.02574V8.02774ZM5.293 8.03174C5.571 8.99174 5.938 9.98874 6.393 11.0117C5.943 12.0287 5.581 13.0217 5.307 13.9757C4.823 13.8257 4.363 13.6577 3.937 13.4757C2.205 12.7387 1.085 11.7697 1.085 11.0017C1.085 10.2337 2.205 9.25974 3.937 8.52574C4.357 8.34574 4.817 8.18374 5.293 8.03174ZM16.971 12.3117C17.236 12.9687 17.461 13.6237 17.647 14.2597C17.007 14.4167 16.331 14.5497 15.631 14.6497C15.871 14.2747 16.111 13.8877 16.336 13.4917C16.561 13.1017 16.77 12.7037 16.971 12.3117ZM7.026 12.3317C7.226 12.7237 7.436 13.1147 7.666 13.5067C7.896 13.8967 8.131 14.2787 8.371 14.6497C7.676 14.5477 7.006 14.4197 6.365 14.2637C6.545 13.6337 6.771 12.9817 7.025 12.3307L7.026 12.3317ZM17.92 15.3187C18.032 15.8117 18.12 16.2867 18.174 16.7417C18.404 18.6097 18.12 20.0617 17.46 20.4497C17.313 20.5397 17.122 20.5777 16.897 20.5777C15.885 20.5777 14.383 19.7707 12.787 18.2977C13.473 17.5777 14.157 16.7617 14.807 15.8577C15.914 15.7397 16.961 15.5587 17.92 15.3187ZM6.09 15.3287C7.05 15.5627 8.096 15.7437 9.197 15.8607C9.857 16.7657 10.542 17.5877 11.232 18.3067C9.637 19.7897 8.14 20.6017 7.122 20.6017C6.902 20.5967 6.716 20.5517 6.569 20.4697C5.903 20.0897 5.614 18.6357 5.839 16.7667C5.893 16.3067 5.982 15.8227 6.09 15.3287ZM10.65 15.9687C11.09 15.9887 11.54 16.0027 11.995 16.0027C12.455 16.0027 12.91 15.9927 13.355 15.9687C12.915 16.5407 12.46 17.0637 12.01 17.5337C11.555 17.0637 11.1 16.5407 10.65 15.9687Z" fill="#61DAFB"/>
</svg>
