<svg width="24" height="24" viewBox="0 0 24 24" fill="none" xmlns="http://www.w3.org/2000/svg">
<path d="M21.8526 1.41474C21.5194 2.21408 21.0881 2.9689 20.5686 3.66184C19.4563 2.51164 18.1246 1.5962 16.6523 0.969674C15.18 0.343143 13.5969 0.0182451 11.9969 0.0141984C10.3968 0.0101518 8.81215 0.327039 7.33669 0.946114C5.86122 1.56519 4.52489 2.47388 3.40675 3.61844C2.2886 4.76299 1.41135 6.12017 0.826887 7.60968C0.242421 9.0992 -0.0373897 10.6908 0.00400553 12.2903C0.0454008 13.8899 0.407162 15.4649 1.06789 16.9222C1.72862 18.3795 2.67489 19.6894 3.85074 20.7746L4.29524 21.1697C5.98201 22.5923 8.0296 23.5203 10.2113 23.8508C12.3929 24.1814 14.6235 23.9017 16.656 23.0427C18.6884 22.1837 20.4435 20.7789 21.7268 18.9839C23.0101 17.1889 23.7716 15.0737 23.9268 12.8726C24.2725 9.86004 23.3589 6.00784 21.8526 1.41474ZM5.57944 20.8734C5.45247 21.0295 5.28211 21.1443 5.08987 21.2036C4.89763 21.2628 4.69215 21.2637 4.49939 21.2062C4.30664 21.1487 4.13526 21.0353 4.00691 20.8804C3.87857 20.7255 3.79902 20.5361 3.77831 20.336C3.75761 20.1359 3.79668 19.9342 3.8906 19.7563C3.98451 19.5784 4.12905 19.4323 4.30594 19.3366C4.48284 19.2408 4.68415 19.1996 4.88445 19.2182C5.08474 19.2369 5.27502 19.3144 5.43124 19.4411C5.63605 19.6146 5.76584 19.8605 5.79346 20.1275C5.82109 20.3944 5.7444 20.6617 5.57944 20.8734ZM21.7785 17.2928C18.84 21.2191 12.5184 19.8856 8.49334 20.0832C8.49334 20.0832 7.77724 20.1326 7.06104 20.2313C7.06104 20.2313 7.33274 20.1079 7.67844 19.9844C10.5182 18.9967 11.8516 18.7991 13.5802 17.9101C16.8151 16.2556 20.05 12.6257 20.692 8.87224C19.4573 12.4775 15.7039 15.5889 12.2961 16.8483C9.95024 17.7126 5.72764 18.5522 5.72764 18.5522L5.55474 18.4534C2.69024 17.0458 2.59154 10.823 7.82654 8.82284C10.1231 7.93384 12.2961 8.42784 14.7902 7.83514C17.4324 7.21774 20.4945 5.24224 21.7292 2.64944C23.112 6.82264 24.7912 13.2924 21.7785 17.2928Z" fill="#6DB33F"/>
</svg>
