<svg width="20" height="24" viewBox="0 0 20 24" fill="none" xmlns="http://www.w3.org/2000/svg">
<path d="M8.35427 21.1256C7.47465 21.3542 6.54608 21.3073 5.69395 20.9913C4.84183 20.6753 4.1072 20.1054 3.58927 19.3586C3.27118 18.9136 3.04515 18.4096 2.92443 17.876C2.80371 17.3425 2.79074 16.7902 2.88627 16.2516C2.91884 16.0748 2.96361 15.9003 3.02027 15.7296L3.12527 15.4086L3.41227 15.6186C4.0735 16.1044 4.81278 16.4737 5.59827 16.7106L5.80627 16.7736L5.78627 16.9816C5.7613 17.2763 5.84135 17.5703 6.01227 17.8116C6.16812 18.0367 6.38931 18.2085 6.64594 18.3038C6.90257 18.3992 7.18228 18.4134 7.44727 18.3446C7.56858 18.3124 7.68425 18.2618 7.79027 18.1946L13.3803 14.6326C13.5168 14.5464 13.6339 14.4327 13.7241 14.2988C13.8143 14.1648 13.8757 14.0136 13.9043 13.8546C13.9331 13.6923 13.9292 13.5258 13.893 13.3649C13.8568 13.204 13.7889 13.052 13.6933 12.9176C13.5373 12.6927 13.3161 12.521 13.0595 12.4256C12.8029 12.3303 12.5233 12.316 12.2583 12.3846C12.137 12.4168 12.0213 12.4674 11.9153 12.5346L9.78227 13.8946C9.43158 14.1178 9.04882 14.2861 8.64727 14.3936C7.76775 14.6223 6.83925 14.5756 5.98714 14.2597C5.13502 13.9439 4.40033 13.3743 3.88227 12.6276C3.56417 12.1824 3.33821 11.6782 3.21766 11.1445C3.09711 10.6108 3.0844 10.0583 3.18027 9.51964C3.27505 8.99176 3.47894 8.48947 3.77889 8.04487C4.07885 7.60028 4.46827 7.22316 4.92227 6.93764L10.5113 3.37464C10.8619 3.15135 11.2447 2.98306 11.6463 2.87564C12.5259 2.64709 13.4545 2.69398 14.3066 3.00997C15.1587 3.32596 15.8933 3.89584 16.4113 4.64264C16.7294 5.08766 16.9554 5.59171 17.0761 6.12524C17.1968 6.65877 17.2098 7.21103 17.1143 7.74964C17.0816 7.92649 17.0368 8.1009 16.9803 8.27164L16.8753 8.59264L16.5893 8.38264C15.9279 7.89636 15.1882 7.5267 14.4023 7.28964L14.1943 7.22664L14.2143 7.01964C14.2393 6.72465 14.1593 6.43031 13.9883 6.18864C13.8323 5.96375 13.611 5.79214 13.3544 5.69701C13.0978 5.60187 12.8182 5.58778 12.5533 5.65664C12.432 5.68886 12.3163 5.73944 12.2103 5.80664L6.62027 9.36864C6.48366 9.45478 6.3665 9.56846 6.27628 9.70242C6.18606 9.83637 6.12475 9.98766 6.09627 10.1466C6.06736 10.309 6.07113 10.4755 6.10736 10.6364C6.14359 10.7973 6.21156 10.9493 6.30727 11.0836C6.46322 11.3086 6.68441 11.4803 6.94102 11.5756C7.19762 11.6709 7.47728 11.6853 7.74227 11.6166C7.86396 11.5841 7.97997 11.5332 8.08627 11.4656L10.2183 10.1056C10.5689 9.88262 10.9517 9.71467 11.3533 9.60764C12.2328 9.37899 13.1613 9.42572 14.0134 9.74153C14.8655 10.0573 15.6002 10.627 16.1183 11.3736C16.4364 11.8188 16.6623 12.3231 16.7829 12.8568C16.9034 13.3905 16.9161 13.9429 16.8203 14.4816C16.7255 15.0097 16.5216 15.5121 16.2217 15.9569C15.9217 16.4016 15.5323 16.7789 15.0783 17.0646L9.48927 20.6266C9.13863 20.8499 8.75586 21.0182 8.35427 21.1256ZM18.7123 3.17564C16.4843 -0.0143609 12.0823 -0.959361 8.90027 1.06864L3.31027 4.63064C2.55537 5.10574 1.90789 5.73312 1.40923 6.47267C0.910575 7.21222 0.5717 8.04768 0.414269 8.92564C0.147546 10.4048 0.381918 11.9307 1.08027 13.2616C0.601608 13.9872 0.275029 14.8023 0.120269 15.6576C-0.0387785 16.5533 -0.0173915 17.4717 0.183175 18.3589C0.383742 19.2462 0.759451 20.0845 1.28827 20.8246C3.51727 24.0146 7.91827 24.9596 11.1003 22.9326L16.6903 19.3706C17.4453 18.8956 18.0928 18.2683 18.5915 17.5287C19.0901 16.7891 19.429 15.9536 19.5863 15.0756C19.8531 13.5966 19.6191 12.0708 18.9213 10.7396C19.3992 10.0139 19.7251 9.19884 19.8793 8.34364C20.0387 7.44791 20.0176 6.52935 19.8172 5.64189C19.6168 4.75443 19.2411 3.91594 18.7123 3.17564Z" fill="#FF3E00"/>
</svg>
