<svg width="24" height="24" viewBox="0 0 24 24" fill="none" xmlns="http://www.w3.org/2000/svg">
<path d="M7.50763 0C7.22063 0 6.93463 0 6.64763 0.002C6.40663 0.004 6.16463 0.005 5.92363 0.012C5.79163 0.015 5.66063 0.021 5.52863 0.027C5.13272 0.0423982 4.73822 0.0834846 4.34763 0.15C3.82708 0.242046 3.32254 0.408765 2.84963 0.645C1.90032 1.1279 1.1284 1.89913 0.644634 2.848C0.399634 3.328 0.244634 3.82 0.149634 4.348C0.0566338 4.868 0.0276338 5.398 0.0136338 5.924C0.00715159 6.16529 0.00315138 6.40663 0.00163379 6.648C-0.000366211 6.935 -0.000366211 7.221 -0.000366211 7.508V16.492C-0.000366211 16.779 -0.000366211 17.067 0.00163379 17.354C0.00363379 17.594 0.00663379 17.835 0.0136338 18.076C0.0276338 18.602 0.0566338 19.133 0.149634 19.652C0.244634 20.18 0.399634 20.672 0.644634 21.152C1.12783 22.1013 1.89991 22.8727 2.84963 23.355C3.32963 23.599 3.81963 23.755 4.34763 23.85C4.86763 23.943 5.39763 23.974 5.92363 23.988C6.16463 23.995 6.40663 23.997 6.64763 23.998C6.93463 24 7.22063 24 7.50763 24H16.4916C16.7786 24 17.0646 24 17.3516 23.998C17.5926 23.997 17.8346 23.995 18.0756 23.988C18.6044 23.9817 19.1318 23.9356 19.6536 23.85C20.1748 23.7603 20.6797 23.5935 21.1516 23.355C22.1004 22.872 22.8717 22.1008 23.3546 21.152C23.5996 20.672 23.7546 20.18 23.8496 19.652C23.9426 19.132 23.9736 18.602 23.9876 18.076C23.9946 17.835 23.9966 17.595 23.9976 17.354C23.9996 17.067 23.9996 16.779 23.9996 16.492V7.508C23.9996 7.221 23.9996 6.935 23.9976 6.648C23.9969 6.40664 23.9936 6.16529 23.9876 5.924C23.9813 5.39594 23.9352 4.86912 23.8496 4.348C23.7601 3.82618 23.5932 3.32063 23.3546 2.848C22.8714 1.89939 22.1002 1.12819 21.1516 0.645C20.6797 0.406466 20.1748 0.239632 19.6536 0.15C19.1319 0.0643065 18.6044 0.0181751 18.0756 0.012C17.835 0.00618273 17.5943 0.00284922 17.3536 0.002C17.0666 0 16.7786 0 16.4916 0H7.50763ZM13.5426 3.41C17.6566 5.88 20.0876 10.572 19.0916 14.541C19.0676 14.634 19.0416 14.722 19.0156 14.813L19.0176 14.814C21.0796 17.352 20.5176 20.072 20.2536 19.559C19.1816 17.473 17.1876 17.991 16.1656 18.516C16.0732 18.5709 15.9795 18.6236 15.8846 18.674L15.8646 18.686L15.8626 18.688C13.7476 19.811 10.9056 19.893 8.05063 18.666C5.72597 17.6587 3.76002 15.9723 2.41063 13.828C3.05963 14.308 3.76063 14.73 4.50763 15.08C7.52663 16.494 10.5586 16.391 12.7046 15.078C9.65063 12.73 7.10063 9.67 5.14563 7.191C4.774 6.75742 4.43791 6.29458 4.14063 5.807C6.48063 7.949 10.1786 10.637 11.5056 11.383C8.68963 8.408 6.20763 4.743 6.32363 4.86C10.7596 9.33 14.8516 11.856 14.8516 11.856C15.0056 11.941 15.1216 12.01 15.2116 12.069C15.2966 11.854 15.3716 11.632 15.4356 11.401C16.1436 8.813 15.3456 5.853 13.5426 3.409V3.41Z" fill="#F05138"/>
</svg>
