<svg width="24" height="24" viewBox="0 0 24 24" fill="none" xmlns="http://www.w3.org/2000/svg">
<path d="M1.125 0.000244141C0.502 0.000244141 0 0.502244 0 1.12524V22.8752C0 23.4982 0.502 24.0002 1.125 24.0002H22.875C23.498 24.0002 24 23.4982 24 22.8752V1.12524C24 0.502244 23.498 0.000244141 22.875 0.000244141H1.125ZM18.488 9.75024C19.1 9.75024 19.642 9.78724 20.115 9.86124C20.5611 9.92809 20.9989 10.0421 21.421 10.2012V12.6592C21.2184 12.5191 21.0031 12.3983 20.778 12.2982C20.5458 12.1938 20.3062 12.1069 20.061 12.0382C19.5966 11.9088 19.1171 11.8416 18.635 11.8382C18.335 11.8382 18.062 11.8662 17.816 11.9242C17.5967 11.9711 17.3864 12.0528 17.193 12.1662C17.023 12.2702 16.893 12.3952 16.8 12.5402C16.7065 12.6864 16.6578 12.8567 16.66 13.0302C16.66 13.2262 16.713 13.4032 16.816 13.5592C16.92 13.7152 17.068 13.8632 17.259 14.0032C17.45 14.1432 17.682 14.2792 17.955 14.4132C18.228 14.5482 18.537 14.6872 18.881 14.8292C19.351 15.0262 19.773 15.2362 20.147 15.4572C20.521 15.6792 20.842 15.9302 21.11 16.2102C21.378 16.4892 21.582 16.8082 21.724 17.1672C21.866 17.5262 21.938 17.9432 21.938 18.4202C21.938 19.0772 21.813 19.6302 21.565 20.0762C21.3227 20.5161 20.975 20.8889 20.553 21.1612C20.0982 21.4496 19.5941 21.6517 19.066 21.7572C18.5 21.8772 17.903 21.9372 17.276 21.9372C16.6589 21.94 16.0429 21.885 15.436 21.7732C14.9109 21.6824 14.4017 21.5164 13.924 21.2802V18.6502C14.8278 19.4194 15.9743 19.8444 17.161 19.8502C17.494 19.8502 17.785 19.8202 18.033 19.7602C18.282 19.7002 18.489 19.6162 18.656 19.5102C18.822 19.4022 18.946 19.2762 19.029 19.1302C19.1207 18.9603 19.1625 18.7678 19.1494 18.5751C19.1363 18.3823 19.0689 18.1973 18.955 18.0412C18.8064 17.8446 18.6247 17.6754 18.418 17.5412C18.1617 17.3713 17.8917 17.2228 17.611 17.0972C17.2782 16.9453 16.9425 16.7999 16.604 16.6612C15.686 16.2782 15.002 15.8092 14.551 15.2562C14.101 14.7032 13.875 14.0342 13.875 13.2512C13.875 12.6372 13.998 12.1102 14.244 11.6692C14.49 11.2282 14.824 10.8652 15.248 10.5802C15.6965 10.2844 16.1943 10.0714 16.718 9.95124C17.298 9.8145 17.8921 9.74703 18.488 9.75024ZM3.375 9.93824H12.938V12.1042H9.506V21.7502H6.789V12.1042H3.375V9.93824Z" fill="#3178C6"/>
</svg>
