<svg width="22" height="24" viewBox="0 0 22 24" fill="none" xmlns="http://www.w3.org/2000/svg">
<path d="M11.9284 4.2939L15.7281 6.4868C15.8647 6.5638 15.8696 6.7773 15.7281 6.8543L11.2131 9.4619C11.1488 9.4997 11.0755 9.51963 11.0008 9.51963C10.9262 9.51963 10.8529 9.4997 10.7885 9.4619L6.27363 6.8543C6.13463 6.7798 6.13213 6.5613 6.27363 6.4868L10.0708 4.2938V0L0.375427 5.5977V16.793L4.09313 14.6474V10.2616C4.09063 10.1051 4.27443 9.9934 4.41113 10.0778L8.92593 12.6854C8.99066 12.7225 9.04448 12.7761 9.08197 12.8406C9.11946 12.9051 9.13931 12.9784 9.13953 13.053V18.2657C9.14203 18.4222 8.95823 18.5339 8.82163 18.4495L5.02203 16.2566L1.30423 18.4023L10.9996 24L20.695 18.4023L16.9772 16.2566L13.1776 18.4495C13.0435 18.5315 12.8547 18.4247 12.8597 18.2657V13.053C12.8597 12.8965 12.9467 12.7574 13.0733 12.6854L17.5882 10.0778C17.7222 9.9958 17.911 10.1002 17.9061 10.2616V14.6474L21.6238 16.793V5.5977L11.9284 0V4.2939Z" fill="white"/>
</svg>
