<svg width="24" height="24" viewBox="0 0 24 24" fill="none" xmlns="http://www.w3.org/2000/svg">
<path d="M3.69922 15.6351L2.44369 16.0938L2.37628 19.8289L6.72248 18.2412C5.23179 17.7404 4.14319 16.8594 3.69922 15.6351Z" fill="#FFD00E"/>
<path d="M4.35625 11.6847L0 13.2761L2.44368 16.0938L3.6992 15.6352C3.25653 14.4145 3.52952 13.0346 4.35625 11.6847Z" fill="#FFD00E"/>
<path d="M11.6871 6.2951C6.13978 8.32158 2.56348 12.5033 3.6992 15.6351L23.7877 8.29654C22.652 5.16466 17.2343 4.2686 11.6871 6.2951Z" fill="#FFD00E"/>
<path d="M15.7998 17.6367C21.3471 15.6102 24.9302 11.447 23.7877 8.29663L3.69922 15.6352C4.84165 18.7856 10.2526 19.6631 15.7998 17.6367Z" fill="#FFD00E"/>
<path d="M23.7877 8.29663L3.69922 15.6352C4.09258 16.7199 5.59262 17.2544 7.69735 17.2544C9.74929 17.2544 12.376 16.7468 15.1144 15.7464C20.6617 13.7199 24.5646 10.4389 23.7877 8.29663Z" fill="#FFD00E"/>
<path d="M19.7896 6.67749C17.7376 6.67749 15.111 7.18506 12.3725 8.18545C6.82527 10.2119 2.92238 13.493 3.69924 15.6352L23.7877 8.29665C23.3944 7.2119 21.8943 6.67749 19.7896 6.67749Z" fill="#FFD00E"/>
<path d="M18.6802 20.0267H18.6801C18.089 20.0267 17.2171 19.4928 16.0884 18.4399C14.7531 17.1943 13.2235 15.3698 11.7813 13.3025C10.3392 11.2354 9.15418 9.16873 8.44458 7.48323C7.67146 5.64645 7.56123 4.51708 8.11694 4.12646C8.23879 4.0409 8.38567 3.99756 8.55347 3.99756C9.0055 3.99756 9.88628 4.3341 11.515 5.93749L11.5506 5.97254L11.5458 6.02237C11.5346 6.13756 11.5244 6.25378 11.5152 6.36784L11.4971 6.59435L11.3373 6.43336C9.58242 4.66542 8.80993 4.47455 8.55923 4.47455C8.48774 4.47455 8.4308 4.48909 8.38999 4.51779C8.14894 4.68716 8.13343 5.51671 8.88298 7.29727C9.57991 8.95273 10.7477 10.9881 12.1712 13.0285C13.5947 15.0691 15.1009 16.8666 16.4123 18.09C17.8265 19.4092 18.4638 19.5517 18.6722 19.5517C18.7441 19.5517 18.8026 19.5362 18.8459 19.5057C19.1002 19.327 19.1005 18.4384 18.2646 16.5219L18.2262 16.4339L18.3102 16.3879C18.3943 16.342 18.4755 16.2967 18.5517 16.2533L18.6523 16.1962L18.6987 16.3024C19.2914 17.6604 19.8454 19.3864 19.119 19.897C18.9965 19.9831 18.8489 20.0267 18.6802 20.0267ZM18.6801 19.8172H18.6802L18.6801 19.922L18.6801 19.8172Z" fill="#FFD00E"/>
<path d="M15.9345 17.5793L15.9261 17.6837C15.7858 19.419 15.4166 21.5053 14.4538 21.5897C14.4344 21.5915 14.4143 21.5924 14.3942 21.5924C13.7402 21.5924 13.1214 20.6552 12.5551 18.807C12.0193 17.0585 11.6035 14.7108 11.3843 12.1964C11.1651 9.68256 11.1684 7.29807 11.3936 5.48223C11.639 3.50353 12.1061 2.47019 12.782 2.41087C12.802 2.40903 12.8227 2.40808 12.8432 2.40808C13.3177 2.40808 14.0328 2.94534 14.7648 5.4478L14.2868 5.54006C14.0424 4.70381 13.776 4.02366 13.5116 3.5563C13.267 3.12401 13.0291 2.88594 12.8418 2.88594C12.8357 2.88594 12.8295 2.8862 12.8234 2.88672C12.5304 2.91245 12.1037 3.62311 11.8659 5.54124C11.6447 7.3245 11.6421 9.67325 11.8584 12.1548C12.0748 14.6368 12.4838 16.9494 13.0099 18.6666C13.2456 19.4357 13.5041 20.0695 13.7574 20.4996C13.9911 20.8963 14.2172 21.1147 14.3941 21.1147C14.4002 21.1147 14.4062 21.1144 14.4123 21.1139C14.6926 21.0893 15.2208 20.3498 15.4432 17.7479L15.9345 17.5793Z" fill="#FFD00E"/>
</svg>
