<svg width="16" height="16" viewBox="0 0 16 16" fill="none" xmlns="http://www.w3.org/2000/svg">
<path d="M7.99999 10.4C8.84869 10.4 9.66262 10.0629 10.2627 9.46274C10.8629 8.86263 11.2 8.04869 11.2 7.2V3.2C11.2 2.35131 10.8629 1.53737 10.2627 0.937258C9.66262 0.337142 8.84869 0 7.99999 0C7.1513 0 6.33737 0.337142 5.73725 0.937258C5.13714 1.53737 4.79999 2.35131 4.79999 3.2V7.2C4.79999 8.04869 5.13714 8.86263 5.73725 9.46274C6.33737 10.0629 7.1513 10.4 7.99999 10.4Z" fill="#C3E88D"/>
<path d="M13.6 7.2C13.6 6.98783 13.5157 6.78434 13.3657 6.63431C13.2157 6.48429 13.0122 6.4 12.8 6.4C12.5878 6.4 12.3843 6.48429 12.2343 6.63431C12.0843 6.78434 12 6.98783 12 7.2C12 8.26087 11.5786 9.27828 10.8284 10.0284C10.0783 10.7786 9.06086 11.2 7.99999 11.2C6.93913 11.2 5.92171 10.7786 5.17157 10.0284C4.42142 9.27828 3.99999 8.26087 3.99999 7.2C3.99999 6.98783 3.91571 6.78434 3.76568 6.63431C3.61565 6.48429 3.41217 6.4 3.19999 6.4C2.98782 6.4 2.78434 6.48429 2.63431 6.63431C2.48428 6.78434 2.39999 6.98783 2.39999 7.2C2.40157 8.54548 2.88752 9.84541 3.76894 10.862C4.65036 11.8785 5.86832 12.5438 7.19999 12.736V14.4H5.51199C5.32316 14.4 5.14206 14.475 5.00853 14.6085C4.87501 14.7421 4.79999 14.9232 4.79999 15.112V15.288C4.79999 15.4768 4.87501 15.6579 5.00853 15.7915C5.14206 15.925 5.32316 16 5.51199 16H10.488C10.6768 16 10.8579 15.925 10.9915 15.7915C11.125 15.6579 11.2 15.4768 11.2 15.288V15.112C11.2 14.9232 11.125 14.7421 10.9915 14.6085C10.8579 14.475 10.6768 14.4 10.488 14.4H8.79999V12.736C10.1317 12.5438 11.3496 11.8785 12.2311 10.862C13.1125 9.84541 13.5984 8.54548 13.6 7.2Z" fill="#C3E88D"/>
</svg>
