<svg width="25" height="25" viewBox="0 0 25 25" fill="none" xmlns="http://www.w3.org/2000/svg">
<path d="M8.5 6.1C8.5 5.67565 8.66857 5.26869 8.96863 4.96863C9.26869 4.66857 9.67565 4.5 10.1 4.5H14.9C15.3243 4.5 15.7313 4.66857 16.0314 4.96863C16.3314 5.26869 16.5 5.67565 16.5 6.1V7.7H19.7C19.9122 7.7 20.1157 7.78429 20.2657 7.93431C20.4157 8.08434 20.5 8.28783 20.5 8.5C20.5 8.71217 20.4157 8.91566 20.2657 9.06569C20.1157 9.21571 19.9122 9.3 19.7 9.3H18.8448L18.1512 19.0136C18.1225 19.4173 17.9418 19.7951 17.6457 20.0709C17.3495 20.3467 16.9599 20.5 16.5552 20.5H8.444C8.03931 20.5 7.64965 20.3467 7.35351 20.0709C7.05736 19.7951 6.87673 19.4173 6.848 19.0136L6.156 9.3H5.3C5.08783 9.3 4.88434 9.21571 4.73431 9.06569C4.58429 8.91566 4.5 8.71217 4.5 8.5C4.5 8.28783 4.58429 8.08434 4.73431 7.93431C4.88434 7.78429 5.08783 7.7 5.3 7.7H8.5V6.1ZM10.1 7.7H14.9V6.1H10.1V7.7ZM7.7592 9.3L8.4448 18.9H16.556L17.2416 9.3H7.7592Z" fill="#C4C4C4"/>
</svg>
