<svg width="16" height="16" viewBox="0 0 16 16" fill="none" xmlns="http://www.w3.org/2000/svg">
<path d="M11.7 1.87961C11.4723 2.10727 11.4124 2.26316 11.3671 2.35002C11.0654 2.92878 10.702 3.11621 10.0963 2.51048C10.0368 2.45105 8.22786 0.559801 7.92888 0.216934C7.73368 -0.00707177 7.4347 -0.075645 7.20475 0.0971596C7.03103 0.227906 5.36013 1.59343 4.90297 2.15756C4.54914 2.59414 4.53725 3.13313 4.86686 3.46319C5.01589 3.61223 5.19921 3.66846 5.39304 3.72743C5.64539 3.80469 6.19901 3.75851 6.52222 4.08172C7.04017 4.59968 6.76908 5.41845 6.10301 6.10281C5.41864 6.76888 4.59988 7.03997 4.08192 6.52202C3.75826 6.19835 3.80489 5.64519 3.72763 5.39284C3.66866 5.19901 3.61243 5.01615 3.46339 4.86666C3.13378 4.53705 2.5948 4.54939 2.15776 4.90277C1.59317 5.35993 0.228106 7.03083 0.0973594 7.20455C-0.0759024 7.4345 -0.00687195 7.73302 0.217134 7.92868C0.56 8.22766 2.45125 10.0366 2.51068 10.0961C3.11595 10.7013 2.92898 11.0652 2.35022 11.3669C2.26336 11.4122 2.10793 11.4716 1.87981 11.6998C1.55881 12.0208 1.37848 12.4561 1.37848 12.9101C1.37848 13.364 1.55881 13.7994 1.87981 14.1204C2.2008 14.4414 2.63617 14.6217 3.09013 14.6217C3.54408 14.6217 3.97945 14.4414 4.30044 14.1204C4.52811 13.8927 4.58799 13.7368 4.63325 13.65C4.93497 13.0712 5.29841 12.8838 5.90414 13.4895C5.96357 13.5489 7.77254 15.4402 8.07152 15.7831C8.26672 16.0071 8.5657 16.0756 8.79565 15.9028C8.96937 15.7721 10.6403 14.4066 11.0974 13.8424C11.4513 13.4059 11.4632 12.8669 11.1335 12.5368C10.9845 12.3878 10.8012 12.3315 10.6074 12.2726C10.355 12.1953 9.80139 12.2415 9.47818 11.9183C8.96023 11.4003 9.23132 10.5816 9.89739 9.89719C10.5818 9.23112 11.4005 8.96003 11.9185 9.47798C12.2421 9.80165 12.1955 10.3548 12.2728 10.6072C12.3317 10.801 12.388 10.9839 12.537 11.1333C12.8666 11.4629 13.4056 11.4506 13.8426 11.0972C14.4072 10.6401 15.7723 8.96917 15.903 8.79545C16.0763 8.5655 16.0073 8.26698 15.7833 8.07132C15.4404 7.77234 13.5491 5.96337 13.4897 5.90394C12.8844 5.29867 13.0714 4.93477 13.6502 4.63305C13.737 4.58779 13.8925 4.52836 14.1206 4.30024C14.4416 3.97925 14.6219 3.54388 14.6219 3.08993C14.6219 2.63597 14.4416 2.2006 14.1206 1.87961C13.7996 1.55861 13.3642 1.37828 12.9103 1.37828C12.4563 1.37828 12.021 1.55861 11.7 1.87961Z" fill="#C3E88D"/>
</svg>
