<svg width="14" height="16" viewBox="0 0 14 16" fill="none" xmlns="http://www.w3.org/2000/svg">
<path d="M8.99984 3.00012C9.82831 3.00012 10.4999 2.32853 10.4999 1.50006C10.4999 0.671589 9.82831 0 8.99984 0C8.17137 0 7.49979 0.671589 7.49979 1.50006C7.49979 2.32853 8.17137 3.00012 8.99984 3.00012ZM4.05246 9.92133L3.58995 11.0001H1.49955C0.947342 11.0001 0.499512 11.4479 0.499512 12.0002C0.499512 12.5524 0.947342 13.0002 1.49955 13.0002H3.91996C4.52154 13.0002 5.06313 12.6427 5.29845 12.0911L5.57315 11.4498L5.2397 11.2529C4.69843 10.9332 4.30029 10.4601 4.05246 9.92133ZM12.5 6.99996H11.124L10.3096 5.33583C9.91894 4.53736 9.20173 3.95359 8.37888 3.7439L6.15755 3.08325C5.27314 2.87074 4.35216 3.06606 3.6312 3.61889L2.39146 4.56924C1.95301 4.90519 1.86988 5.53272 2.20645 5.97117C2.54303 6.40963 3.17024 6.49182 3.60838 6.15618L4.84874 5.20583C5.08844 5.02176 5.39377 4.95582 5.63846 5.01395L6.09786 5.15051L4.92718 7.88156C4.53279 8.80284 4.88625 9.88195 5.74909 10.3913L8.40482 11.9592L7.54635 14.7009C7.38134 15.2278 7.67479 15.7887 8.20169 15.9537C8.30138 15.985 8.40201 16 8.50107 16C8.9264 16 9.32079 15.7259 9.45486 15.2984L10.4437 12.1402C10.6283 11.4911 10.3533 10.7939 9.76737 10.4404L7.85355 9.31099L8.83203 6.86464L9.46549 8.15938C9.7155 8.67003 10.2443 8.99973 10.8127 8.99973H12.5C13.0522 8.99973 13.5 8.5519 13.5 7.99969C13.5 7.44748 13.0522 6.99996 12.5 6.99996Z" fill="#C3E88D"/>
</svg>
