<svg width="24" height="24" viewBox="0 0 24 24" fill="none" xmlns="http://www.w3.org/2000/svg">
<rect x="0.5" y="0.5" width="23" height="23" rx="11.5" stroke="#FF3F02"/>
<path d="M12.0034 14.5218C12.3379 14.5218 12.5717 14.3009 12.5779 13.9599L12.6345 6.60601C12.6345 6.24617 12.3379 6 11.9969 6C11.6624 6 11.3659 6.24617 11.3659 6.60601L11.4351 13.9599C11.4416 14.3009 11.6748 14.5218 12.0034 14.5218ZM11.9969 18C12.1152 18.0008 12.2324 17.9782 12.3419 17.9335C12.4513 17.8888 12.5509 17.8229 12.6348 17.7396C12.7187 17.6563 12.7853 17.5572 12.8308 17.4481C12.8762 17.3389 12.8997 17.2219 12.8997 17.1036C12.8997 16.6051 12.5019 16.2073 11.9969 16.2073C11.8792 16.2072 11.7626 16.2303 11.6538 16.2754C11.5451 16.3204 11.4462 16.3864 11.363 16.4697C11.2797 16.5529 11.2137 16.6517 11.1687 16.7605C11.1237 16.8693 11.1005 16.9859 11.1006 17.1036C11.1014 17.3411 11.1961 17.5686 11.3641 17.7365C11.532 17.9044 11.7595 17.9991 11.9969 18Z" fill="#FF3F02"/>
</svg>
