<svg
  width="24"
  height="24"
  viewBox="0 0 24 24"
  fill="none"
  xmlns="http://www.w3.org/2000/svg"
>
  <path
    d="M8 5.6C8 5.17565 8.16857 4.76869 8.46863 4.46863C8.76869 4.16857 9.17565 4 9.6 4H14.4C14.8243 4 15.2313 4.16857 15.5314 4.46863C15.8314 4.76869 16 5.17565 16 5.6V7.2H19.2C19.4122 7.2 19.6157 7.28429 19.7657 7.43431C19.9157 7.58434 20 7.78783 20 8C20 8.21217 19.9157 8.41566 19.7657 8.56569C19.6157 8.71571 19.4122 8.8 19.2 8.8H18.3448L17.6512 18.5136C17.6225 18.9173 17.4418 19.2951 17.1457 19.5709C16.8495 19.8467 16.4599 20 16.0552 20H7.944C7.53931 20 7.14965 19.8467 6.85351 19.5709C6.55736 19.2951 6.37673 18.9173 6.348 18.5136L5.656 8.8H4.8C4.58783 8.8 4.38434 8.71571 4.23431 8.56569C4.08429 8.41566 4 8.21217 4 8C4 7.78783 4.08429 7.58434 4.23431 7.43431C4.38434 7.28429 4.58783 7.2 4.8 7.2H8V5.6ZM9.6 7.2H14.4V5.6H9.6V7.2ZM7.2592 8.8L7.9448 18.4H16.056L16.7416 8.8H7.2592Z"
    fill="#919191"
/>
</svg>
