<svg width="80" height="80" viewBox="0 0 80 80" fill="none" xmlns="http://www.w3.org/2000/svg">
<g filter="url(#filter0_ddd_4730_18845)">
<path fill-rule="evenodd" clip-rule="evenodd" d="M42.174 58.776L43.258 56.944C44.098 55.524 44.518 54.812 45.194 54.42C45.87 54.026 46.72 54.012 48.42 53.982C50.932 53.94 52.506 53.786 53.826 53.238C55.0393 52.7355 56.1417 51.9989 57.0703 51.0703C57.9989 50.1417 58.7355 49.0393 59.238 47.826C60 45.99 60 43.66 60 39V37C60 30.454 60 27.18 58.526 24.776C57.7019 23.4304 56.5711 22.2989 55.226 21.474C52.82 20 49.546 20 43 20H37C30.454 20 27.18 20 24.776 21.474C23.4304 22.2981 22.2989 23.4289 21.474 24.774C20 27.18 20 30.456 20 37V39C20 43.66 20 45.99 20.76 47.826C21.2628 49.0394 21.9997 50.142 22.9286 51.0706C23.8576 51.9992 24.9604 52.7357 26.174 53.238C27.494 53.786 29.068 53.938 31.58 53.982C33.28 54.012 34.13 54.026 34.806 54.42C35.48 54.812 35.902 55.522 36.742 56.944L37.826 58.776C38.792 60.408 41.206 60.408 42.174 58.776ZM48 40C48.5304 40 49.0391 39.7893 49.4142 39.4142C49.7893 39.0391 50 38.5304 50 38C50 37.4696 49.7893 36.9609 49.4142 36.5858C49.0391 36.2107 48.5304 36 48 36C47.4696 36 46.9609 36.2107 46.5858 36.5858C46.2107 36.9609 46 37.4696 46 38C46 38.5304 46.2107 39.0391 46.5858 39.4142C46.9609 39.7893 47.4696 40 48 40ZM42 38C42 38.5304 41.7893 39.0391 41.4142 39.4142C41.0391 39.7893 40.5304 40 40 40C39.4696 40 38.9609 39.7893 38.5858 39.4142C38.2107 39.0391 38 38.5304 38 38C38 37.4696 38.2107 36.9609 38.5858 36.5858C38.9609 36.2107 39.4696 36 40 36C40.5304 36 41.0391 36.2107 41.4142 36.5858C41.7893 36.9609 42 37.4696 42 38ZM32 40C32.5304 40 33.0391 39.7893 33.4142 39.4142C33.7893 39.0391 34 38.5304 34 38C34 37.4696 33.7893 36.9609 33.4142 36.5858C33.0391 36.2107 32.5304 36 32 36C31.4696 36 30.9609 36.2107 30.5858 36.5858C30.2107 36.9609 30 37.4696 30 38C30 38.5304 30.2107 39.0391 30.5858 39.4142C30.9609 39.7893 31.4696 40 32 40Z" fill="#C3E88D"/>
<path d="M30 38C30 36.8954 30.8954 36 32 36C33.1046 36 34 36.8954 34 38C34 39.1046 33.1046 40 32 40C30.8954 40 30 39.1046 30 38Z" fill="#141415"/>
<path d="M38 38C38 36.8954 38.8954 36 40 36C41.1046 36 42 36.8954 42 38C42 39.1046 41.1046 40 40 40C38.8954 40 38 39.1046 38 38Z" fill="#141415"/>
<path d="M46 38C46 36.8954 46.8954 36 48 36C49.1046 36 50 36.8954 50 38C50 39.1046 49.1046 40 48 40C46.8954 40 46 39.1046 46 38Z" fill="#141415"/>
</g>
<defs>
<filter id="filter0_ddd_4730_18845" x="0" y="0" width="80" height="80" filterUnits="userSpaceOnUse" color-interpolation-filters="sRGB">
<feFlood flood-opacity="0" result="BackgroundImageFix"/>
<feColorMatrix in="SourceAlpha" type="matrix" values="0 0 0 0 0 0 0 0 0 0 0 0 0 0 0 0 0 0 127 0" result="hardAlpha"/>
<feOffset/>
<feGaussianBlur stdDeviation="4"/>
<feComposite in2="hardAlpha" operator="out"/>
<feColorMatrix type="matrix" values="0 0 0 0 0.764706 0 0 0 0 0.909804 0 0 0 0 0.552941 0 0 0 0.5 0"/>
<feBlend mode="normal" in2="BackgroundImageFix" result="effect1_dropShadow_4730_18845"/>
<feColorMatrix in="SourceAlpha" type="matrix" values="0 0 0 0 0 0 0 0 0 0 0 0 0 0 0 0 0 0 127 0" result="hardAlpha"/>
<feOffset/>
<feGaussianBlur stdDeviation="6"/>
<feComposite in2="hardAlpha" operator="out"/>
<feColorMatrix type="matrix" values="0 0 0 0 0.764706 0 0 0 0 0.909804 0 0 0 0 0.552941 0 0 0 0.3 0"/>
<feBlend mode="normal" in2="effect1_dropShadow_4730_18845" result="effect2_dropShadow_4730_18845"/>
<feColorMatrix in="SourceAlpha" type="matrix" values="0 0 0 0 0 0 0 0 0 0 0 0 0 0 0 0 0 0 127 0" result="hardAlpha"/>
<feOffset/>
<feGaussianBlur stdDeviation="10"/>
<feComposite in2="hardAlpha" operator="out"/>
<feColorMatrix type="matrix" values="0 0 0 0 0.764706 0 0 0 0 0.909804 0 0 0 0 0.552941 0 0 0 0.1 0"/>
<feBlend mode="normal" in2="effect2_dropShadow_4730_18845" result="effect3_dropShadow_4730_18845"/>
<feBlend mode="normal" in="SourceGraphic" in2="effect3_dropShadow_4730_18845" result="shape"/>
</filter>
</defs>
</svg>
