<svg width="16" height="12" viewBox="0 0 16 12" fill="none" xmlns="http://www.w3.org/2000/svg">
<path d="M1.97142 3.99913C1.97135 3.41922 2.11771 2.84838 2.39735 2.33797C2.67699 1.82755 3.08113 1.39356 3.57342 1.07503C4.06572 0.756503 4.63072 0.563426 5.21762 0.513166C5.80452 0.462906 6.39491 0.557039 6.93569 0.7871C7.47646 1.01716 7.95067 1.37593 8.31564 1.83115C8.68062 2.28636 8.92493 2.82374 9.02659 3.39495C9.12825 3.96616 9.08407 4.55329 8.89804 5.10353C8.71201 5.65377 8.38995 6.14986 7.96083 6.54718C8.76988 6.93383 9.47233 7.50676 10.0087 8.21742C10.545 8.92808 10.8994 9.75553 11.0418 10.6297C11.0575 10.7269 11.0536 10.8263 11.0302 10.9221C11.0069 11.0178 10.9646 11.1081 10.9058 11.1878C10.847 11.2675 10.7729 11.335 10.6876 11.3865C10.6023 11.438 10.5075 11.4724 10.4087 11.4878C10.3099 11.5033 10.2089 11.4994 10.1116 11.4764C10.0143 11.4534 9.9226 11.4118 9.84165 11.3539C9.7607 11.2961 9.69211 11.2231 9.63982 11.1391C9.58753 11.0551 9.55255 10.9618 9.53688 10.8646C9.38457 9.92523 8.89705 9.07011 8.16186 8.45277C7.42668 7.83542 6.492 7.4963 5.52566 7.4963C4.55933 7.4963 3.62465 7.83542 2.88947 8.45277C2.15428 9.07011 1.66676 9.92523 1.51445 10.8646C1.49871 10.9618 1.46367 11.0551 1.41131 11.1391C1.35896 11.223 1.29032 11.296 1.20932 11.3538C1.12832 11.4116 1.03654 11.4532 0.939221 11.4761C0.841903 11.499 0.740954 11.5028 0.642136 11.4873C0.543319 11.4719 0.448568 11.4374 0.363295 11.3858C0.278021 11.3343 0.203894 11.2667 0.145147 11.187C0.0863995 11.1072 0.0441818 11.0169 0.0209042 10.9211C-0.00237331 10.8253 -0.00625483 10.7259 0.0094813 10.6287C0.15142 9.75461 0.505647 8.92721 1.04205 8.21679C1.57846 7.50638 2.28119 6.93396 3.0905 6.54818C2.73711 6.22098 2.45551 5.82601 2.26305 5.38763C2.07059 4.94924 1.97134 4.4767 1.97142 3.99913ZM11.1109 2.49969C11.7009 2.50009 12.2781 2.66909 12.7725 2.98616C13.2668 3.30322 13.657 3.75473 13.8957 4.28587C14.1344 4.81701 14.2114 5.40494 14.1172 5.97829C14.0231 6.55165 13.7619 7.08577 13.3653 7.51582C13.9838 7.81741 14.5333 8.23995 14.9802 8.75763C15.4272 9.27531 15.7623 9.87726 15.965 10.5267C16.0052 10.6527 16.0109 10.787 15.9814 10.9159C15.9519 11.0447 15.8883 11.1636 15.797 11.2605C15.7057 11.3573 15.5901 11.4287 15.4617 11.4673C15.3334 11.5059 15.1969 11.5104 15.0663 11.4803C14.9356 11.4506 14.8153 11.3874 14.7174 11.2972C14.6195 11.207 14.5475 11.0929 14.5088 10.9665C14.3265 10.3871 13.9947 9.86408 13.5459 9.44851C13.097 9.03294 12.5464 8.73902 11.9477 8.59542C11.7814 8.5559 11.6334 8.46242 11.5277 8.33004C11.4219 8.19766 11.3646 8.03409 11.3648 7.86569V7.51382C11.3647 7.37424 11.4042 7.23741 11.4788 7.11873C11.5535 7.00005 11.6603 6.90423 11.7872 6.84207C12.0951 6.69188 12.3423 6.44365 12.4888 6.13768C12.6352 5.83172 12.6723 5.486 12.5939 5.15669C12.5156 4.82737 12.3265 4.5338 12.0572 4.32366C11.788 4.11352 11.4545 3.99915 11.1109 3.99913C10.9089 3.99913 10.7152 3.92014 10.5724 3.77954C10.4295 3.63894 10.3493 3.44825 10.3493 3.24941C10.3493 3.05057 10.4295 2.85988 10.5724 2.71928C10.7152 2.57868 10.9089 2.49969 11.1109 2.49969ZM5.52566 1.99987C5.2552 1.99385 4.98623 2.04108 4.73457 2.13879C4.4829 2.2365 4.2536 2.38272 4.06013 2.56887C3.86665 2.75501 3.71291 2.97733 3.60792 3.22276C3.50294 3.4682 3.44882 3.73181 3.44875 3.99812C3.44868 4.26443 3.50267 4.52806 3.60753 4.77355C3.71239 5.01904 3.86602 5.24143 4.0594 5.42767C4.25278 5.61391 4.482 5.76024 4.73362 5.85808C4.98524 5.95591 5.25418 6.00327 5.52465 5.99739C6.05531 5.98584 6.56029 5.77025 6.93149 5.39677C7.30269 5.02329 7.51061 4.52161 7.51074 3.99912C7.51088 3.47662 7.30321 2.97484 6.9322 2.60118C6.56119 2.22752 6.05632 2.01169 5.52566 1.99987Z" fill="#C3E88D"/>
</svg>
