<svg width="205" height="200" viewBox="0 0 205 200" fill="none" xmlns="http://www.w3.org/2000/svg">
<path d="M95.3573 71.4286H76.3097V66.6667H66.7859V57.1429H71.5478V42.8571H62.024V47.619H52.5002V42.8571H47.7383V23.8095H66.7859V19.0476H71.5478V4.7619H66.7859V0H138.214V4.7619H133.453V19.0476H138.214V23.8095H157.262V42.8571H152.5V47.619H142.976V42.8571H133.453V57.1429H138.214V66.6667H128.691V71.4286H109.643V61.9048H114.405V52.381H109.643V47.619H95.3573V52.381H90.5954V61.9048H95.3573V71.4286Z" fill="#FAC66A"/>
<path d="M85.8335 19.0476V23.8095H81.0716V38.0952H85.8335V42.8571H95.3573V38.0952H100.119V23.8095H95.3573V19.0476H85.8335Z" fill="white"/>
<path d="M109.643 19.0476V23.8095H104.881V38.0952H109.643V42.8571H119.167V38.0952H123.929V23.8095H119.167V19.0476H109.643Z" fill="white"/>
<path d="M81.0716 38.0952V28.5714H90.5954V38.0952H81.0716Z" fill="black"/>
<path d="M114.405 38.0952V28.5714H123.929V38.0952H114.405Z" fill="black"/>
<path d="M57.262 61.9048V66.6667H66.7858V71.4286H62.0239V85.7143H66.7858V90.4762H81.0715V95.2381H85.8334V104.762H81.0715V109.524H66.7858V114.286H62.0239V128.571H66.7858V133.333H57.262V138.095H38.2144V133.333H42.9763V119.048H38.2144V114.286H28.6906V119.048H23.9287V133.333H28.6906V138.095H9.64295V133.333H0.119141V66.6667H9.64295V61.9048H28.6906V66.6667H23.9287V80.9524H28.6906V85.7143H38.2144V80.9524H42.9763V66.6667H38.2144V61.9048H57.262Z" fill="#C792E9"/>
<path d="M14.4049 88.0953V92.8572H9.64295V107.143H14.4049V111.905H23.9287V107.143H28.6906V92.8572H23.9287V88.0953H14.4049Z" fill="white"/>
<path d="M42.9763 88.0953V92.8572H38.2144V107.143H42.9763V111.905H52.5001V107.143H57.262V92.8572H52.5001V88.0953H42.9763Z" fill="white"/>
<path d="M19.1668 107.143V97.6191H28.6906V107.143H19.1668Z" fill="black"/>
<path d="M47.7382 107.143V97.6191H57.262V107.143H47.7382Z" fill="black"/>
<path d="M147.738 61.9048V66.6667H138.215V71.4286H142.977V85.7143H138.215V90.4762H123.929V95.2381H119.167V104.762H123.929V109.524H138.215V114.286H142.977V128.571H138.215V133.333H147.738V138.095H166.786V133.333H162.024V119.048H166.786V114.286H176.31V119.048H181.072V133.333H176.31V138.095H195.357V133.333H204.881V66.6667H195.357V61.9048H176.31V66.6667H181.072V80.9524H176.31V85.7143H166.786V80.9524H162.024V66.6667H166.786V61.9048H147.738Z" fill="#A0E7B8"/>
<path d="M152.5 88.0953V92.8572H147.738V107.143H152.5V111.905H162.024V107.143H166.786V92.8572H162.024V88.0953H152.5Z" fill="white"/>
<path d="M181.072 88.0953V92.8572H176.31V107.143H181.072V111.905H190.596V107.143H195.357V92.8572H190.596V88.0953H181.072Z" fill="white"/>
<path d="M157.262 102.381V92.8572H166.786V102.381H157.262Z" fill="black"/>
<path d="M176.31 102.381V92.8572H185.834V102.381H176.31Z" fill="black"/>
<path d="M138.214 195.239V200H204.881V133.334H195.357V138.096H176.309V133.334H181.071V119.048H176.309V114.286H166.785V119.048H162.024V133.334H166.785V138.096H147.738V133.334H138.214V142.858H133.452V157.143H142.976V152.381H152.5V157.143H157.262V176.191H138.214V180.953H133.452V195.239H138.214Z" fill="#FFE350"/>
<path d="M170.357 157.143V161.905H165.595V176.191H170.357V180.953H179.881V176.191H184.643V161.905H179.881V157.143H170.357Z" fill="white"/>
<path d="M184.643 157.143V161.905H179.881V176.191H184.643V180.953H194.166V176.191H198.928V161.905H194.166V157.143H184.643Z" fill="white"/>
<path d="M170.357 166.667V157.143H179.881V166.667H170.357Z" fill="black"/>
<path d="M184.643 166.667V157.143H194.166V166.667H184.643Z" fill="black"/>
<path d="M90.5958 52.381V61.9049H95.3577V71.4287H76.3101V66.6668H66.7863V71.4287H62.0244V85.7144H66.7863V90.4763H81.072V95.2382H85.8339V104.762H81.072V109.524H66.7863V114.286H62.0244V128.572H66.7863V133.333H76.3101V128.572H95.3577V138.095H90.5958V147.619H95.3577V152.381H109.643V147.619H114.405V138.095H109.643V128.572H128.691V133.333H138.215V128.572H142.977V114.286H138.215V109.524H123.929V104.762H119.167V95.2382H123.929V90.4763H138.215V85.7144H142.977V71.4287H138.215V66.6668H128.691V71.4287H109.643V61.9049H114.405V52.381H109.643V47.6191H95.3577V52.381H90.5958Z" fill="#E86E75"/>
<path d="M90.5958 76.1906V80.9525H85.8339V95.2382H90.5958V100H100.12V95.2382H104.882V80.9525H100.12V76.1906H90.5958Z" fill="white"/>
<path d="M104.882 76.1906V80.9525H100.12V95.2382H104.882V100H114.405V95.2382H119.167V80.9525H114.405V76.1906H104.882Z" fill="white"/>
<path d="M85.8339 95.2382V85.7144H95.3577V95.2382H85.8339Z" fill="black"/>
<path d="M109.643 90.4763V80.9525H119.167V90.4763H109.643Z" fill="black"/>
<path d="M138.214 4.7619V0H204.881V66.6667H195.357V61.9048H176.309V66.6667H181.071V80.9524H176.309V85.7143H166.785V80.9524H162.024V66.6667H166.785V61.9048H147.738V66.6667H138.214V57.1429H133.452V42.8571H142.976V47.619H152.5V42.8571H157.262V23.8095H138.214V19.0476H133.452V4.7619H138.214Z" fill="#82AAFF"/>
<path d="M166.785 7.14286V11.9048H162.024V26.1905H166.785V30.9524H176.309V26.1905H181.071V11.9048H176.309V7.14286H166.785Z" fill="white"/>
<path d="M185.833 7.14286V11.9048H181.071V26.1905H185.833V30.9524H195.357V26.1905H200.119V11.9048H195.357V7.14286H185.833Z" fill="white"/>
<path d="M171.547 21.4286V11.9048H181.071V21.4286H171.547Z" fill="black"/>
<path d="M190.595 21.4286V11.9048H200.119V21.4286H190.595Z" fill="black"/>
<path d="M66.7858 195.239V200H0.119141V133.334H9.64295V138.096H28.6906V133.334H23.9287V119.048H28.6906V114.286H38.2144V119.048H42.9763V133.334H38.2144V138.096H57.262V133.334H66.7858V142.858H71.5477V157.143H62.0239V152.381H52.5001V157.143H47.7382V176.191H66.7858V180.953H71.5477V195.239H66.7858Z" fill="#88DDFF"/>
<path d="M38.2144 147.619V152.381H42.9763V166.667H38.2144V171.429H28.6906V166.667H23.9287V152.381H28.6906V147.619H38.2144Z" fill="white"/>
<path d="M19.1668 147.619V152.381H23.9287V166.667H19.1668V171.429H9.64295V166.667H4.88104V152.381H9.64295V147.619H19.1668Z" fill="white"/>
<path d="M33.4525 161.905V152.381H23.9287V161.905H33.4525Z" fill="black"/>
<path d="M14.4049 161.905V152.381H4.88104V161.905H14.4049Z" fill="black"/>
<path d="M95.3573 128.571H76.3097V133.333H66.7859V142.857H71.5478V157.143H62.024V152.381H52.5002V157.143H47.7383V176.19H66.7859V180.952H71.5478V195.238H66.7859V200H138.214V195.238H133.453V180.952H138.214V176.19H157.262V157.143H152.5V152.381H142.976V157.143H133.453V142.857H138.214V133.333H128.691V128.571H109.643V138.095H114.405V147.619H109.643V152.381H95.3573V147.619H90.5954V138.095H95.3573V128.571Z" fill="#FAA6C9"/>
<path d="M109.643 161.905V166.667H114.405V180.952H109.643V185.714H100.119V180.952H95.3573V166.667H100.119V161.905H109.643Z" fill="white"/>
<path d="M128.691 161.905V166.667H133.453V180.952H128.691V185.714H119.167V180.952H114.405V166.667H119.167V161.905H128.691Z" fill="white"/>
<path d="M114.405 176.19V166.667H104.881V176.19H114.405Z" fill="black"/>
<path d="M133.453 176.19V166.667H123.929V176.19H133.453Z" fill="black"/>
<path d="M66.7858 4.7619V0H0.119141V66.6667H9.64295V61.9048H28.6906V66.6667H23.9287V80.9524H28.6906V85.7143H38.2144V80.9524H42.9763V66.6667H38.2144V61.9048H57.262V66.6667H66.7858V57.1429H71.5477V42.8571H62.0239V47.619H52.5001V42.8571H47.7382V23.8095H66.7858V19.0476H71.5477V4.7619H66.7858Z" fill="#C3E88D"/>
<path d="M14.4049 14.2857V19.0476H9.64295V33.3333H14.4049V38.0952H23.9287V33.3333H28.6906V19.0476H23.9287V14.2857H14.4049Z" fill="white"/>
<path d="M33.4525 14.2857V19.0476H28.6906V33.3333H33.4525V38.0952H42.9763V33.3333H47.7382V19.0476H42.9763V14.2857H33.4525Z" fill="white"/>
<path d="M14.4049 33.3333V23.8095H23.9287V33.3333H14.4049Z" fill="black"/>
<path d="M33.4525 33.3333V23.8095H42.9763V33.3333H33.4525Z" fill="black"/>
</svg>
