<svg width="166" height="24" viewBox="0 0 166 24" fill="none" xmlns="http://www.w3.org/2000/svg">
<g clip-path="url(#clip0_5923_22081)">
<g filter="url(#filter0_ddd_5923_22081)">
<path d="M27.7 6.85714H31.1625V10.2857H27.7V6.85714Z" fill="url(#paint0_linear_5923_22081)"/>
<path d="M24.2375 13.7143H27.7V17.1429H24.2375V13.7143Z" fill="url(#paint1_linear_5923_22081)"/>
<path d="M24.2375 3.42857H27.7V6.85714H24.2375V3.42857Z" fill="url(#paint2_linear_5923_22081)"/>
<path d="M20.775 3.42857H24.2375V6.85714H20.775V3.42857Z" fill="url(#paint3_linear_5923_22081)"/>
<path d="M3.4625 3.42857H6.925V6.85714H3.4625V3.42857Z" fill="url(#paint4_linear_5923_22081)"/>
<path d="M3.4625 17.1429H6.925V20.5714H3.4625V17.1429Z" fill="url(#paint5_linear_5923_22081)"/>
<path d="M100.412 17.1429H103.875V20.5714H100.412V17.1429Z" fill="url(#paint6_linear_5923_22081)"/>
<path d="M6.925 3.42857H10.3875V6.85714H6.925V3.42857Z" fill="url(#paint7_linear_5923_22081)"/>
<path d="M6.925 17.1429H10.3875V20.5714H6.925V17.1429Z" fill="url(#paint8_linear_5923_22081)"/>
<path d="M103.875 17.1429H107.337V20.5714H103.875V17.1429Z" fill="url(#paint9_linear_5923_22081)"/>
<path d="M107.337 17.1429H110.8V20.5714H107.337V17.1429Z" fill="url(#paint10_linear_5923_22081)"/>
<path d="M17.3125 6.85714H20.775V10.2857H17.3125V6.85714Z" fill="url(#paint11_linear_5923_22081)"/>
<path d="M10.3875 6.85714H13.85V10.2857H10.3875V6.85714Z" fill="url(#paint12_linear_5923_22081)"/>
<path d="M0 6.85714H3.4625V10.2857H0V6.85714Z" fill="url(#paint13_linear_5923_22081)"/>
<path d="M20.775 13.7143H24.2375V17.1429H20.775V13.7143Z" fill="url(#paint14_linear_5923_22081)"/>
<path d="M17.3125 10.2857H20.775V13.7143H17.3125V10.2857Z" fill="url(#paint15_linear_5923_22081)"/>
<path d="M10.3875 10.2857H13.85V13.7143H10.3875V10.2857Z" fill="url(#paint16_linear_5923_22081)"/>
<path d="M3.4625 10.2857H6.925V13.7143H3.4625V10.2857Z" fill="url(#paint17_linear_5923_22081)"/>
<path d="M0 10.2857H3.4625V13.7143H0V10.2857Z" fill="url(#paint18_linear_5923_22081)"/>
<path d="M10.3875 13.7143H13.85V17.1429H10.3875V13.7143Z" fill="url(#paint19_linear_5923_22081)"/>
<path d="M0 13.7143H3.4625V17.1429H0V13.7143Z" fill="url(#paint20_linear_5923_22081)"/>
<path d="M39.8187 17.1429H43.2812V20.5714H39.8187V17.1429Z" fill="url(#paint21_linear_5923_22081)"/>
<path d="M36.3562 10.2857H39.8187V13.7143H36.3562V10.2857Z" fill="url(#paint22_linear_5923_22081)"/>
<path d="M27.7 10.2857H31.1625V13.7143H27.7V10.2857Z" fill="url(#paint23_linear_5923_22081)"/>
<path d="M43.2812 6.85714H46.7437V10.2857H43.2812V6.85714Z" fill="url(#paint24_linear_5923_22081)"/>
<path d="M43.2812 13.7143H46.7437V17.1429H43.2812V13.7143Z" fill="url(#paint25_linear_5923_22081)"/>
<path d="M32.8937 13.7143H36.3562V17.1429H32.8937V13.7143Z" fill="url(#paint26_linear_5923_22081)"/>
<path d="M36.3562 3.42857H39.8187V6.85714H36.3562V3.42857Z" fill="url(#paint27_linear_5923_22081)"/>
<path d="M48.475 6.85714H51.9375V10.2857H48.475V6.85714Z" fill="url(#paint28_linear_5923_22081)"/>
<path d="M36.3562 17.1429H39.8187V20.5714H36.3562V17.1429Z" fill="url(#paint29_linear_5923_22081)"/>
<path d="M39.8187 3.42857H43.2812V6.85714H39.8187V3.42857Z" fill="url(#paint30_linear_5923_22081)"/>
<path d="M55.4 6.85714H58.8625V10.2857H55.4V6.85714Z" fill="url(#paint31_linear_5923_22081)"/>
<path d="M76.175 3.42857H79.6375V6.85714H76.175V3.42857Z" fill="url(#paint32_linear_5923_22081)"/>
<path d="M155.812 3.42857H159.275V6.85714H155.812V3.42857Z" fill="url(#paint33_linear_5923_22081)"/>
<path d="M128.112 3.42857H131.575V6.85714H128.112V3.42857Z" fill="url(#paint34_linear_5923_22081)"/>
<path d="M91.7562 6.85714H95.2187V10.2857H91.7562V6.85714Z" fill="url(#paint35_linear_5923_22081)"/>
<path d="M143.694 6.85714H147.156V10.2857H143.694V6.85714Z" fill="url(#paint36_linear_5923_22081)"/>
<path d="M79.6375 3.42857H83.1V6.85714H79.6375V3.42857Z" fill="url(#paint37_linear_5923_22081)"/>
<path d="M159.275 3.42857H162.737V6.85714H159.275V3.42857Z" fill="url(#paint38_linear_5923_22081)"/>
<path d="M131.575 3.42857H135.037V6.85714H131.575V3.42857Z" fill="url(#paint39_linear_5923_22081)"/>
<path d="M95.2187 10.2857H98.6812V13.7143H95.2187V10.2857Z" fill="url(#paint40_linear_5923_22081)"/>
<path d="M147.156 10.2857H150.619V13.7143H147.156V10.2857Z" fill="url(#paint41_linear_5923_22081)"/>
<path d="M72.7125 6.85714H76.175V10.2857H72.7125V6.85714Z" fill="url(#paint42_linear_5923_22081)"/>
<path d="M152.35 6.85714H155.812V10.2857H152.35V6.85714Z" fill="url(#paint43_linear_5923_22081)"/>
<path d="M124.65 6.85714H128.112V10.2857H124.65V6.85714Z" fill="url(#paint44_linear_5923_22081)"/>
<path d="M72.7125 13.7143H76.175V17.1429H72.7125V13.7143Z" fill="url(#paint45_linear_5923_22081)"/>
<path d="M152.35 13.7143H155.812V17.1429H152.35V13.7143Z" fill="url(#paint46_linear_5923_22081)"/>
<path d="M124.65 13.7143H128.112V17.1429H124.65V13.7143Z" fill="url(#paint47_linear_5923_22081)"/>
<path d="M76.175 17.1429H79.6375V20.5714H76.175V17.1429Z" fill="url(#paint48_linear_5923_22081)"/>
<path d="M155.812 17.1429H159.275V20.5714H155.812V17.1429Z" fill="url(#paint49_linear_5923_22081)"/>
<path d="M128.112 17.1429H131.575V20.5714H128.112V17.1429Z" fill="url(#paint50_linear_5923_22081)"/>
<path d="M79.6375 17.1429H83.1V20.5714H79.6375V17.1429Z" fill="url(#paint51_linear_5923_22081)"/>
<path d="M159.275 17.1429H162.737V20.5714H159.275V17.1429Z" fill="url(#paint52_linear_5923_22081)"/>
<path d="M131.575 17.1429H135.037V20.5714H131.575V17.1429Z" fill="url(#paint53_linear_5923_22081)"/>
<path d="M76.175 10.2857H79.6375V13.7143H76.175V10.2857Z" fill="url(#paint54_linear_5923_22081)"/>
<path d="M155.812 10.2857H159.275V13.7143H155.812V10.2857Z" fill="url(#paint55_linear_5923_22081)"/>
<path d="M128.112 10.2857H131.575V13.7143H128.112V10.2857Z" fill="url(#paint56_linear_5923_22081)"/>
<path d="M79.6375 10.2857H83.1V13.7143H79.6375V10.2857Z" fill="url(#paint57_linear_5923_22081)"/>
<path d="M159.275 10.2857H162.737V13.7143H159.275V10.2857Z" fill="url(#paint58_linear_5923_22081)"/>
<path d="M131.575 10.2857H135.037V13.7143H131.575V10.2857Z" fill="url(#paint59_linear_5923_22081)"/>
<path d="M83.1 6.85714H86.5625V10.2857H83.1V6.85714Z" fill="url(#paint60_linear_5923_22081)"/>
<path d="M162.737 6.85714H166.2V10.2857H162.737V6.85714Z" fill="url(#paint61_linear_5923_22081)"/>
<path d="M135.037 6.85714H138.5V10.2857H135.037V6.85714Z" fill="url(#paint62_linear_5923_22081)"/>
<path d="M88.2937 3.42857H91.7562V6.85714H88.2937V3.42857Z" fill="url(#paint63_linear_5923_22081)"/>
<path d="M140.231 3.42857H143.694V6.85714H140.231V3.42857Z" fill="url(#paint64_linear_5923_22081)"/>
<path d="M88.2937 10.2857H91.7562V13.7143H88.2937V10.2857Z" fill="url(#paint65_linear_5923_22081)"/>
<path d="M140.231 10.2857H143.694V13.7143H140.231V10.2857Z" fill="url(#paint66_linear_5923_22081)"/>
<path d="M88.2937 13.7143H91.7562V17.1429H88.2937V13.7143Z" fill="url(#paint67_linear_5923_22081)"/>
<path d="M140.231 13.7143H143.694V17.1429H140.231V13.7143Z" fill="url(#paint68_linear_5923_22081)"/>
<path d="M88.2937 17.1429H91.7562V20.5714H88.2937V17.1429Z" fill="url(#paint69_linear_5923_22081)"/>
<path d="M140.231 17.1429H143.694V20.5714H140.231V17.1429Z" fill="url(#paint70_linear_5923_22081)"/>
<path d="M60.5937 10.2857H64.0562V13.7143H60.5937V10.2857Z" fill="url(#paint71_linear_5923_22081)"/>
<path d="M112.531 10.2857H115.994V13.7143H112.531V10.2857Z" fill="url(#paint72_linear_5923_22081)"/>
<path d="M60.5937 13.7143H64.0562V17.1429H60.5937V13.7143Z" fill="url(#paint73_linear_5923_22081)"/>
<path d="M112.531 13.7143H115.994V17.1429H112.531V13.7143Z" fill="url(#paint74_linear_5923_22081)"/>
<path d="M60.5937 17.1429H64.0562V20.5714H60.5937V17.1429Z" fill="url(#paint75_linear_5923_22081)"/>
<path d="M112.531 17.1429H115.994V20.5714H112.531V17.1429Z" fill="url(#paint76_linear_5923_22081)"/>
<path d="M67.5187 13.7143H70.9812V17.1429H67.5187V13.7143Z" fill="url(#paint77_linear_5923_22081)"/>
<path d="M119.456 13.7143H122.919V17.1429H119.456V13.7143Z" fill="url(#paint78_linear_5923_22081)"/>
<path d="M67.5187 17.1429H70.9812V20.5714H67.5187V17.1429Z" fill="url(#paint79_linear_5923_22081)"/>
<path d="M119.456 17.1429H122.919V20.5714H119.456V17.1429Z" fill="url(#paint80_linear_5923_22081)"/>
<path d="M64.0562 6.85714H67.5187V10.2857H64.0562V6.85714Z" fill="url(#paint81_linear_5923_22081)"/>
<path d="M115.994 6.85714H119.456V10.2857H115.994V6.85714Z" fill="url(#paint82_linear_5923_22081)"/>
<path d="M67.5187 10.2857H70.9812V13.7143H67.5187V10.2857Z" fill="url(#paint83_linear_5923_22081)"/>
<path d="M119.456 10.2857H122.919V13.7143H119.456V10.2857Z" fill="url(#paint84_linear_5923_22081)"/>
<path d="M60.5937 3.42857H64.0562V6.85714H60.5937V3.42857Z" fill="url(#paint85_linear_5923_22081)"/>
<path d="M112.531 3.42857H115.994V6.85714H112.531V3.42857Z" fill="url(#paint86_linear_5923_22081)"/>
<path d="M60.5937 0H64.0562V3.42857H60.5937V0Z" fill="url(#paint87_linear_5923_22081)"/>
<path d="M112.531 0H115.994V3.42857H112.531V0Z" fill="url(#paint88_linear_5923_22081)"/>
<path d="M51.9375 3.42857H55.4V6.85714H51.9375V3.42857Z" fill="url(#paint89_linear_5923_22081)"/>
<path d="M51.9375 0H55.4V3.42857H51.9375V0Z" fill="url(#paint90_linear_5923_22081)"/>
<path d="M51.9375 10.2857H55.4V13.7143H51.9375V10.2857Z" fill="url(#paint91_linear_5923_22081)"/>
<path d="M51.9375 13.7143H55.4V17.1429H51.9375V13.7143Z" fill="url(#paint92_linear_5923_22081)"/>
<path d="M55.4 17.1429H58.8625V20.5714H55.4V17.1429Z" fill="url(#paint93_linear_5923_22081)"/>
<path d="M39.8187 10.2857H43.2812V13.7143H39.8187V10.2857Z" fill="url(#paint94_linear_5923_22081)"/>
<path d="M27.7 17.1429H31.1625V20.5714H27.7V17.1429Z" fill="url(#paint95_linear_5923_22081)"/>
<path d="M24.2375 20.5714H27.7V24H24.2375V20.5714Z" fill="url(#paint96_linear_5923_22081)"/>
<path d="M20.775 20.5714H24.2375V24H20.775V20.5714Z" fill="url(#paint97_linear_5923_22081)"/>
</g>
</g>
<defs>
<filter id="filter0_ddd_5923_22081" x="-40" y="-40" width="246.2" height="104" filterUnits="userSpaceOnUse" color-interpolation-filters="sRGB">
<feFlood flood-opacity="0" result="BackgroundImageFix"/>
<feColorMatrix in="SourceAlpha" type="matrix" values="0 0 0 0 0 0 0 0 0 0 0 0 0 0 0 0 0 0 127 0" result="hardAlpha"/>
<feOffset/>
<feGaussianBlur stdDeviation="2"/>
<feComposite in2="hardAlpha" operator="out"/>
<feColorMatrix type="matrix" values="0 0 0 0 0.764706 0 0 0 0 0.909804 0 0 0 0 0.552941 0 0 0 0.5 0"/>
<feBlend mode="normal" in2="BackgroundImageFix" result="effect1_dropShadow_5923_22081"/>
<feColorMatrix in="SourceAlpha" type="matrix" values="0 0 0 0 0 0 0 0 0 0 0 0 0 0 0 0 0 0 127 0" result="hardAlpha"/>
<feOffset/>
<feGaussianBlur stdDeviation="3"/>
<feComposite in2="hardAlpha" operator="out"/>
<feColorMatrix type="matrix" values="0 0 0 0 0.764706 0 0 0 0 0.909804 0 0 0 0 0.552941 0 0 0 0.3 0"/>
<feBlend mode="normal" in2="effect1_dropShadow_5923_22081" result="effect2_dropShadow_5923_22081"/>
<feColorMatrix in="SourceAlpha" type="matrix" values="0 0 0 0 0 0 0 0 0 0 0 0 0 0 0 0 0 0 127 0" result="hardAlpha"/>
<feOffset/>
<feGaussianBlur stdDeviation="20"/>
<feComposite in2="hardAlpha" operator="out"/>
<feColorMatrix type="matrix" values="0 0 0 0 0.764706 0 0 0 0 0.909804 0 0 0 0 0.552941 0 0 0 0.1 0"/>
<feBlend mode="normal" in2="effect2_dropShadow_5923_22081" result="effect3_dropShadow_5923_22081"/>
<feBlend mode="normal" in="SourceGraphic" in2="effect3_dropShadow_5923_22081" result="shape"/>
</filter>
<linearGradient id="paint0_linear_5923_22081" x1="0" y1="12" x2="166.2" y2="12" gradientUnits="userSpaceOnUse">
<stop stop-color="#ACDF62"/>
<stop offset="1" stop-color="#C3E88D"/>
</linearGradient>
<linearGradient id="paint1_linear_5923_22081" x1="0" y1="12" x2="166.2" y2="12" gradientUnits="userSpaceOnUse">
<stop stop-color="#ACDF62"/>
<stop offset="1" stop-color="#C3E88D"/>
</linearGradient>
<linearGradient id="paint2_linear_5923_22081" x1="0" y1="12" x2="166.2" y2="12" gradientUnits="userSpaceOnUse">
<stop stop-color="#ACDF62"/>
<stop offset="1" stop-color="#C3E88D"/>
</linearGradient>
<linearGradient id="paint3_linear_5923_22081" x1="0" y1="12" x2="166.2" y2="12" gradientUnits="userSpaceOnUse">
<stop stop-color="#ACDF62"/>
<stop offset="1" stop-color="#C3E88D"/>
</linearGradient>
<linearGradient id="paint4_linear_5923_22081" x1="0" y1="12" x2="166.2" y2="12" gradientUnits="userSpaceOnUse">
<stop stop-color="#ACDF62"/>
<stop offset="1" stop-color="#C3E88D"/>
</linearGradient>
<linearGradient id="paint5_linear_5923_22081" x1="0" y1="12" x2="166.2" y2="12" gradientUnits="userSpaceOnUse">
<stop stop-color="#ACDF62"/>
<stop offset="1" stop-color="#C3E88D"/>
</linearGradient>
<linearGradient id="paint6_linear_5923_22081" x1="0" y1="12" x2="166.2" y2="12" gradientUnits="userSpaceOnUse">
<stop stop-color="#ACDF62"/>
<stop offset="1" stop-color="#C3E88D"/>
</linearGradient>
<linearGradient id="paint7_linear_5923_22081" x1="0" y1="12" x2="166.2" y2="12" gradientUnits="userSpaceOnUse">
<stop stop-color="#ACDF62"/>
<stop offset="1" stop-color="#C3E88D"/>
</linearGradient>
<linearGradient id="paint8_linear_5923_22081" x1="0" y1="12" x2="166.2" y2="12" gradientUnits="userSpaceOnUse">
<stop stop-color="#ACDF62"/>
<stop offset="1" stop-color="#C3E88D"/>
</linearGradient>
<linearGradient id="paint9_linear_5923_22081" x1="0" y1="12" x2="166.2" y2="12" gradientUnits="userSpaceOnUse">
<stop stop-color="#ACDF62"/>
<stop offset="1" stop-color="#C3E88D"/>
</linearGradient>
<linearGradient id="paint10_linear_5923_22081" x1="0" y1="12" x2="166.2" y2="12" gradientUnits="userSpaceOnUse">
<stop stop-color="#ACDF62"/>
<stop offset="1" stop-color="#C3E88D"/>
</linearGradient>
<linearGradient id="paint11_linear_5923_22081" x1="0" y1="12" x2="166.2" y2="12" gradientUnits="userSpaceOnUse">
<stop stop-color="#ACDF62"/>
<stop offset="1" stop-color="#C3E88D"/>
</linearGradient>
<linearGradient id="paint12_linear_5923_22081" x1="0" y1="12" x2="166.2" y2="12" gradientUnits="userSpaceOnUse">
<stop stop-color="#ACDF62"/>
<stop offset="1" stop-color="#C3E88D"/>
</linearGradient>
<linearGradient id="paint13_linear_5923_22081" x1="0" y1="12" x2="166.2" y2="12" gradientUnits="userSpaceOnUse">
<stop stop-color="#ACDF62"/>
<stop offset="1" stop-color="#C3E88D"/>
</linearGradient>
<linearGradient id="paint14_linear_5923_22081" x1="0" y1="12" x2="166.2" y2="12" gradientUnits="userSpaceOnUse">
<stop stop-color="#ACDF62"/>
<stop offset="1" stop-color="#C3E88D"/>
</linearGradient>
<linearGradient id="paint15_linear_5923_22081" x1="0" y1="12" x2="166.2" y2="12" gradientUnits="userSpaceOnUse">
<stop stop-color="#ACDF62"/>
<stop offset="1" stop-color="#C3E88D"/>
</linearGradient>
<linearGradient id="paint16_linear_5923_22081" x1="0" y1="12" x2="166.2" y2="12" gradientUnits="userSpaceOnUse">
<stop stop-color="#ACDF62"/>
<stop offset="1" stop-color="#C3E88D"/>
</linearGradient>
<linearGradient id="paint17_linear_5923_22081" x1="0" y1="12" x2="166.2" y2="12" gradientUnits="userSpaceOnUse">
<stop stop-color="#ACDF62"/>
<stop offset="1" stop-color="#C3E88D"/>
</linearGradient>
<linearGradient id="paint18_linear_5923_22081" x1="0" y1="12" x2="166.2" y2="12" gradientUnits="userSpaceOnUse">
<stop stop-color="#ACDF62"/>
<stop offset="1" stop-color="#C3E88D"/>
</linearGradient>
<linearGradient id="paint19_linear_5923_22081" x1="0" y1="12" x2="166.2" y2="12" gradientUnits="userSpaceOnUse">
<stop stop-color="#ACDF62"/>
<stop offset="1" stop-color="#C3E88D"/>
</linearGradient>
<linearGradient id="paint20_linear_5923_22081" x1="0" y1="12" x2="166.2" y2="12" gradientUnits="userSpaceOnUse">
<stop stop-color="#ACDF62"/>
<stop offset="1" stop-color="#C3E88D"/>
</linearGradient>
<linearGradient id="paint21_linear_5923_22081" x1="0" y1="12" x2="166.2" y2="12" gradientUnits="userSpaceOnUse">
<stop stop-color="#ACDF62"/>
<stop offset="1" stop-color="#C3E88D"/>
</linearGradient>
<linearGradient id="paint22_linear_5923_22081" x1="0" y1="12" x2="166.2" y2="12" gradientUnits="userSpaceOnUse">
<stop stop-color="#ACDF62"/>
<stop offset="1" stop-color="#C3E88D"/>
</linearGradient>
<linearGradient id="paint23_linear_5923_22081" x1="0" y1="12" x2="166.2" y2="12" gradientUnits="userSpaceOnUse">
<stop stop-color="#ACDF62"/>
<stop offset="1" stop-color="#C3E88D"/>
</linearGradient>
<linearGradient id="paint24_linear_5923_22081" x1="0" y1="12" x2="166.2" y2="12" gradientUnits="userSpaceOnUse">
<stop stop-color="#ACDF62"/>
<stop offset="1" stop-color="#C3E88D"/>
</linearGradient>
<linearGradient id="paint25_linear_5923_22081" x1="0" y1="12" x2="166.2" y2="12" gradientUnits="userSpaceOnUse">
<stop stop-color="#ACDF62"/>
<stop offset="1" stop-color="#C3E88D"/>
</linearGradient>
<linearGradient id="paint26_linear_5923_22081" x1="0" y1="12" x2="166.2" y2="12" gradientUnits="userSpaceOnUse">
<stop stop-color="#ACDF62"/>
<stop offset="1" stop-color="#C3E88D"/>
</linearGradient>
<linearGradient id="paint27_linear_5923_22081" x1="0" y1="12" x2="166.2" y2="12" gradientUnits="userSpaceOnUse">
<stop stop-color="#ACDF62"/>
<stop offset="1" stop-color="#C3E88D"/>
</linearGradient>
<linearGradient id="paint28_linear_5923_22081" x1="0" y1="12" x2="166.2" y2="12" gradientUnits="userSpaceOnUse">
<stop stop-color="#ACDF62"/>
<stop offset="1" stop-color="#C3E88D"/>
</linearGradient>
<linearGradient id="paint29_linear_5923_22081" x1="0" y1="12" x2="166.2" y2="12" gradientUnits="userSpaceOnUse">
<stop stop-color="#ACDF62"/>
<stop offset="1" stop-color="#C3E88D"/>
</linearGradient>
<linearGradient id="paint30_linear_5923_22081" x1="0" y1="12" x2="166.2" y2="12" gradientUnits="userSpaceOnUse">
<stop stop-color="#ACDF62"/>
<stop offset="1" stop-color="#C3E88D"/>
</linearGradient>
<linearGradient id="paint31_linear_5923_22081" x1="0" y1="12" x2="166.2" y2="12" gradientUnits="userSpaceOnUse">
<stop stop-color="#ACDF62"/>
<stop offset="1" stop-color="#C3E88D"/>
</linearGradient>
<linearGradient id="paint32_linear_5923_22081" x1="0" y1="12" x2="166.2" y2="12" gradientUnits="userSpaceOnUse">
<stop stop-color="#ACDF62"/>
<stop offset="1" stop-color="#C3E88D"/>
</linearGradient>
<linearGradient id="paint33_linear_5923_22081" x1="0" y1="12" x2="166.2" y2="12" gradientUnits="userSpaceOnUse">
<stop stop-color="#ACDF62"/>
<stop offset="1" stop-color="#C3E88D"/>
</linearGradient>
<linearGradient id="paint34_linear_5923_22081" x1="0" y1="12" x2="166.2" y2="12" gradientUnits="userSpaceOnUse">
<stop stop-color="#ACDF62"/>
<stop offset="1" stop-color="#C3E88D"/>
</linearGradient>
<linearGradient id="paint35_linear_5923_22081" x1="0" y1="12" x2="166.2" y2="12" gradientUnits="userSpaceOnUse">
<stop stop-color="#ACDF62"/>
<stop offset="1" stop-color="#C3E88D"/>
</linearGradient>
<linearGradient id="paint36_linear_5923_22081" x1="0" y1="12" x2="166.2" y2="12" gradientUnits="userSpaceOnUse">
<stop stop-color="#ACDF62"/>
<stop offset="1" stop-color="#C3E88D"/>
</linearGradient>
<linearGradient id="paint37_linear_5923_22081" x1="0" y1="12" x2="166.2" y2="12" gradientUnits="userSpaceOnUse">
<stop stop-color="#ACDF62"/>
<stop offset="1" stop-color="#C3E88D"/>
</linearGradient>
<linearGradient id="paint38_linear_5923_22081" x1="0" y1="12" x2="166.2" y2="12" gradientUnits="userSpaceOnUse">
<stop stop-color="#ACDF62"/>
<stop offset="1" stop-color="#C3E88D"/>
</linearGradient>
<linearGradient id="paint39_linear_5923_22081" x1="0" y1="12" x2="166.2" y2="12" gradientUnits="userSpaceOnUse">
<stop stop-color="#ACDF62"/>
<stop offset="1" stop-color="#C3E88D"/>
</linearGradient>
<linearGradient id="paint40_linear_5923_22081" x1="0" y1="12" x2="166.2" y2="12" gradientUnits="userSpaceOnUse">
<stop stop-color="#ACDF62"/>
<stop offset="1" stop-color="#C3E88D"/>
</linearGradient>
<linearGradient id="paint41_linear_5923_22081" x1="0" y1="12" x2="166.2" y2="12" gradientUnits="userSpaceOnUse">
<stop stop-color="#ACDF62"/>
<stop offset="1" stop-color="#C3E88D"/>
</linearGradient>
<linearGradient id="paint42_linear_5923_22081" x1="0" y1="12" x2="166.2" y2="12" gradientUnits="userSpaceOnUse">
<stop stop-color="#ACDF62"/>
<stop offset="1" stop-color="#C3E88D"/>
</linearGradient>
<linearGradient id="paint43_linear_5923_22081" x1="0" y1="12" x2="166.2" y2="12" gradientUnits="userSpaceOnUse">
<stop stop-color="#ACDF62"/>
<stop offset="1" stop-color="#C3E88D"/>
</linearGradient>
<linearGradient id="paint44_linear_5923_22081" x1="0" y1="12" x2="166.2" y2="12" gradientUnits="userSpaceOnUse">
<stop stop-color="#ACDF62"/>
<stop offset="1" stop-color="#C3E88D"/>
</linearGradient>
<linearGradient id="paint45_linear_5923_22081" x1="0" y1="12" x2="166.2" y2="12" gradientUnits="userSpaceOnUse">
<stop stop-color="#ACDF62"/>
<stop offset="1" stop-color="#C3E88D"/>
</linearGradient>
<linearGradient id="paint46_linear_5923_22081" x1="0" y1="12" x2="166.2" y2="12" gradientUnits="userSpaceOnUse">
<stop stop-color="#ACDF62"/>
<stop offset="1" stop-color="#C3E88D"/>
</linearGradient>
<linearGradient id="paint47_linear_5923_22081" x1="0" y1="12" x2="166.2" y2="12" gradientUnits="userSpaceOnUse">
<stop stop-color="#ACDF62"/>
<stop offset="1" stop-color="#C3E88D"/>
</linearGradient>
<linearGradient id="paint48_linear_5923_22081" x1="0" y1="12" x2="166.2" y2="12" gradientUnits="userSpaceOnUse">
<stop stop-color="#ACDF62"/>
<stop offset="1" stop-color="#C3E88D"/>
</linearGradient>
<linearGradient id="paint49_linear_5923_22081" x1="0" y1="12" x2="166.2" y2="12" gradientUnits="userSpaceOnUse">
<stop stop-color="#ACDF62"/>
<stop offset="1" stop-color="#C3E88D"/>
</linearGradient>
<linearGradient id="paint50_linear_5923_22081" x1="0" y1="12" x2="166.2" y2="12" gradientUnits="userSpaceOnUse">
<stop stop-color="#ACDF62"/>
<stop offset="1" stop-color="#C3E88D"/>
</linearGradient>
<linearGradient id="paint51_linear_5923_22081" x1="0" y1="12" x2="166.2" y2="12" gradientUnits="userSpaceOnUse">
<stop stop-color="#ACDF62"/>
<stop offset="1" stop-color="#C3E88D"/>
</linearGradient>
<linearGradient id="paint52_linear_5923_22081" x1="0" y1="12" x2="166.2" y2="12" gradientUnits="userSpaceOnUse">
<stop stop-color="#ACDF62"/>
<stop offset="1" stop-color="#C3E88D"/>
</linearGradient>
<linearGradient id="paint53_linear_5923_22081" x1="0" y1="12" x2="166.2" y2="12" gradientUnits="userSpaceOnUse">
<stop stop-color="#ACDF62"/>
<stop offset="1" stop-color="#C3E88D"/>
</linearGradient>
<linearGradient id="paint54_linear_5923_22081" x1="0" y1="12" x2="166.2" y2="12" gradientUnits="userSpaceOnUse">
<stop stop-color="#ACDF62"/>
<stop offset="1" stop-color="#C3E88D"/>
</linearGradient>
<linearGradient id="paint55_linear_5923_22081" x1="0" y1="12" x2="166.2" y2="12" gradientUnits="userSpaceOnUse">
<stop stop-color="#ACDF62"/>
<stop offset="1" stop-color="#C3E88D"/>
</linearGradient>
<linearGradient id="paint56_linear_5923_22081" x1="0" y1="12" x2="166.2" y2="12" gradientUnits="userSpaceOnUse">
<stop stop-color="#ACDF62"/>
<stop offset="1" stop-color="#C3E88D"/>
</linearGradient>
<linearGradient id="paint57_linear_5923_22081" x1="0" y1="12" x2="166.2" y2="12" gradientUnits="userSpaceOnUse">
<stop stop-color="#ACDF62"/>
<stop offset="1" stop-color="#C3E88D"/>
</linearGradient>
<linearGradient id="paint58_linear_5923_22081" x1="0" y1="12" x2="166.2" y2="12" gradientUnits="userSpaceOnUse">
<stop stop-color="#ACDF62"/>
<stop offset="1" stop-color="#C3E88D"/>
</linearGradient>
<linearGradient id="paint59_linear_5923_22081" x1="0" y1="12" x2="166.2" y2="12" gradientUnits="userSpaceOnUse">
<stop stop-color="#ACDF62"/>
<stop offset="1" stop-color="#C3E88D"/>
</linearGradient>
<linearGradient id="paint60_linear_5923_22081" x1="0" y1="12" x2="166.2" y2="12" gradientUnits="userSpaceOnUse">
<stop stop-color="#ACDF62"/>
<stop offset="1" stop-color="#C3E88D"/>
</linearGradient>
<linearGradient id="paint61_linear_5923_22081" x1="0" y1="12" x2="166.2" y2="12" gradientUnits="userSpaceOnUse">
<stop stop-color="#ACDF62"/>
<stop offset="1" stop-color="#C3E88D"/>
</linearGradient>
<linearGradient id="paint62_linear_5923_22081" x1="0" y1="12" x2="166.2" y2="12" gradientUnits="userSpaceOnUse">
<stop stop-color="#ACDF62"/>
<stop offset="1" stop-color="#C3E88D"/>
</linearGradient>
<linearGradient id="paint63_linear_5923_22081" x1="0" y1="12" x2="166.2" y2="12" gradientUnits="userSpaceOnUse">
<stop stop-color="#ACDF62"/>
<stop offset="1" stop-color="#C3E88D"/>
</linearGradient>
<linearGradient id="paint64_linear_5923_22081" x1="0" y1="12" x2="166.2" y2="12" gradientUnits="userSpaceOnUse">
<stop stop-color="#ACDF62"/>
<stop offset="1" stop-color="#C3E88D"/>
</linearGradient>
<linearGradient id="paint65_linear_5923_22081" x1="0" y1="12" x2="166.2" y2="12" gradientUnits="userSpaceOnUse">
<stop stop-color="#ACDF62"/>
<stop offset="1" stop-color="#C3E88D"/>
</linearGradient>
<linearGradient id="paint66_linear_5923_22081" x1="0" y1="12" x2="166.2" y2="12" gradientUnits="userSpaceOnUse">
<stop stop-color="#ACDF62"/>
<stop offset="1" stop-color="#C3E88D"/>
</linearGradient>
<linearGradient id="paint67_linear_5923_22081" x1="0" y1="12" x2="166.2" y2="12" gradientUnits="userSpaceOnUse">
<stop stop-color="#ACDF62"/>
<stop offset="1" stop-color="#C3E88D"/>
</linearGradient>
<linearGradient id="paint68_linear_5923_22081" x1="0" y1="12" x2="166.2" y2="12" gradientUnits="userSpaceOnUse">
<stop stop-color="#ACDF62"/>
<stop offset="1" stop-color="#C3E88D"/>
</linearGradient>
<linearGradient id="paint69_linear_5923_22081" x1="0" y1="12" x2="166.2" y2="12" gradientUnits="userSpaceOnUse">
<stop stop-color="#ACDF62"/>
<stop offset="1" stop-color="#C3E88D"/>
</linearGradient>
<linearGradient id="paint70_linear_5923_22081" x1="0" y1="12" x2="166.2" y2="12" gradientUnits="userSpaceOnUse">
<stop stop-color="#ACDF62"/>
<stop offset="1" stop-color="#C3E88D"/>
</linearGradient>
<linearGradient id="paint71_linear_5923_22081" x1="0" y1="12" x2="166.2" y2="12" gradientUnits="userSpaceOnUse">
<stop stop-color="#ACDF62"/>
<stop offset="1" stop-color="#C3E88D"/>
</linearGradient>
<linearGradient id="paint72_linear_5923_22081" x1="0" y1="12" x2="166.2" y2="12" gradientUnits="userSpaceOnUse">
<stop stop-color="#ACDF62"/>
<stop offset="1" stop-color="#C3E88D"/>
</linearGradient>
<linearGradient id="paint73_linear_5923_22081" x1="0" y1="12" x2="166.2" y2="12" gradientUnits="userSpaceOnUse">
<stop stop-color="#ACDF62"/>
<stop offset="1" stop-color="#C3E88D"/>
</linearGradient>
<linearGradient id="paint74_linear_5923_22081" x1="0" y1="12" x2="166.2" y2="12" gradientUnits="userSpaceOnUse">
<stop stop-color="#ACDF62"/>
<stop offset="1" stop-color="#C3E88D"/>
</linearGradient>
<linearGradient id="paint75_linear_5923_22081" x1="0" y1="12" x2="166.2" y2="12" gradientUnits="userSpaceOnUse">
<stop stop-color="#ACDF62"/>
<stop offset="1" stop-color="#C3E88D"/>
</linearGradient>
<linearGradient id="paint76_linear_5923_22081" x1="0" y1="12" x2="166.2" y2="12" gradientUnits="userSpaceOnUse">
<stop stop-color="#ACDF62"/>
<stop offset="1" stop-color="#C3E88D"/>
</linearGradient>
<linearGradient id="paint77_linear_5923_22081" x1="0" y1="12" x2="166.2" y2="12" gradientUnits="userSpaceOnUse">
<stop stop-color="#ACDF62"/>
<stop offset="1" stop-color="#C3E88D"/>
</linearGradient>
<linearGradient id="paint78_linear_5923_22081" x1="0" y1="12" x2="166.2" y2="12" gradientUnits="userSpaceOnUse">
<stop stop-color="#ACDF62"/>
<stop offset="1" stop-color="#C3E88D"/>
</linearGradient>
<linearGradient id="paint79_linear_5923_22081" x1="0" y1="12" x2="166.2" y2="12" gradientUnits="userSpaceOnUse">
<stop stop-color="#ACDF62"/>
<stop offset="1" stop-color="#C3E88D"/>
</linearGradient>
<linearGradient id="paint80_linear_5923_22081" x1="0" y1="12" x2="166.2" y2="12" gradientUnits="userSpaceOnUse">
<stop stop-color="#ACDF62"/>
<stop offset="1" stop-color="#C3E88D"/>
</linearGradient>
<linearGradient id="paint81_linear_5923_22081" x1="0" y1="12" x2="166.2" y2="12" gradientUnits="userSpaceOnUse">
<stop stop-color="#ACDF62"/>
<stop offset="1" stop-color="#C3E88D"/>
</linearGradient>
<linearGradient id="paint82_linear_5923_22081" x1="0" y1="12" x2="166.2" y2="12" gradientUnits="userSpaceOnUse">
<stop stop-color="#ACDF62"/>
<stop offset="1" stop-color="#C3E88D"/>
</linearGradient>
<linearGradient id="paint83_linear_5923_22081" x1="0" y1="12" x2="166.2" y2="12" gradientUnits="userSpaceOnUse">
<stop stop-color="#ACDF62"/>
<stop offset="1" stop-color="#C3E88D"/>
</linearGradient>
<linearGradient id="paint84_linear_5923_22081" x1="0" y1="12" x2="166.2" y2="12" gradientUnits="userSpaceOnUse">
<stop stop-color="#ACDF62"/>
<stop offset="1" stop-color="#C3E88D"/>
</linearGradient>
<linearGradient id="paint85_linear_5923_22081" x1="0" y1="12" x2="166.2" y2="12" gradientUnits="userSpaceOnUse">
<stop stop-color="#ACDF62"/>
<stop offset="1" stop-color="#C3E88D"/>
</linearGradient>
<linearGradient id="paint86_linear_5923_22081" x1="0" y1="12" x2="166.2" y2="12" gradientUnits="userSpaceOnUse">
<stop stop-color="#ACDF62"/>
<stop offset="1" stop-color="#C3E88D"/>
</linearGradient>
<linearGradient id="paint87_linear_5923_22081" x1="0" y1="12" x2="166.2" y2="12" gradientUnits="userSpaceOnUse">
<stop stop-color="#ACDF62"/>
<stop offset="1" stop-color="#C3E88D"/>
</linearGradient>
<linearGradient id="paint88_linear_5923_22081" x1="0" y1="12" x2="166.2" y2="12" gradientUnits="userSpaceOnUse">
<stop stop-color="#ACDF62"/>
<stop offset="1" stop-color="#C3E88D"/>
</linearGradient>
<linearGradient id="paint89_linear_5923_22081" x1="0" y1="12" x2="166.2" y2="12" gradientUnits="userSpaceOnUse">
<stop stop-color="#ACDF62"/>
<stop offset="1" stop-color="#C3E88D"/>
</linearGradient>
<linearGradient id="paint90_linear_5923_22081" x1="0" y1="12" x2="166.2" y2="12" gradientUnits="userSpaceOnUse">
<stop stop-color="#ACDF62"/>
<stop offset="1" stop-color="#C3E88D"/>
</linearGradient>
<linearGradient id="paint91_linear_5923_22081" x1="0" y1="12" x2="166.2" y2="12" gradientUnits="userSpaceOnUse">
<stop stop-color="#ACDF62"/>
<stop offset="1" stop-color="#C3E88D"/>
</linearGradient>
<linearGradient id="paint92_linear_5923_22081" x1="0" y1="12" x2="166.2" y2="12" gradientUnits="userSpaceOnUse">
<stop stop-color="#ACDF62"/>
<stop offset="1" stop-color="#C3E88D"/>
</linearGradient>
<linearGradient id="paint93_linear_5923_22081" x1="0" y1="12" x2="166.2" y2="12" gradientUnits="userSpaceOnUse">
<stop stop-color="#ACDF62"/>
<stop offset="1" stop-color="#C3E88D"/>
</linearGradient>
<linearGradient id="paint94_linear_5923_22081" x1="0" y1="12" x2="166.2" y2="12" gradientUnits="userSpaceOnUse">
<stop stop-color="#ACDF62"/>
<stop offset="1" stop-color="#C3E88D"/>
</linearGradient>
<linearGradient id="paint95_linear_5923_22081" x1="0" y1="12" x2="166.2" y2="12" gradientUnits="userSpaceOnUse">
<stop stop-color="#ACDF62"/>
<stop offset="1" stop-color="#C3E88D"/>
</linearGradient>
<linearGradient id="paint96_linear_5923_22081" x1="0" y1="12" x2="166.2" y2="12" gradientUnits="userSpaceOnUse">
<stop stop-color="#ACDF62"/>
<stop offset="1" stop-color="#C3E88D"/>
</linearGradient>
<linearGradient id="paint97_linear_5923_22081" x1="0" y1="12" x2="166.2" y2="12" gradientUnits="userSpaceOnUse">
<stop stop-color="#ACDF62"/>
<stop offset="1" stop-color="#C3E88D"/>
</linearGradient>
<clipPath id="clip0_5923_22081">
<rect width="166" height="24" fill="white"/>
</clipPath>
</defs>
</svg>
