<svg width="183" height="28" viewBox="0 0 183 28" fill="none" xmlns="http://www.w3.org/2000/svg">
<path d="M21.7778 1.55556V0H0V21.7778H3.11111V20.2222H9.33333V21.7778H7.77778V26.4444H9.33333V28H12.4444V26.4444H14V21.7778H12.4444V20.2222H18.6667V21.7778H21.7778V18.6667H23.3333V14H20.2222V15.5556H17.1111V14H15.5556V7.77778H21.7778V6.22222H23.3333V1.55556H21.7778Z" fill="#C3E88D"/>
<path d="M4.66667 4.66667V6.22222H3.11111V10.8889H4.66667V12.4444H7.77778V10.8889H9.33333V6.22222H7.77778V4.66667H4.66667Z" fill="white"/>
<path d="M10.8889 4.66667V6.22222H9.33333V10.8889H10.8889V12.4444H14V10.8889H15.5556V6.22222H14V4.66667H10.8889Z" fill="white"/>
<path d="M4.66667 10.8889V7.77778H7.77778V10.8889H4.66667Z" fill="black"/>
<path d="M10.8889 10.8889V7.77778H14V10.8889H10.8889Z" fill="black"/>
<path d="M45.6191 8.85716H49.0477V12.2857H45.6191V8.85716Z" fill="#C3E88D"/>
<path d="M42.1905 15.7143H45.6191V19.1429H42.1905V15.7143Z" fill="#C3E88D"/>
<path d="M42.1905 5.42859H45.6191V8.85716H42.1905V5.42859Z" fill="#C3E88D"/>
<path d="M38.762 5.42859H42.1905V8.85716H38.762V5.42859Z" fill="#C3E88D"/>
<path d="M35.3334 8.85716H38.762V12.2857H35.3334V8.85716Z" fill="#C3E88D"/>
<path d="M38.762 15.7143H42.1905V19.1429H38.762V15.7143Z" fill="#C3E88D"/>
<path d="M35.3334 12.2857H38.762V15.7143H35.3334V12.2857Z" fill="#C3E88D"/>
<path d="M45.6191 12.2857H49.0477V15.7143H45.6191V12.2857Z" fill="#C3E88D"/>
<path d="M45.6191 19.1429H49.0477V22.5714H45.6191V19.1429Z" fill="#C3E88D"/>
<path d="M42.1905 22.5714H45.6191V26H42.1905V22.5714Z" fill="#C3E88D"/>
<path d="M38.762 22.5714H42.1905V26H38.762V22.5714Z" fill="#C3E88D"/>
<path d="M57.6191 19.1429H61.0477V22.5714H57.6191V19.1429Z" fill="#C3E88D"/>
<path d="M54.1905 12.2857H57.6191V15.7143H54.1905V12.2857Z" fill="#C3E88D"/>
<path d="M61.0477 8.85716H64.4762V12.2857H61.0477V8.85716Z" fill="#C3E88D"/>
<path d="M61.0477 15.7143H64.4762V19.1429H61.0477V15.7143Z" fill="#C3E88D"/>
<path d="M50.762 15.7143H54.1905V19.1429H50.762V15.7143Z" fill="#C3E88D"/>
<path d="M54.1905 5.42859H57.6191V8.85716H54.1905V5.42859Z" fill="#C3E88D"/>
<path d="M54.1905 19.1429H57.6191V22.5714H54.1905V19.1429Z" fill="#C3E88D"/>
<path d="M57.6191 5.42859H61.0477V8.85716H57.6191V5.42859Z" fill="#C3E88D"/>
<path d="M57.6191 12.2857H61.0477V15.7143H57.6191V12.2857Z" fill="#C3E88D"/>
<path d="M66.1905 8.85714H69.619V12.2857H66.1905V8.85714Z" fill="#C3E88D"/>
<path d="M73.0476 8.85714H76.4762V12.2857H73.0476V8.85714Z" fill="#C3E88D"/>
<path d="M69.619 2H73.0476V5.42857H69.619V2Z" fill="#C3E88D"/>
<path d="M69.619 5.42857H73.0476V8.85714H69.619V5.42857Z" fill="#C3E88D"/>
<path d="M69.619 12.2857H73.0476V15.7143H69.619V12.2857Z" fill="#C3E88D"/>
<path d="M69.619 15.7143H73.0476V19.1429H69.619V15.7143Z" fill="#C3E88D"/>
<path d="M73.0476 19.1429H76.4762V22.5714H73.0476V19.1429Z" fill="#C3E88D"/>
<path d="M78.1905 12.2857H81.619V15.7143H78.1905V12.2857Z" fill="#C3E88D"/>
<path d="M78.1905 15.7143H81.619V19.1429H78.1905V15.7143Z" fill="#C3E88D"/>
<path d="M78.1905 19.1429H81.619V22.5714H78.1905V19.1429Z" fill="#C3E88D"/>
<path d="M85.0476 19.1429H88.4762V22.5714H85.0476V19.1429Z" fill="#C3E88D"/>
<path d="M81.619 8.85714H85.0476V12.2857H81.619V8.85714Z" fill="#C3E88D"/>
<path d="M85.0476 12.2857H88.4762V15.7143H85.0476V12.2857Z" fill="#C3E88D"/>
<path d="M85.0476 15.7143H88.4762V19.1429H85.0476V15.7143Z" fill="#C3E88D"/>
<path d="M78.1905 2H81.619V5.42857H78.1905V2Z" fill="#C3E88D"/>
<path d="M78.1905 5.42857H81.619V8.85714H78.1905V5.42857Z" fill="#C3E88D"/>
<path d="M93.619 5.42859H97.0476V8.85716H93.619V5.42859Z" fill="#C3E88D"/>
<path d="M97.0476 5.42859H100.476V8.85716H97.0476V5.42859Z" fill="#C3E88D"/>
<path d="M90.1904 8.85716H93.619V12.2857H90.1904V8.85716Z" fill="#C3E88D"/>
<path d="M90.1904 15.7143H93.619V19.1429H90.1904V15.7143Z" fill="#C3E88D"/>
<path d="M93.619 19.1429H97.0476V22.5714H93.619V19.1429Z" fill="#C3E88D"/>
<path d="M97.0476 19.1429H100.476V22.5714H97.0476V19.1429Z" fill="#C3E88D"/>
<path d="M93.619 12.2857H97.0476V15.7143H93.619V12.2857Z" fill="#C3E88D"/>
<path d="M97.0476 12.2857H100.476V15.7143H97.0476V12.2857Z" fill="#C3E88D"/>
<path d="M100.476 8.85716H103.905V12.2857H100.476V8.85716Z" fill="#C3E88D"/>
<path d="M109.048 8.85716H112.476V12.2857H109.048V8.85716Z" fill="#C3E88D"/>
<path d="M112.476 12.2857H115.905V15.7143H112.476V12.2857Z" fill="#C3E88D"/>
<path d="M105.619 5.42859H109.048V8.85716H105.619V5.42859Z" fill="#C3E88D"/>
<path d="M105.619 12.2857H109.048V15.7143H105.619V12.2857Z" fill="#C3E88D"/>
<path d="M105.619 15.7143H109.048V19.1429H105.619V15.7143Z" fill="#C3E88D"/>
<path d="M105.619 19.1429H109.048V22.5714H105.619V19.1429Z" fill="#C3E88D"/>
<path d="M117.619 19.1429H121.048V22.5715H117.619V19.1429Z" fill="#C3E88D"/>
<path d="M121.048 19.1429H124.476V22.5715H121.048V19.1429Z" fill="#C3E88D"/>
<path d="M124.476 19.1429H127.905V22.5715H124.476V19.1429Z" fill="#C3E88D"/>
<path d="M129.619 12.2857H133.048V15.7143H129.619V12.2857Z" fill="#C3E88D"/>
<path d="M129.619 15.7143H133.048V19.1429H129.619V15.7143Z" fill="#C3E88D"/>
<path d="M129.619 19.1429H133.048V22.5714H129.619V19.1429Z" fill="#C3E88D"/>
<path d="M136.476 19.1429H139.905V22.5714H136.476V19.1429Z" fill="#C3E88D"/>
<path d="M133.048 8.85714H136.476V12.2857H133.048V8.85714Z" fill="#C3E88D"/>
<path d="M136.476 12.2857H139.905V15.7143H136.476V12.2857Z" fill="#C3E88D"/>
<path d="M136.476 15.7143H139.905V19.1429H136.476V15.7143Z" fill="#C3E88D"/>
<path d="M129.619 2H133.048V5.42857H129.619V2Z" fill="#C3E88D"/>
<path d="M129.619 5.42857H133.048V8.85714H129.619V5.42857Z" fill="#C3E88D"/>
<path d="M145.048 5.42859H148.476V8.85716H145.048V5.42859Z" fill="#C3E88D"/>
<path d="M148.476 5.42859H151.905V8.85716H148.476V5.42859Z" fill="#C3E88D"/>
<path d="M141.619 8.85716H145.048V12.2857H141.619V8.85716Z" fill="#C3E88D"/>
<path d="M141.619 15.7143H145.048V19.1429H141.619V15.7143Z" fill="#C3E88D"/>
<path d="M145.048 19.1429H148.476V22.5714H145.048V19.1429Z" fill="#C3E88D"/>
<path d="M148.476 19.1429H151.905V22.5714H148.476V19.1429Z" fill="#C3E88D"/>
<path d="M145.048 12.2857H148.476V15.7143H145.048V12.2857Z" fill="#C3E88D"/>
<path d="M148.476 12.2857H151.905V15.7143H148.476V12.2857Z" fill="#C3E88D"/>
<path d="M151.905 8.85716H155.333V12.2857H151.905V8.85716Z" fill="#C3E88D"/>
<path d="M160.476 8.85716H163.905V12.2857H160.476V8.85716Z" fill="#C3E88D"/>
<path d="M163.905 12.2857H167.333V15.7143H163.905V12.2857Z" fill="#C3E88D"/>
<path d="M157.048 5.42859H160.476V8.85716H157.048V5.42859Z" fill="#C3E88D"/>
<path d="M157.048 12.2857H160.476V15.7143H157.048V12.2857Z" fill="#C3E88D"/>
<path d="M157.048 15.7143H160.476V19.1429H157.048V15.7143Z" fill="#C3E88D"/>
<path d="M157.048 19.1429H160.476V22.5714H157.048V19.1429Z" fill="#C3E88D"/>
<path d="M172.476 5.42859H175.905V8.85716H172.476V5.42859Z" fill="#C3E88D"/>
<path d="M175.905 5.42859H179.333V8.85716H175.905V5.42859Z" fill="#C3E88D"/>
<path d="M169.048 8.85716H172.476V12.2857H169.048V8.85716Z" fill="#C3E88D"/>
<path d="M169.048 15.7143H172.476V19.1429H169.048V15.7143Z" fill="#C3E88D"/>
<path d="M172.476 19.1429H175.905V22.5714H172.476V19.1429Z" fill="#C3E88D"/>
<path d="M175.905 19.1429H179.333V22.5714H175.905V19.1429Z" fill="#C3E88D"/>
<path d="M172.476 12.2857H175.905V15.7143H172.476V12.2857Z" fill="#C3E88D"/>
<path d="M175.905 12.2857H179.333V15.7143H175.905V12.2857Z" fill="#C3E88D"/>
<path d="M179.333 8.85716H182.762V12.2857H179.333V8.85716Z" fill="#C3E88D"/>
</svg>
