<svg width="182" height="25" viewBox="0 0 182 25" fill="none" xmlns="http://www.w3.org/2000/svg">
<path d="M18.7167 1.58333V0.25H0.0499878V18.9167H2.71665V17.5833H8.04999V18.9167H6.71665V22.9167H8.04999V24.25H10.7167V22.9167H12.05V18.9167H10.7167V17.5833H16.05V18.9167H18.7167V16.25H20.05V12.25H17.3833V13.5833H14.7167V12.25H13.3833V6.91667H18.7167V5.58333H20.05V1.58333H18.7167Z" fill="#C3E88D"/>
<path d="M4.04999 4.25V5.58333H2.71665V9.58333H4.04999V10.9167H6.71665V9.58333H8.04999V5.58333H6.71665V4.25H4.04999Z" fill="white"/>
<path d="M9.38332 4.25V5.58333H8.04999V9.58333H9.38332V10.9167H12.05V9.58333H13.3833V5.58333H12.05V4.25H9.38332Z" fill="white"/>
<path d="M4.04999 9.58333V6.91667H6.71665V9.58333H4.04999Z" fill="black"/>
<path d="M9.38332 9.58333V6.91667H12.05V9.58333H9.38332Z" fill="black"/>
<path fill-rule="evenodd" clip-rule="evenodd" d="M39.05 7H31.55V3.5H39.05V7ZM39.05 14V7H42.55V14H39.05ZM39.05 17.5V14H31.55V7H28.05V14H31.55V17.5H39.05ZM39.05 21H42.55V17.5H39.05V21ZM39.05 21H31.55V24.5H39.05V21Z" fill="#ACDF62"/>
<path fill-rule="evenodd" clip-rule="evenodd" d="M48.05 7H55.05V10.5H48.05V14H44.55V17.5H48.05V21H55.05V17.5H58.55V14H55.05V10.5H58.55V7H55.05V3.5H48.05V7ZM55.05 14V17.5H48.05V14H55.05Z" fill="#ACDF62"/>
<path fill-rule="evenodd" clip-rule="evenodd" d="M64.05 7V0H67.55V7H64.05ZM64.05 10.5H60.55V7H64.05V10.5ZM67.55 10.5H64.05V17.5H67.55V21H71.05V17.5H67.55V10.5ZM67.55 10.5H71.05V7H67.55V10.5Z" fill="#ACDF62"/>
<path fill-rule="evenodd" clip-rule="evenodd" d="M73.05 7V0H76.55V7H73.05ZM80.05 10.5V7H76.55V10.5H73.05V21H76.55V10.5H80.05ZM80.05 10.5H83.55V21H80.05V10.5Z" fill="#ACDF62"/>
<path fill-rule="evenodd" clip-rule="evenodd" d="M89.05 7H96.05V10.5H89.05V7ZM89.05 14V10.5H85.55V7H89.05V3.5H96.05V7H99.55V10.5H96.05V14H89.05ZM89.05 17.5H85.55V14H89.05V17.5ZM89.05 17.5V21H96.05V17.5H89.05Z" fill="#ACDF62"/>
<path fill-rule="evenodd" clip-rule="evenodd" d="M101.55 7H105.05V10.5H101.55V21H105.05V10.5H108.55V14H112.05V10.5H108.55V7H105.05V3.5H101.55V7Z" fill="#ACDF62"/>
<path d="M114.05 21V17.5H124.55V21H114.05Z" fill="#ACDF62"/>
<path fill-rule="evenodd" clip-rule="evenodd" d="M126.55 7V0H130.05V7H126.55ZM133.55 10.5V7H130.05V10.5H126.55V21H130.05V10.5H133.55ZM133.55 10.5H137.05V21H133.55V10.5Z" fill="#ACDF62"/>
<path fill-rule="evenodd" clip-rule="evenodd" d="M142.55 7H149.55V10.5H142.55V7ZM142.55 14V10.5H139.05V7H142.55V3.5H149.55V7H153.05V10.5H149.55V14H142.55ZM142.55 17.5H139.05V14H142.55V17.5ZM142.55 17.5V21H149.55V17.5H142.55Z" fill="#ACDF62"/>
<path fill-rule="evenodd" clip-rule="evenodd" d="M155.05 7H158.55V10.5H155.05V21H158.55V10.5H162.05V14H165.55V10.5H162.05V7H158.55V3.5H155.05V7Z" fill="#ACDF62"/>
<path fill-rule="evenodd" clip-rule="evenodd" d="M171.05 7H178.05V10.5H171.05V7ZM171.05 14V10.5H167.55V7H171.05V3.5H178.05V7H181.55V10.5H178.05V14H171.05ZM171.05 17.5H167.55V14H171.05V17.5ZM171.05 17.5V21H178.05V17.5H171.05Z" fill="#ACDF62"/>
</svg>
