<svg width="178" height="25" viewBox="0 0 178 25" fill="none" xmlns="http://www.w3.org/2000/svg">
<path d="M18.6667 1.58333V0.25H0V18.9167H2.66667V17.5833H8V18.9167H6.66667V22.9167H8V24.25H10.6667V22.9167H12V18.9167H10.6667V17.5833H16V18.9167H18.6667V16.25H20V12.25H17.3333V13.5833H14.6667V12.25H13.3333V6.91667H18.6667V5.58333H20V1.58333H18.6667Z" fill="#C3E88D"/>
<path d="M4 4.25V5.58333H2.66667V9.58333H4V10.9167H6.66667V9.58333H8V5.58333H6.66667V4.25H4Z" fill="white"/>
<path d="M9.33333 4.25V5.58333H8V9.58333H9.33333V10.9167H12V9.58333H13.3333V5.58333H12V4.25H9.33333Z" fill="white"/>
<path d="M4 9.58333V6.91667H6.66667V9.58333H4Z" fill="black"/>
<path d="M9.33333 9.58333V6.91667H12V9.58333H9.33333Z" fill="black"/>
<path fill-rule="evenodd" clip-rule="evenodd" d="M35 7H27.5V3.5H35V7ZM35 14V7H38.5V14H35ZM35 17.5V14H27.5V7H24V14H27.5V17.5H35ZM35 21H38.5V17.5H35V21ZM35 21H27.5V24.5H35V21Z" fill="#ACDF62"/>
<path fill-rule="evenodd" clip-rule="evenodd" d="M44 7H51V10.5H44V14H40.5V17.5H44V21H51V17.5H54.5V14H51V10.5H54.5V7H51V3.5H44V7ZM51 14V17.5H44V14H51Z" fill="#ACDF62"/>
<path fill-rule="evenodd" clip-rule="evenodd" d="M60 7V0H63.5V7H60ZM60 10.5H56.5V7H60V10.5ZM63.5 10.5H60V17.5H63.5V21H67V17.5H63.5V10.5ZM63.5 10.5H67V7H63.5V10.5Z" fill="#ACDF62"/>
<path fill-rule="evenodd" clip-rule="evenodd" d="M69 7V0H72.5V7H69ZM76 10.5V7H72.5V10.5H69V21H72.5V10.5H76ZM76 10.5H79.5V21H76V10.5Z" fill="#ACDF62"/>
<path fill-rule="evenodd" clip-rule="evenodd" d="M85 7H92V10.5H85V7ZM85 14V10.5H81.5V7H85V3.5H92V7H95.5V10.5H92V14H85ZM85 17.5H81.5V14H85V17.5ZM85 17.5V21H92V17.5H85Z" fill="#ACDF62"/>
<path fill-rule="evenodd" clip-rule="evenodd" d="M97.5 7H101V10.5H97.5V21H101V10.5H104.5V14H108V10.5H104.5V7H101V3.5H97.5V7Z" fill="#ACDF62"/>
<path d="M110 21V17.5H120.5V21H110Z" fill="#ACDF62"/>
<path fill-rule="evenodd" clip-rule="evenodd" d="M122.5 7V0H126V7H122.5ZM129.5 10.5V7H126V10.5H122.5V21H126V10.5H129.5ZM129.5 10.5H133V21H129.5V10.5Z" fill="#ACDF62"/>
<path fill-rule="evenodd" clip-rule="evenodd" d="M138.5 7H145.5V10.5H138.5V7ZM138.5 14V10.5H135V7H138.5V3.5H145.5V7H149V10.5H145.5V14H138.5ZM138.5 17.5H135V14H138.5V17.5ZM138.5 17.5V21H145.5V17.5H138.5Z" fill="#ACDF62"/>
<path fill-rule="evenodd" clip-rule="evenodd" d="M151 7H154.5V10.5H151V21H154.5V10.5H158V14H161.5V10.5H158V7H154.5V3.5H151V7Z" fill="#ACDF62"/>
<path fill-rule="evenodd" clip-rule="evenodd" d="M167 7H174V10.5H167V7ZM167 14V10.5H163.5V7H167V3.5H174V7H177.5V10.5H174V14H167ZM167 17.5H163.5V14H167V17.5ZM167 17.5V21H174V17.5H167Z" fill="#ACDF62"/>
</svg>
