<svg width="20" height="24" viewBox="0 0 20 24" fill="none" xmlns="http://www.w3.org/2000/svg">
<g id="Vector">
<path d="M18.6667 1.33333V0H0V18.6667H2.66667V17.3333H8V18.6667H6.66667V22.6667H8V24H10.6667V22.6667H12V18.6667H10.6667V17.3333H16V18.6667H18.6667V16H20V12H17.3333V13.3333H14.6667V12H13.3333V6.66667H18.6667V5.33333H20V1.33333H18.6667Z" fill="#C3E88D"/>
<path d="M4 4V5.33333H2.66667V9.33333H4V10.6667H6.66667V9.33333H8V5.33333H6.66667V4H4Z" fill="white"/>
<path d="M9.33333 4V5.33333H8V9.33333H9.33333V10.6667H12V9.33333H13.3333V5.33333H12V4H9.33333Z" fill="white"/>
<path d="M4 9.33333V6.66667H6.66667V9.33333H4Z" fill="black"/>
<path d="M9.33333 9.33333V6.66667H12V9.33333H9.33333Z" fill="black"/>
</g>
</svg>
