<svg width="14" height="16" viewBox="0 0 14 16" fill="none" xmlns="http://www.w3.org/2000/svg">
<path d="M12.8926 0.888889V0H0.199219V12.4444H2.01255V11.5556H5.63922V12.4444H4.73255V15.1111H5.63922V16H7.45255V15.1111H8.35922V12.4444H7.45255V11.5556H11.0792V12.4444H12.8926V10.6667H13.7992V8H11.9859V8.88889H10.1726V8H9.26589V4.44444H12.8926V3.55556H13.7992V0.888889H12.8926Z" fill="#C3E88D"/>
<path d="M2.91922 2.66667V3.55556H2.01255V6.22222H2.91922V7.11111H4.73255V6.22222H5.63922V3.55556H4.73255V2.66667H2.91922Z" fill="white"/>
<path d="M6.54589 2.66667V3.55556H5.63922V6.22222H6.54589V7.11111H8.35922V6.22222H9.26589V3.55556H8.35922V2.66667H6.54589Z" fill="white"/>
<path d="M2.91922 6.22222V4.44444H4.73255V6.22222H2.91922Z" fill="black"/>
<path d="M6.54589 6.22222V4.44444H8.35922V6.22222H6.54589Z" fill="black"/>
</svg>
