<svg xmlns="http://www.w3.org/2000/svg" width="16" height="16" viewBox="0 0 16 16" fill="none">
  <path d="M7.99985 2.17168e-07C8.9894 -0.000302848 9.95299 0.316605 10.7492 0.90421C11.5454 1.49182 12.1323 2.31917 12.4237 3.26484C12.7151 4.21051 12.6957 5.22469 12.3683 6.15852C12.041 7.09235 11.4229 7.89666 10.6048 8.45338C12.0247 8.9742 13.2563 9.90807 14.141 11.1348C15.0257 12.3615 15.523 13.825 15.5689 15.3367C15.5732 15.4207 15.5607 15.5046 15.5321 15.5836C15.5036 15.6626 15.4595 15.7351 15.4025 15.7969C15.3455 15.8586 15.2768 15.9084 15.2003 15.9432C15.1239 15.978 15.0412 15.9973 14.9572 15.9997C14.8733 16.0022 14.7896 15.9879 14.7112 15.9576C14.6329 15.9273 14.5613 15.8816 14.5008 15.8233C14.4403 15.765 14.3921 15.6952 14.3589 15.618C14.3258 15.5408 14.3083 15.4578 14.3077 15.3738C14.2576 13.7343 13.5711 12.1787 12.3937 11.0368C11.2163 9.8948 9.64051 9.25615 8.00027 9.25615C6.36004 9.25615 4.78425 9.8948 3.60684 11.0368C2.42944 12.1787 1.74295 13.7343 1.69284 15.3738C1.68782 15.5411 1.61652 15.6996 1.49463 15.8144C1.37274 15.9292 1.21023 15.9909 1.04287 15.9859C0.87551 15.9808 0.716998 15.9095 0.602206 15.7877C0.487413 15.6658 0.425744 15.5033 0.430765 15.3359C0.476829 13.8243 0.97421 12.361 1.8589 11.1345C2.74358 9.90789 3.97509 8.97414 5.39493 8.45338C4.57684 7.89666 3.95875 7.09235 3.63139 6.15852C3.30403 5.22469 3.28462 4.21051 3.57603 3.26484C3.86744 2.31917 4.45432 1.49182 5.25051 0.90421C6.04671 0.316605 7.0103 -0.000302848 7.99985 2.17168e-07ZM4.63432 4.62761C4.63432 5.52021 4.9889 6.37624 5.62006 7.0074C6.25122 7.63856 7.10726 7.99314 7.99985 7.99314C8.89245 7.99314 9.74849 7.63856 10.3796 7.0074C11.0108 6.37624 11.3654 5.52021 11.3654 4.62761C11.3654 3.73502 11.0108 2.87898 10.3796 2.24782C9.74849 1.61666 8.89245 1.26208 7.99985 1.26208C7.10726 1.26208 6.25122 1.61666 5.62006 2.24782C4.9889 2.87898 4.63432 3.73502 4.63432 4.62761Z" fill="#919191"/>
</svg>