<svg xmlns="http://www.w3.org/2000/svg" width="16" height="16" viewBox="0 0 16 16" fill="none">
  <path d="M10.8775 0.878876L5.25442 6.50192C2.90149 8.86076 1.11965 11.7268 0.0453843 14.8806C-0.00584593 15.0298 -0.0140051 15.1904 0.0218423 15.344C0.0576897 15.4976 0.136093 15.638 0.248063 15.7491L0.251001 15.752C0.32892 15.8305 0.421592 15.8928 0.523687 15.9354C0.625781 15.978 0.735284 15.9999 0.845896 16C0.938972 15.9999 1.03141 15.9846 1.11951 15.9546C4.27332 14.8803 7.13941 13.0985 9.49824 10.7455L15.1211 5.12252C15.6839 4.55978 16 3.79655 16 3.00071C16 2.20488 15.6839 1.44164 15.1211 0.878893C14.8425 0.600251 14.5117 0.37922 14.1476 0.228419C13.7836 0.0776184 13.3934 1.56839e-06 12.9993 0C12.2035 -3.16744e-06 11.4402 0.316138 10.8775 0.878876ZM8.73373 9.9812C6.60842 12.1009 4.04861 13.7345 1.23085 14.7692C2.26549 11.9514 3.89902 9.39158 6.01876 7.26625L9.36842 3.91662L12.0834 6.63156L8.73373 9.9812ZM14.3568 4.35819L12.8477 5.86723L10.1328 3.15229L11.6418 1.64321C11.82 1.46452 12.0317 1.32271 12.2647 1.22589C12.4977 1.12907 12.7476 1.07914 12.9999 1.07895C13.2522 1.07877 13.5021 1.12834 13.7353 1.22482C13.9685 1.32131 14.1803 1.46281 14.3588 1.64125C14.5372 1.81968 14.6787 2.03155 14.7752 2.26472C14.8717 2.49789 14.9212 2.74779 14.921 3.00013C14.9209 3.25247 14.8709 3.50231 14.7741 3.73533C14.6773 3.96836 14.5355 4.18002 14.3568 4.35819Z" fill="#919191"/>
</svg>