<svg width="14" height="13" viewBox="0 0 14 13" fill="none" xmlns="http://www.w3.org/2000/svg">
<path d="M8.57895 3.65789H8.58526M7 11.8684H2.89474C2.39222 11.8684 1.91029 11.6688 1.55496 11.3135C1.19962 10.9581 1 10.4762 1 9.97368V2.39474C1 1.89222 1.19962 1.41029 1.55496 1.05496C1.91029 0.699624 2.39222 0.5 2.89474 0.5H10.4737C10.9762 0.5 11.4581 0.699624 11.8135 1.05496C12.1688 1.41029 12.3684 1.89222 12.3684 2.39474V6.5" stroke="#C4C4C4" stroke-linecap="round" stroke-linejoin="round"/>
<path d="M1 8.71029L4.15789 5.55239C4.744 4.98839 5.46653 4.98839 6.05263 5.55239L8.57895 8.07871" stroke="#C4C4C4" stroke-linecap="round" stroke-linejoin="round"/>
<path d="M7.94727 7.44755L8.57884 6.81597C9.002 6.40923 9.49463 6.29555 9.95695 6.47492M9.21042 10.6054H12.9999M11.1052 8.71071V12.5002" stroke="#C4C4C4" stroke-linecap="round" stroke-linejoin="round"/>
</svg>
